<?xml version="1.0" encoding="UTF-8" standalone="no"?>
<!-- Created with Inkscape (http://www.inkscape.org/) -->

<svg
   width="64.661896mm"
   height="34.338146mm"
   viewBox="0 0 64.661896 34.338146"
   version="1.1"
   id="svg1"
   inkscape:version="1.3.2 (091e20e, 2023-11-25, custom)"
   sodipodi:docname="etq-logo01.svg"
   xmlns:inkscape="http://www.inkscape.org/namespaces/inkscape"
   xmlns:sodipodi="http://sodipodi.sourceforge.net/DTD/sodipodi-0.dtd"
   xmlns="http://www.w3.org/2000/svg"
   xmlns:svg="http://www.w3.org/2000/svg">
  <sodipodi:namedview
     id="namedview1"
     pagecolor="#353535"
     bordercolor="#999999"
     borderopacity="1"
     inkscape:showpageshadow="2"
     inkscape:pageopacity="0"
     inkscape:pagecheckerboard="0"
     inkscape:deskcolor="#d1d1d1"
     inkscape:document-units="mm"
     inkscape:zoom="1.4984147"
     inkscape:cx="-84.422557"
     inkscape:cy="159.16822"
     inkscape:window-width="1920"
     inkscape:window-height="1017"
     inkscape:window-x="-8"
     inkscape:window-y="-8"
     inkscape:window-maximized="1"
     inkscape:current-layer="layer1" />
  <defs
     id="defs1">
    <clipPath
       clipPathUnits="userSpaceOnUse"
       id="clipPath2572">
      <path
         d="m 1536.342,100.994 h 183.294 v 97.337 h -183.294 z"
         transform="translate(-1622.6146,-163.03183)"
         id="path2572" />
    </clipPath>
    <clipPath
       clipPathUnits="userSpaceOnUse"
       id="clipPath2574">
      <path
         d="m 1536.342,100.994 h 183.294 v 97.337 h -183.294 z"
         transform="translate(-1681.1157,-183.11848)"
         id="path2574" />
    </clipPath>
    <clipPath
       clipPathUnits="userSpaceOnUse"
       id="clipPath2576">
      <path
         d="m 1536.342,100.994 h 183.294 v 97.337 h -183.294 z"
         transform="translate(-1716.5226,-163.27258)"
         id="path2576" />
    </clipPath>
    <clipPath
       clipPathUnits="userSpaceOnUse"
       id="clipPath2578">
      <path
         d="m 1536.342,100.994 h 183.294 v 97.337 h -183.294 z"
         transform="translate(0,2.5e-5)"
         id="path2578" />
    </clipPath>
    <clipPath
       clipPathUnits="userSpaceOnUse"
       id="clipPath2580">
      <path
         d="m 1536.342,100.994 h 183.294 v 97.337 h -183.294 z"
         transform="translate(-1538.2314,-111.3293)"
         id="path2580" />
    </clipPath>
    <clipPath
       clipPathUnits="userSpaceOnUse"
       id="clipPath2582">
      <path
         d="m 1536.342,100.994 h 183.294 v 97.337 h -183.294 z"
         transform="translate(-1554.123,-106.5572)"
         id="path2582" />
    </clipPath>
    <clipPath
       clipPathUnits="userSpaceOnUse"
       id="clipPath2584">
      <path
         d="m 1536.342,100.994 h 183.294 v 97.337 h -183.294 z"
         transform="translate(-1563.7599,-112.49353)"
         id="path2584" />
    </clipPath>
    <clipPath
       clipPathUnits="userSpaceOnUse"
       id="clipPath2586">
      <path
         d="m 1536.342,100.994 h 183.294 v 97.337 h -183.294 z"
         transform="translate(-1573.8591,-106.41508)"
         id="path2586" />
    </clipPath>
    <clipPath
       clipPathUnits="userSpaceOnUse"
       id="clipPath2588">
      <path
         d="m 1536.342,100.994 h 183.294 v 97.337 h -183.294 z"
         transform="translate(-1586.0115,-106.41508)"
         id="path2588" />
    </clipPath>
    <clipPath
       clipPathUnits="userSpaceOnUse"
       id="clipPath2590">
      <path
         d="m 1536.342,100.994 h 183.294 v 97.337 h -183.294 z"
         transform="translate(-1601.6713,-114.47488)"
         id="path2590" />
    </clipPath>
    <clipPath
       clipPathUnits="userSpaceOnUse"
       id="clipPath2592">
      <path
         d="m 1536.342,100.994 h 183.294 v 97.337 h -183.294 z"
         transform="translate(-1617.771,-110.97388)"
         id="path2592" />
    </clipPath>
    <clipPath
       clipPathUnits="userSpaceOnUse"
       id="clipPath2594">
      <path
         d="m 1536.342,100.994 h 183.294 v 97.337 h -183.294 z"
         transform="translate(-1631.8602,-110.96488)"
         id="path2594" />
    </clipPath>
    <clipPath
       clipPathUnits="userSpaceOnUse"
       id="clipPath2596">
      <path
         d="m 1536.342,100.994 h 183.294 v 97.337 h -183.294 z"
         transform="translate(-1640.7352,-106.41508)"
         id="path2596" />
    </clipPath>
    <clipPath
       clipPathUnits="userSpaceOnUse"
       id="clipPath2598">
      <path
         d="m 1536.342,100.994 h 183.294 v 97.337 h -183.294 z"
         transform="translate(-1648.7047,-118.90048)"
         id="path2598" />
    </clipPath>
    <clipPath
       clipPathUnits="userSpaceOnUse"
       id="clipPath2600">
      <path
         d="m 1536.342,100.994 h 183.294 v 97.337 h -183.294 z"
         transform="translate(-1661.4772,-111.3293)"
         id="path2600" />
    </clipPath>
    <clipPath
       clipPathUnits="userSpaceOnUse"
       id="clipPath2602">
      <path
         d="m 1536.342,100.994 h 183.294 v 97.337 h -183.294 z"
         transform="translate(-1678.8144,-110.00518)"
         id="path2602" />
    </clipPath>
    <clipPath
       clipPathUnits="userSpaceOnUse"
       id="clipPath2604">
      <path
         d="m 1536.342,100.994 h 183.294 v 97.337 h -183.294 z"
         transform="translate(-1687.6224,-106.5572)"
         id="path2604" />
    </clipPath>
    <clipPath
       clipPathUnits="userSpaceOnUse"
       id="clipPath2606">
      <path
         d="m 1536.342,100.994 h 183.294 v 97.337 h -183.294 z"
         transform="translate(-1694.8497,-106.41508)"
         id="path2606" />
    </clipPath>
    <clipPath
       clipPathUnits="userSpaceOnUse"
       id="clipPath2608">
      <path
         d="m 1536.342,100.994 h 183.294 v 97.337 h -183.294 z"
         transform="translate(-1707.8208,-106.5572)"
         id="path2608" />
    </clipPath>
    <clipPath
       clipPathUnits="userSpaceOnUse"
       id="clipPath2610">
      <path
         d="m 1536.342,100.994 h 183.294 v 97.337 h -183.294 z"
         transform="translate(-1717.8142,-110.96488)"
         id="path2610" />
    </clipPath>
    <clipPath
       clipPathUnits="userSpaceOnUse"
       id="clipPath2612">
      <path
         d="m 1536.342,100.994 h 183.294 v 97.337 h -183.294 z"
         transform="translate(0,2.5e-5)"
         id="path2612" />
    </clipPath>
    <clipPath
       clipPathUnits="userSpaceOnUse"
       id="clipPath2614">
      <path
         d="m 1536.342,100.994 h 183.294 v 97.337 h -183.294 z"
         transform="translate(0,2.5e-5)"
         id="path2614" />
    </clipPath>
    <clipPath
       clipPathUnits="userSpaceOnUse"
       id="clipPath2616">
      <path
         d="m 1536.342,100.994 h 183.294 v 97.337 h -183.294 z"
         transform="translate(0,2.5e-5)"
         id="path2616" />
    </clipPath>
    <clipPath
       clipPathUnits="userSpaceOnUse"
       id="clipPath2618">
      <path
         d="m 1536.342,100.994 h 183.294 v 97.337 h -183.294 z"
         transform="translate(0,2.5e-5)"
         id="path2618" />
    </clipPath>
    <clipPath
       clipPathUnits="userSpaceOnUse"
       id="clipPath2620">
      <path
         d="m 1536.342,100.994 h 183.294 v 97.337 h -183.294 z"
         transform="translate(0,2.5e-5)"
         id="path2620" />
    </clipPath>
    <clipPath
       clipPathUnits="userSpaceOnUse"
       id="clipPath2622">
      <path
         d="m 1536.342,100.994 h 183.294 v 97.337 h -183.294 z"
         transform="translate(0,2.5e-5)"
         id="path2622" />
    </clipPath>
    <clipPath
       clipPathUnits="userSpaceOnUse"
       id="clipPath2624">
      <path
         d="m 1536.342,100.994 h 183.294 v 97.337 h -183.294 z"
         transform="translate(-1623.3265,-139.06273)"
         id="path2624" />
    </clipPath>
    <clipPath
       clipPathUnits="userSpaceOnUse"
       id="clipPath2626">
      <path
         d="m 1536.342,100.994 h 183.294 v 97.337 h -183.294 z"
         transform="translate(-1645.024,-130.56703)"
         id="path2626" />
    </clipPath>
    <clipPath
       clipPathUnits="userSpaceOnUse"
       id="clipPath2628">
      <path
         d="m 1536.342,100.994 h 183.294 v 97.337 h -183.294 z"
         transform="translate(-1693.7076,-135.31363)"
         id="path2628" />
    </clipPath>
    <clipPath
       clipPathUnits="userSpaceOnUse"
       id="clipPath2630">
      <path
         d="m 1536.342,100.994 h 183.294 v 97.337 h -183.294 z"
         transform="translate(0,2.5e-5)"
         id="path2630" />
    </clipPath>
    <clipPath
       clipPathUnits="userSpaceOnUse"
       id="clipPath2632">
      <path
         d="m 1536.342,100.994 h 183.294 v 97.337 h -183.294 z"
         transform="translate(-1570.4476,-198.3317)"
         id="path2632" />
    </clipPath>
    <clipPath
       clipPathUnits="userSpaceOnUse"
       id="clipPath2634">
      <path
         d="m 1536.342,100.994 h 183.294 v 97.337 h -183.294 z"
         transform="translate(-1550.4459,-135.22063)"
         id="path2634" />
    </clipPath>
    <clipPath
       clipPathUnits="userSpaceOnUse"
       id="clipPath2636">
      <path
         d="m 1536.342,100.994 h 183.294 v 97.337 h -183.294 z"
         transform="translate(0,2.5e-5)"
         id="path2636" />
    </clipPath>
    <clipPath
       clipPathUnits="userSpaceOnUse"
       id="clipPath2638">
      <path
         d="m 1536.342,100.994 h 183.294 v 97.337 h -183.294 z"
         transform="translate(0,2.5e-5)"
         id="path2638" />
    </clipPath>
    <clipPath
       clipPathUnits="userSpaceOnUse"
       id="clipPath2640">
      <path
         d="m 1536.342,100.994 h 183.294 v 97.337 h -183.294 z"
         transform="translate(0,2.5e-5)"
         id="path2640" />
    </clipPath>
    <clipPath
       clipPathUnits="userSpaceOnUse"
       id="clipPath2642">
      <path
         d="m 1536.342,100.994 h 183.294 v 97.337 h -183.294 z"
         transform="translate(0,2.5e-5)"
         id="path2642" />
    </clipPath>
    <clipPath
       clipPathUnits="userSpaceOnUse"
       id="clipPath2644">
      <path
         d="m 1536.342,100.994 h 183.294 v 97.337 h -183.294 z"
         transform="translate(0,2.5e-5)"
         id="path2644" />
    </clipPath>
  </defs>
  <g
     inkscape:label="Layer 1"
     inkscape:groupmode="layer"
     id="layer1"
     transform="translate(-204.25833,-101.86455)">
    <g
       id="group-MC2"
       transform="matrix(0.26458333,0,0,0.26458333,-337.72912,-1160.0353)">
      <path
         id="path2571"
         d="m 0,0 c 2.983,0 5.492,1.17 7.559,3.508 2.068,2.305 3.118,5.056 3.118,8.255 V 20.58 H 6.847 V 12.21 C 6.847,9.975 6.305,8.049 5.186,6.432 3.865,4.609 2.136,3.68 0,3.68 c -2.169,0 -3.898,0.929 -5.22,2.752 -1.118,1.617 -1.695,3.543 -1.695,5.778 v 8.37 h -3.83 v -8.817 c 0,-3.336 1.085,-6.122 3.22,-8.392 C -5.457,1.135 -2.949,0 0,0"
         style="fill:#4a4a49; xx=icccc-color(sRGB-IEC61966-2, 0.1, 0.28999329, 0.28999329, 0.28599548);fill-opacity:1;fill-rule:nonzero;stroke:none"
         transform="matrix(1.3333333,0,0,-1.3333333,2163.4861,4816.4509)"
         clip-path="url(#clipPath2572)" />
      <path
         id="path2573"
         d="M 0,0 C 0.78,0.86 1.864,1.307 3.254,1.307 4.644,1.307 5.728,0.86 6.508,0 7.22,-0.791 7.559,-1.788 7.559,-2.992 7.559,-4.85 6.813,-6.329 5.321,-7.395 4.745,-7.842 4.034,-8.255 3.254,-8.668 c -0.78,0.379 -1.492,0.826 -2.102,1.273 -1.491,1.101 -2.237,2.58 -2.237,4.403 0,1.204 0.373,2.201 1.085,2.992 m -32.938,-14.377 h 0.781 3.651 0.779 5.932 0.78 5.932 0.78 5.863 0.847 3.322 c 3.22,0 5.729,0.619 7.491,1.892 1.797,-1.273 4.305,-1.892 7.559,-1.892 h 2.813 7.186 5.331 c 3.762,0 5.66,2.064 5.66,6.225 v 8.646 h -3.796 v -7.338 c 0,-1.239 -0.102,-2.064 -0.271,-2.477 -0.373,-0.757 -1.153,-1.135 -2.407,-1.135 h -4.517 -7.186 -2.576 c -1.729,0 -2.779,0.137 -3.152,0.378 1.051,0.826 1.898,1.892 2.474,3.234 0.542,1.169 0.814,2.373 0.814,3.645 0,4.884 -4.068,7.533 -7.898,7.533 -3.423,0 -6.203,-2.03 -7.457,-5.297 -0.271,-0.688 -0.407,-1.479 -0.407,-2.373 0,-1.238 0.271,-2.442 0.78,-3.577 0.576,-1.273 1.423,-2.339 2.508,-3.165 -0.407,-0.241 -1.457,-0.378 -3.152,-0.378 h -3.119 -0.847 -5.863 -0.78 -5.932 -0.78 -5.932 -0.779 -3.651 -0.781 -0.475 -0.78 -0.14 -1.187 -1.05 c -1.424,0 -2.407,0.206 -2.915,0.585 -0.712,0.516 -1.085,1.616 -1.085,3.302 V 7.997 h -3.763 V -8.117 c 0,-1.892 0.441,-3.371 1.356,-4.472 0.983,-1.203 2.373,-1.788 4.203,-1.788 h 3.254 1.187 -2.826 -1.71 z"
         style="fill:#4a4a49; xx=icccc-color(sRGB-IEC61966-2, 0.1, 0.28999329, 0.28999329, 0.28599548);fill-opacity:1;fill-rule:nonzero;stroke:none"
         transform="matrix(1.3333333,0,0,-1.3333333,2241.4876,4789.6687)"
         clip-path="url(#clipPath2574)" />
      <path
         id="path2575"
         d="m 0,0 c -0.407,0.241 -0.61,0.688 -0.61,1.307 0,0.688 0.474,1.341 1.152,1.341 0.509,0 0.848,-0.24 0.949,-0.757 L 2.712,2.476 C 2.237,3.543 1.525,4.058 0.577,4.058 -0.881,4.058 -2.068,2.82 -2.068,1.204 -2.068,1.066 -1.966,0.654 -1.762,0 H -3.119 V -1.582 H 2.746 V 0 Z"
         style="fill:#4a4a49; xx=icccc-color(sRGB-IEC61966-2, 0.1, 0.28999329, 0.28999329, 0.28599548);fill-opacity:1;fill-rule:nonzero;stroke:none"
         transform="matrix(1.3333333,0,0,-1.3333333,2288.6967,4816.1299)"
         clip-path="url(#clipPath2576)" />
      <path
         id="path2577"
         d="m 1719.268,191.116 h -3.763 v -22.374 h 3.763 z"
         style="fill:#4a4a49; xx=icccc-color(sRGB-IEC61966-2, 0.1, 0.28999329, 0.28999329, 0.28599548);fill-opacity:1;fill-rule:nonzero;stroke:none"
         transform="matrix(1.3333333,0,0,-1.3333333,0,5033.8267)"
         clip-path="url(#clipPath2578)" />
      <path
         id="path2579"
         d="M 0,0 H 6.004 V 1.528 H 0 V 5.465 H 7.103 V 6.994 H -1.889 V -6.114 h 9.233 v 1.529 H 0 Z"
         style="fill:#4a4a49; xx=icccc-color(sRGB-IEC61966-2, 0.1, 0.28999329, 0.28999329, 0.28599548);fill-opacity:1;fill-rule:nonzero;stroke:none"
         transform="matrix(1.3333333,0,0,-1.3333333,2050.9752,4885.3876)"
         clip-path="url(#clipPath2580)" />
      <path
         id="path2581"
         d="m 0,0 c -0.26,-0.027 -0.511,-0.035 -0.742,-0.035 -0.704,0 -1.224,0.159 -1.552,0.471 -0.337,0.31 -0.501,0.808 -0.501,1.501 V 7.136 H 0.203 V 8.558 H -2.795 V 11.25 H -4.607 V 8.558 H -6.264 V 7.136 h 1.657 v -5.35 c 0,-0.506 0.068,-0.951 0.212,-1.341 0.135,-0.409 0.347,-0.756 0.646,-1.031 0.299,-0.294 0.694,-0.507 1.166,-0.658 0.472,-0.16 1.06,-0.24 1.764,-0.24 0.241,0 0.54,0.018 0.915,0.045 0.328,0.026 0.579,0.07 0.742,0.133 V 0.116 H 0.684 C 0.53,0.053 0.299,0.018 0,0"
         style="fill:#4a4a49; xx=icccc-color(sRGB-IEC61966-2, 0.1, 0.28999329, 0.28999329, 0.28599548);fill-opacity:1;fill-rule:nonzero;stroke:none"
         transform="matrix(1.3333333,0,0,-1.3333333,2072.1639,4891.7504)"
         clip-path="url(#clipPath2582)" />
      <path
         id="path2583"
         d="m 0,0 v -5.874 c -0.212,-0.071 -0.453,-0.124 -0.713,-0.169 -0.308,-0.044 -0.646,-0.071 -1.002,-0.071 -1.321,0 -2.294,0.311 -2.93,0.942 -0.646,0.613 -0.964,1.52 -0.964,2.701 0,1.28 0.318,2.249 0.944,2.898 0.627,0.639 1.62,0.959 2.969,0.959 0.318,0 0.636,-0.027 0.945,-0.071 C -0.414,1.253 -0.144,1.2 0.058,1.146 0.019,0.8 0,0.417 0,0 m 0.174,2.657 c -0.665,0.124 -1.311,0.187 -1.947,0.187 -1.841,0 -3.248,-0.463 -4.221,-1.378 -0.974,-0.933 -1.465,-2.239 -1.465,-3.937 0,-1.626 0.501,-2.87 1.494,-3.732 0.992,-0.862 2.39,-1.297 4.192,-1.297 0.299,0 0.607,0.026 0.935,0.071 0.366,0.053 0.645,0.107 0.838,0.151 v -4.221 h 1.812 v 11.241 c 0,0.178 0.01,0.454 0.019,0.835 0.01,0.294 0.029,0.561 0.058,0.818 0.02,0.267 0.048,0.48 0.087,0.649 L 1.937,2.186 C 1.465,2.355 0.877,2.515 0.174,2.657"
         style="fill:#4a4a49; xx=icccc-color(sRGB-IEC61966-2, 0.1, 0.28999329, 0.28999329, 0.28599548);fill-opacity:1;fill-rule:nonzero;stroke:none"
         transform="matrix(1.3333333,0,0,-1.3333333,2085.0131,4883.8353)"
         clip-path="url(#clipPath2584)" />
      <path
         id="path2585"
         d="M 0,0 C -0.867,0 -1.571,0.133 -2.111,0.4 -2.65,0.666 -2.92,1.129 -2.92,1.786 c 0,0.578 0.26,1.004 0.781,1.271 0.52,0.266 1.311,0.4 2.38,0.4 0.434,0 0.829,-0.027 1.176,-0.089 0.482,-0.08 0.8,-0.142 0.954,-0.178 V 1.493 C 2.371,1.324 2.38,1.111 2.39,0.853 2.4,0.649 2.419,0.462 2.448,0.293 1.696,0.098 0.877,0 0,0 M 4.202,0.915 C 4.193,1.306 4.183,1.591 4.183,1.759 V 4.843 C 4.183,5.678 4.058,6.372 3.816,6.922 3.576,7.465 3.248,7.873 2.834,8.167 2.419,8.46 1.918,8.664 1.349,8.771 0.761,8.868 0.154,8.922 -0.472,8.922 -1.002,8.922 -1.542,8.886 -2.091,8.806 -2.66,8.726 -3.2,8.593 -3.71,8.407 V 6.878 h 0.154 c 0.106,0.044 0.289,0.098 0.549,0.169 0.222,0.062 0.463,0.115 0.723,0.16 l 0.8,0.133 c 0.28,0.036 0.54,0.053 0.771,0.053 0.53,0 0.983,-0.026 1.349,-0.088 C 1.002,7.242 1.321,7.118 1.59,6.922 1.851,6.736 2.043,6.46 2.178,6.105 2.303,5.741 2.371,5.269 2.371,4.701 V 4.496 C 2.092,4.576 1.754,4.648 1.359,4.728 0.945,4.808 0.463,4.843 -0.077,4.843 -0.723,4.843 -1.339,4.781 -1.908,4.665 -2.458,4.541 -2.949,4.354 -3.363,4.106 -3.778,3.857 -4.105,3.537 -4.337,3.155 -4.578,2.773 -4.693,2.311 -4.693,1.786 c 0,-1.066 0.395,-1.866 1.176,-2.399 0.78,-0.542 1.927,-0.809 3.44,-0.809 0.318,0 0.646,0.018 1.002,0.063 0.405,0.035 0.791,0.079 1.147,0.142 0.453,0.071 0.839,0.151 1.166,0.231 0.386,0.088 0.743,0.186 1.061,0.293 l 0.048,0.151 C 4.299,-0.409 4.27,-0.196 4.25,0.08 4.222,0.409 4.212,0.693 4.202,0.915"
         style="fill:#4a4a49; xx=icccc-color(sRGB-IEC61966-2, 0.1, 0.28999329, 0.28999329, 0.28599548);fill-opacity:1;fill-rule:nonzero;stroke:none"
         transform="matrix(1.3333333,0,0,-1.3333333,2098.4787,4891.9399)"
         clip-path="url(#clipPath2586)" />
      <path
         id="path2587"
         d="M 0,0 C -0.868,0 -1.571,0.133 -2.111,0.4 -2.65,0.666 -2.92,1.129 -2.92,1.786 c 0,0.578 0.26,1.004 0.78,1.271 0.521,0.266 1.311,0.4 2.381,0.4 C 0.674,3.457 1.07,3.43 1.417,3.368 1.899,3.288 2.216,3.226 2.371,3.19 V 1.493 C 2.371,1.324 2.38,1.111 2.39,0.853 2.4,0.649 2.419,0.462 2.448,0.293 1.696,0.098 0.877,0 0,0 M 4.202,0.915 C 4.192,1.306 4.182,1.591 4.182,1.759 V 4.843 C 4.182,5.678 4.057,6.372 3.816,6.922 3.575,7.465 3.248,7.873 2.833,8.167 2.419,8.46 1.918,8.664 1.349,8.771 0.761,8.868 0.154,8.922 -0.472,8.922 -1.002,8.922 -1.542,8.886 -2.091,8.806 -2.66,8.726 -3.2,8.593 -3.711,8.407 V 6.878 h 0.155 c 0.105,0.044 0.289,0.098 0.549,0.169 0.222,0.062 0.463,0.115 0.723,0.16 l 0.8,0.133 c 0.279,0.036 0.539,0.053 0.771,0.053 0.53,0 0.983,-0.026 1.349,-0.088 C 1.002,7.242 1.32,7.118 1.59,6.922 1.851,6.736 2.043,6.46 2.178,6.105 2.303,5.741 2.371,5.269 2.371,4.701 V 4.496 C 2.091,4.576 1.754,4.648 1.359,4.728 0.944,4.808 0.463,4.843 -0.077,4.843 -0.723,4.843 -1.34,4.781 -1.908,4.665 -2.458,4.541 -2.949,4.354 -3.364,4.106 -3.778,3.857 -4.106,3.537 -4.337,3.155 -4.578,2.773 -4.693,2.311 -4.693,1.786 c 0,-1.066 0.395,-1.866 1.175,-2.399 0.781,-0.542 1.928,-0.809 3.441,-0.809 0.318,0 0.645,0.018 1.002,0.063 0.405,0.035 0.79,0.079 1.147,0.142 0.453,0.071 0.838,0.151 1.166,0.231 0.386,0.088 0.742,0.186 1.06,0.293 l 0.048,0.151 C 4.298,-0.409 4.269,-0.196 4.25,0.08 4.221,0.409 4.211,0.693 4.202,0.915"
         style="fill:#4a4a49; xx=icccc-color(sRGB-IEC61966-2, 0.1, 0.28999329, 0.28999329, 0.28599548);fill-opacity:1;fill-rule:nonzero;stroke:none"
         transform="matrix(1.3333333,0,0,-1.3333333,2114.6819,4891.9399)"
         clip-path="url(#clipPath2588)" />
      <path
         id="path2589"
         d="M 0,0 C -0.434,0.311 -0.935,0.542 -1.513,0.676 -2.101,0.8 -2.708,0.862 -3.354,0.862 -3.643,0.862 -3.961,0.844 -4.318,0.8 -4.655,0.755 -5.04,0.702 -5.494,0.622 -5.812,0.569 -6.207,0.489 -6.688,0.391 -7.045,0.311 -7.363,0.231 -7.652,0.133 l -0.039,-0.151 c 0.039,-0.169 0.068,-0.382 0.087,-0.639 0.029,-0.329 0.039,-0.605 0.048,-0.818 0.01,-0.391 0.019,-0.667 0.019,-0.835 v -6.95 h 1.822 v 7.207 c -0.01,0.436 -0.039,0.8 -0.067,1.093 0.414,0.089 0.79,0.16 1.108,0.205 0.366,0.062 0.732,0.089 1.089,0.089 0.472,0 0.906,-0.045 1.32,-0.125 0.385,-0.089 0.713,-0.249 0.993,-0.471 0.27,-0.222 0.481,-0.533 0.626,-0.915 0.145,-0.382 0.212,-0.88 0.212,-1.475 V -9.26 h 1.822 v 5.821 c 0,0.853 -0.126,1.555 -0.376,2.115 C 0.771,-0.773 0.434,-0.329 0,0"
         style="fill:#4a4a49; xx=icccc-color(sRGB-IEC61966-2, 0.1, 0.28999329, 0.28999329, 0.28599548);fill-opacity:1;fill-rule:nonzero;stroke:none"
         transform="matrix(1.3333333,0,0,-1.3333333,2135.5617,4881.1935)"
         clip-path="url(#clipPath2590)" />
      <path
         id="path2591"
         d="M 0,0 C -0.414,-0.205 -0.896,-0.302 -1.455,-0.302 H -4.067 V 5.82 h 3.161 C -0.077,5.82 0.588,5.616 1.098,5.198 1.609,4.781 1.86,4.141 1.86,3.27 1.86,2.808 1.792,2.363 1.658,1.946 1.513,1.502 1.301,1.12 1.031,0.809 0.751,0.471 0.405,0.204 0,0 m 2.245,-0.453 c 0.357,0.346 0.656,0.728 0.897,1.128 0.24,0.409 0.414,0.835 0.52,1.28 0.106,0.453 0.164,0.889 0.164,1.315 0,1.306 -0.424,2.319 -1.263,3.021 C 1.725,6.993 0.588,7.349 -0.829,7.349 H -5.956 V -5.759 h 1.889 v 3.928 h 2.525 c 0.164,0 0.279,0 0.356,0.009 l 0.338,0.027 3.334,-3.964 h 2.217 v 0.072 l -3.739,4.372 c 0.491,0.231 0.915,0.515 1.281,0.862"
         style="fill:#4a4a49; xx=icccc-color(sRGB-IEC61966-2, 0.1, 0.28999329, 0.28999329, 0.28599548);fill-opacity:1;fill-rule:nonzero;stroke:none"
         transform="matrix(1.3333333,0,0,-1.3333333,2157.028,4885.8615)"
         clip-path="url(#clipPath2592)" />
      <path
         id="path2593"
         d="m 0,0 h -5.946 c 0.086,0.978 0.414,1.724 0.982,2.23 0.569,0.507 1.273,0.756 2.121,0.756 0.954,0 1.657,-0.24 2.13,-0.729 C -0.241,1.768 0,1.066 0,0.151 Z M 0.828,2.924 C 0.453,3.377 -0.039,3.732 -0.636,3.99 -1.234,4.248 -1.966,4.372 -2.843,4.372 -3.585,4.372 -4.27,4.248 -4.886,4.008 -5.503,3.768 -6.023,3.421 -6.458,2.968 -6.901,2.506 -7.238,1.964 -7.46,1.351 -7.7,0.729 -7.816,0.027 -7.816,-0.764 c 0,-1.662 0.491,-2.924 1.484,-3.804 0.993,-0.879 2.545,-1.324 4.674,-1.324 0.55,0 1.08,0.045 1.59,0.134 0.492,0.08 0.887,0.168 1.166,0.266 v 1.458 H 0.944 C 0.674,-4.141 0.328,-4.23 -0.106,-4.31 -0.578,-4.399 -1.07,-4.443 -1.581,-4.443 c -1.33,0 -2.371,0.24 -3.113,0.72 -0.751,0.471 -1.166,1.253 -1.252,2.346 h 7.738 l 0.02,0.506 c 0.009,0.071 0.009,0.178 0.009,0.32 0,0.658 -0.067,1.262 -0.202,1.822 C 1.465,1.919 1.204,2.47 0.828,2.924"
         style="fill:#4a4a49; xx=icccc-color(sRGB-IEC61966-2, 0.1, 0.28999329, 0.28999329, 0.28599548);fill-opacity:1;fill-rule:nonzero;stroke:none"
         transform="matrix(1.3333333,0,0,-1.3333333,2175.8135,4885.8735)"
         clip-path="url(#clipPath2594)" />
      <path
         id="path2595"
         d="m 0,0 c -0.867,0 -1.571,0.133 -2.11,0.4 -0.54,0.266 -0.81,0.729 -0.81,1.386 0,0.578 0.26,1.004 0.781,1.271 0.52,0.266 1.311,0.4 2.38,0.4 0.434,0 0.829,-0.027 1.176,-0.089 0.482,-0.08 0.8,-0.142 0.954,-0.178 V 1.493 C 2.371,1.324 2.38,1.111 2.39,0.853 2.4,0.649 2.419,0.462 2.448,0.293 1.696,0.098 0.877,0 0,0 M 4.202,0.915 C 4.193,1.306 4.183,1.591 4.183,1.759 V 4.843 C 4.183,5.678 4.058,6.372 3.816,6.922 3.576,7.465 3.248,7.873 2.834,8.167 2.419,8.46 1.918,8.664 1.349,8.771 0.761,8.868 0.154,8.922 -0.472,8.922 -1.002,8.922 -1.542,8.886 -2.091,8.806 -2.66,8.726 -3.2,8.593 -3.71,8.407 V 6.878 h 0.154 c 0.106,0.044 0.289,0.098 0.549,0.169 0.222,0.062 0.463,0.115 0.723,0.16 l 0.8,0.133 c 0.28,0.036 0.54,0.053 0.771,0.053 0.53,0 0.983,-0.026 1.349,-0.088 C 1.002,7.242 1.32,7.118 1.59,6.922 1.85,6.736 2.043,6.46 2.178,6.105 2.303,5.741 2.371,5.269 2.371,4.701 V 4.496 C 2.091,4.576 1.754,4.648 1.359,4.728 0.945,4.808 0.463,4.843 -0.077,4.843 -0.723,4.843 -1.339,4.781 -1.908,4.665 -2.458,4.541 -2.949,4.354 -3.363,4.106 -3.778,3.857 -4.105,3.537 -4.337,3.155 -4.577,2.773 -4.694,2.311 -4.694,1.786 c 0,-1.066 0.396,-1.866 1.177,-2.399 0.78,-0.542 1.927,-0.809 3.44,-0.809 0.318,0 0.646,0.018 1.002,0.063 0.405,0.035 0.791,0.079 1.147,0.142 0.453,0.071 0.839,0.151 1.166,0.231 0.386,0.088 0.742,0.186 1.06,0.293 l 0.049,0.151 C 4.298,-0.409 4.27,-0.196 4.25,0.08 4.221,0.409 4.212,0.693 4.202,0.915"
         style="fill:#4a4a49; xx=icccc-color(sRGB-IEC61966-2, 0.1, 0.28999329, 0.28999329, 0.28599548);fill-opacity:1;fill-rule:nonzero;stroke:none"
         transform="matrix(1.3333333,0,0,-1.3333333,2187.6469,4891.9399)"
         clip-path="url(#clipPath2596)" />
      <path
         id="path2597"
         d="m 0,0 c 0.038,-0.169 0.067,-0.382 0.087,-0.649 0.028,-0.329 0.039,-0.604 0.048,-0.817 0.01,-0.382 0.019,-0.658 0.019,-0.836 V -13.685 H 1.976 V 0.142 H 0.038 Z"
         style="fill:#4a4a49; xx=icccc-color(sRGB-IEC61966-2, 0.1, 0.28999329, 0.28999329, 0.28599548);fill-opacity:1;fill-rule:nonzero;stroke:none"
         transform="matrix(1.3333333,0,0,-1.3333333,2198.2729,4875.2927)"
         clip-path="url(#clipPath2598)" />
      <path
         id="path2599"
         d="M 0,0 H 6.004 V 1.528 H 0 V 5.465 H 7.103 V 6.994 H -1.889 V -6.114 h 9.233 v 1.529 H 0 Z"
         style="fill:#4a4a49; xx=icccc-color(sRGB-IEC61966-2, 0.1, 0.28999329, 0.28999329, 0.28599548);fill-opacity:1;fill-rule:nonzero;stroke:none"
         transform="matrix(1.3333333,0,0,-1.3333333,2215.3029,4885.3876)"
         clip-path="url(#clipPath2600)" />
      <path
         id="path2601"
         d="m 0,0 c -0.289,0.196 -0.646,0.356 -1.06,0.489 -0.415,0.124 -0.839,0.222 -1.282,0.293 l -0.954,0.142 c -0.685,0.098 -1.205,0.231 -1.562,0.391 -0.375,0.169 -0.568,0.489 -0.568,0.942 0,0.56 0.26,0.951 0.78,1.191 0.511,0.24 1.225,0.355 2.14,0.355 0.521,0 0.973,-0.035 1.368,-0.106 0.415,-0.08 0.83,-0.187 1.244,-0.329 H 0.26 v 1.528 c -0.376,0.116 -0.8,0.196 -1.272,0.258 -0.53,0.062 -0.993,0.098 -1.407,0.098 -0.877,0 -1.619,-0.08 -2.217,-0.249 C -5.224,4.843 -5.705,4.621 -6.101,4.327 -6.476,4.052 -6.747,3.732 -6.91,3.359 -7.074,2.977 -7.161,2.595 -7.161,2.195 c 0,-0.826 0.27,-1.44 0.81,-1.822 0.549,-0.391 1.378,-0.666 2.486,-0.835 l 0.945,-0.142 c 0.684,-0.098 1.214,-0.24 1.59,-0.409 0.376,-0.187 0.569,-0.498 0.569,-0.915 0,-0.391 -0.116,-0.693 -0.347,-0.898 -0.232,-0.204 -0.511,-0.355 -0.829,-0.453 -0.299,-0.098 -0.636,-0.151 -0.993,-0.169 -0.308,-0.026 -0.588,-0.035 -0.838,-0.035 -0.511,0 -1.041,0.053 -1.591,0.16 -0.549,0.097 -1.099,0.239 -1.648,0.426 h -0.154 v -1.599 c 0.491,-0.143 1.05,-0.249 1.687,-0.329 0.607,-0.071 1.204,-0.107 1.792,-0.107 1.658,0 2.853,0.267 3.576,0.791 0.723,0.524 1.079,1.28 1.079,2.266 0,0.436 -0.087,0.8 -0.26,1.111 C 0.52,-0.453 0.279,-0.196 0,0"
         style="fill:#4a4a49; xx=icccc-color(sRGB-IEC61966-2, 0.1, 0.28999329, 0.28999329, 0.28599548);fill-opacity:1;fill-rule:nonzero;stroke:none"
         transform="matrix(1.3333333,0,0,-1.3333333,2238.4191,4887.1531)"
         clip-path="url(#clipPath2602)" />
      <path
         id="path2603"
         d="m 0,0 c -0.26,-0.027 -0.511,-0.035 -0.742,-0.035 -0.703,0 -1.224,0.159 -1.552,0.471 -0.337,0.31 -0.501,0.808 -0.501,1.501 V 7.136 H 0.202 V 8.558 H -2.795 V 11.25 H -4.607 V 8.558 H -6.265 V 7.136 h 1.658 v -5.35 c 0,-0.506 0.067,-0.951 0.212,-1.341 0.135,-0.409 0.347,-0.756 0.646,-1.031 0.299,-0.294 0.694,-0.507 1.166,-0.658 0.472,-0.16 1.061,-0.24 1.764,-0.24 0.241,0 0.539,0.018 0.916,0.045 0.327,0.026 0.577,0.07 0.742,0.133 V 0.116 H 0.684 C 0.53,0.053 0.299,0.018 0,0"
         style="fill:#4a4a49; xx=icccc-color(sRGB-IEC61966-2, 0.1, 0.28999329, 0.28999329, 0.28599548);fill-opacity:1;fill-rule:nonzero;stroke:none"
         transform="matrix(1.3333333,0,0,-1.3333333,2250.1631,4891.7504)"
         clip-path="url(#clipPath2604)" />
      <path
         id="path2605"
         d="M 0,0 C -0.868,0 -1.571,0.133 -2.111,0.4 -2.65,0.666 -2.92,1.129 -2.92,1.786 c 0,0.578 0.26,1.004 0.78,1.271 0.521,0.266 1.311,0.4 2.381,0.4 0.433,0 0.829,-0.027 1.175,-0.089 0.483,-0.08 0.8,-0.142 0.955,-0.178 V 1.493 C 2.371,1.324 2.38,1.111 2.39,0.853 2.4,0.649 2.419,0.462 2.448,0.293 1.696,0.098 0.877,0 0,0 M 4.202,0.915 C 4.192,1.306 4.182,1.591 4.182,1.759 V 4.843 C 4.182,5.678 4.057,6.372 3.816,6.922 3.575,7.465 3.248,7.873 2.833,8.167 2.419,8.46 1.918,8.664 1.349,8.771 0.761,8.868 0.154,8.922 -0.472,8.922 -1.002,8.922 -1.542,8.886 -2.091,8.806 -2.66,8.726 -3.2,8.593 -3.71,8.407 V 6.878 h 0.154 c 0.105,0.044 0.289,0.098 0.549,0.169 0.222,0.062 0.463,0.115 0.723,0.16 l 0.8,0.133 c 0.279,0.036 0.539,0.053 0.771,0.053 0.53,0 0.983,-0.026 1.349,-0.088 C 1.002,7.242 1.32,7.118 1.59,6.922 1.851,6.736 2.043,6.46 2.178,6.105 2.303,5.741 2.371,5.269 2.371,4.701 V 4.496 C 2.091,4.576 1.754,4.648 1.359,4.728 0.944,4.808 0.463,4.843 -0.077,4.843 -0.723,4.843 -1.34,4.781 -1.908,4.665 -2.458,4.541 -2.949,4.354 -3.364,4.106 -3.778,3.857 -4.106,3.537 -4.337,3.155 -4.578,2.773 -4.693,2.311 -4.693,1.786 c 0,-1.066 0.395,-1.866 1.175,-2.399 0.781,-0.542 1.928,-0.809 3.441,-0.809 0.318,0 0.645,0.018 1.002,0.063 0.405,0.035 0.79,0.079 1.147,0.142 0.453,0.071 0.838,0.151 1.166,0.231 0.386,0.088 0.742,0.186 1.06,0.293 l 0.048,0.151 C 4.298,-0.409 4.269,-0.196 4.25,0.08 4.221,0.409 4.211,0.693 4.202,0.915"
         style="fill:#4a4a49; xx=icccc-color(sRGB-IEC61966-2, 0.1, 0.28999329, 0.28999329, 0.28599548);fill-opacity:1;fill-rule:nonzero;stroke:none"
         transform="matrix(1.3333333,0,0,-1.3333333,2259.7996,4891.9399)"
         clip-path="url(#clipPath2606)" />
      <path
         id="path2607"
         d="m 0,0 c -0.26,-0.027 -0.511,-0.035 -0.742,-0.035 -0.703,0 -1.224,0.159 -1.552,0.471 -0.337,0.31 -0.501,0.808 -0.501,1.501 V 7.136 H 0.202 V 8.558 H -2.795 V 11.25 H -4.607 V 8.558 H -6.265 V 7.136 h 1.658 v -5.35 c 0,-0.506 0.067,-0.951 0.212,-1.341 0.135,-0.409 0.347,-0.756 0.646,-1.031 0.299,-0.294 0.694,-0.507 1.166,-0.658 0.472,-0.16 1.061,-0.24 1.764,-0.24 0.241,0 0.539,0.018 0.916,0.045 0.327,0.026 0.577,0.07 0.742,0.133 V 0.116 H 0.684 C 0.53,0.053 0.299,0.018 0,0"
         style="fill:#4a4a49; xx=icccc-color(sRGB-IEC61966-2, 0.1, 0.28999329, 0.28999329, 0.28599548);fill-opacity:1;fill-rule:nonzero;stroke:none"
         transform="matrix(1.3333333,0,0,-1.3333333,2277.0944,4891.7504)"
         clip-path="url(#clipPath2608)" />
      <path
         id="path2609"
         d="m 0,0 h -5.946 c 0.086,0.978 0.414,1.724 0.983,2.23 0.568,0.507 1.272,0.756 2.12,0.756 0.955,0 1.658,-0.24 2.13,-0.729 C -0.241,1.768 0,1.066 0,0.151 Z M 1.619,1.271 C 1.465,1.919 1.205,2.47 0.829,2.924 0.453,3.377 -0.038,3.732 -0.636,3.99 -1.234,4.248 -1.965,4.372 -2.843,4.372 -3.585,4.372 -4.269,4.248 -4.886,4.008 -5.503,3.768 -6.023,3.421 -6.457,2.968 -6.9,2.506 -7.237,1.964 -7.459,1.351 -7.7,0.729 -7.816,0.027 -7.816,-0.764 c 0,-1.662 0.492,-2.924 1.484,-3.804 0.993,-0.879 2.545,-1.324 4.675,-1.324 0.549,0 1.079,0.045 1.59,0.134 0.492,0.08 0.887,0.168 1.166,0.266 v 1.458 H 0.945 C 0.675,-4.141 0.328,-4.23 -0.106,-4.31 -0.578,-4.399 -1.069,-4.443 -1.58,-4.443 c -1.33,0 -2.371,0.24 -3.113,0.72 -0.752,0.471 -1.167,1.253 -1.253,2.346 h 7.739 l 0.019,0.506 c 0.01,0.071 0.01,0.178 0.01,0.32 0,0.658 -0.068,1.262 -0.203,1.822"
         style="fill:#4a4a49; xx=icccc-color(sRGB-IEC61966-2, 0.1, 0.28999329, 0.28999329, 0.28599548);fill-opacity:1;fill-rule:nonzero;stroke:none"
         transform="matrix(1.3333333,0,0,-1.3333333,2290.4189,4885.8735)"
         clip-path="url(#clipPath2610)" />
      <path
         id="path2611"
         d="m 1633.156,122.41 h 3.728 v 3.852 h -3.728 z"
         style="fill:#4a4a49; xx=icccc-color(sRGB-IEC61966-2, 0.1, 0.28999329, 0.28999329, 0.28599548);fill-opacity:1;fill-rule:nonzero;stroke:none"
         transform="matrix(1.3333333,0,0,-1.3333333,0,5033.8267)"
         clip-path="url(#clipPath2612)" />
      <path
         id="path2613"
         d="m 1627.634,122.41 h 3.728 v 3.852 h -3.728 z"
         style="fill:#4a4a49; xx=icccc-color(sRGB-IEC61966-2, 0.1, 0.28999329, 0.28999329, 0.28599548);fill-opacity:1;fill-rule:nonzero;stroke:none"
         transform="matrix(1.3333333,0,0,-1.3333333,0,5033.8267)"
         clip-path="url(#clipPath2614)" />
      <path
         id="path2615"
         d="m 1622.631,151.449 h 3.728 v 3.852 h -3.728 z"
         style="fill:#4a4a49; xx=icccc-color(sRGB-IEC61966-2, 0.1, 0.28999329, 0.28999329, 0.28599548);fill-opacity:1;fill-rule:nonzero;stroke:none"
         transform="matrix(1.3333333,0,0,-1.3333333,0,5033.8267)"
         clip-path="url(#clipPath2616)" />
      <path
         id="path2617"
         d="m 1617.109,151.449 h 3.728 v 3.852 h -3.728 z"
         style="fill:#4a4a49; xx=icccc-color(sRGB-IEC61966-2, 0.1, 0.28999329, 0.28999329, 0.28599548);fill-opacity:1;fill-rule:nonzero;stroke:none"
         transform="matrix(1.3333333,0,0,-1.3333333,0,5033.8267)"
         clip-path="url(#clipPath2618)" />
      <path
         id="path2619"
         d="m 1709.117,191.803 h 3.728 v 3.852 h -3.728 z"
         style="fill:#4a4a49; xx=icccc-color(sRGB-IEC61966-2, 0.1, 0.28999329, 0.28999329, 0.28599548);fill-opacity:1;fill-rule:nonzero;stroke:none"
         transform="matrix(1.3333333,0,0,-1.3333333,0,5033.8267)"
         clip-path="url(#clipPath2620)" />
      <path
         id="path2621"
         d="m 1703.596,191.803 h 3.728 v 3.852 h -3.728 z"
         style="fill:#4a4a49; xx=icccc-color(sRGB-IEC61966-2, 0.1, 0.28999329, 0.28999329, 0.28599548);fill-opacity:1;fill-rule:nonzero;stroke:none"
         transform="matrix(1.3333333,0,0,-1.3333333,0,5033.8267)"
         clip-path="url(#clipPath2622)" />
      <path
         id="path2623"
         d="m 0,0 c 0,-2.924 -1.491,-5.262 -3.966,-5.262 -2.271,0 -3.728,2.269 -3.728,4.918 0,3.199 1.627,5.331 4.27,5.331 H 0 Z m 14.575,-3.439 c 0,-1.239 -0.102,-2.064 -0.271,-2.477 -0.373,-0.756 -1.153,-1.135 -2.407,-1.135 H 9.219 8.473 7.728 c -2.542,0 -3.796,1.445 -3.796,4.127 V 7.98 H -4.44 c -4.339,0 -7.017,-3.199 -7.017,-8.358 0,-4.781 2.678,-8.083 7.017,-8.083 1.694,0 3.152,0.86 4.339,2.579 0.779,-3.061 3.186,-5.09 6.135,-5.09 h 2.439 0.746 3.491 c 3.763,0 5.661,2.064 5.661,6.225 v 8.675 h -3.796 z"
         style="fill:#4a4a49; xx=icccc-color(sRGB-IEC61966-2, 0.1, 0.28999329, 0.28999329, 0.28599548);fill-opacity:1;fill-rule:nonzero;stroke:none"
         transform="matrix(1.3333333,0,0,-1.3333333,2164.4353,4848.4097)"
         clip-path="url(#clipPath2624)" />
      <path
         id="path2625"
         d="m 0,0 c 0,-3.302 -1.559,-4.884 -4.712,-4.884 v -3.302 c 5.83,0 8.508,2.579 8.508,8.771 V 12.424 H 0 Z"
         style="fill:#4a4a49; xx=icccc-color(sRGB-IEC61966-2, 0.1, 0.28999329, 0.28999329, 0.28599548);fill-opacity:1;fill-rule:nonzero;stroke:none"
         transform="matrix(1.3333333,0,0,-1.3333333,2193.3653,4859.7373)"
         clip-path="url(#clipPath2626)" />
      <path
         id="path2627"
         d="m 0,0 c -1.695,1.995 -3.626,3.371 -5.762,4.127 1.729,0.929 3.491,1.411 5.22,1.411 1.729,0 3.39,-0.447 4.915,-1.376 C 3.898,3.44 3.254,2.683 2.475,1.892 1.593,1.032 0.78,0.379 0,0 m -20.274,-0.241 c -0.577,-0.447 -1.288,-0.86 -2.068,-1.272 -0.78,0.378 -1.491,0.825 -2.102,1.272 -1.491,1.101 -2.237,2.58 -2.237,4.403 0,1.204 0.373,2.201 1.085,2.992 0.78,0.86 1.864,1.307 3.254,1.307 1.389,0 2.474,-0.447 3.254,-1.307 0.712,-0.791 1.051,-1.788 1.051,-2.992 0,-1.858 -0.746,-3.336 -2.237,-4.403 M 15.36,0.31 c 0,-1.239 -0.102,-2.064 -0.271,-2.477 -0.374,-0.757 -1.153,-1.135 -2.407,-1.135 h -2.357 0.289 -5.055 c -0.813,0 -1.322,0.034 -1.492,0.069 -0.44,0.103 -0.881,0.378 -1.355,0.86 1.22,0.86 2.508,2.132 3.898,3.852 1.288,1.617 2.102,2.889 2.406,3.818 -2.711,2.373 -5.932,3.577 -9.66,3.577 -3.152,0 -6.237,-0.929 -9.186,-2.82 V 2.408 c 1.254,-0.31 2.61,-0.929 4,-1.858 1.39,-0.894 2.373,-1.754 2.881,-2.545 -0.813,-0.55 -1.627,-0.894 -2.44,-1.066 -0.644,-0.172 -1.525,-0.241 -2.644,-0.241 h -3.938 -0.304 -2.305 c -1.729,0 -2.779,0.138 -3.152,0.378 1.051,0.826 1.898,1.892 2.474,3.234 0.543,1.169 0.814,2.373 0.814,3.645 0,4.885 -4.068,7.533 -7.898,7.533 -3.424,0 -6.203,-2.029 -7.457,-5.297 -0.271,-0.688 -0.407,-1.479 -0.407,-2.373 0,-1.238 0.271,-2.442 0.78,-3.577 0.576,-1.273 1.423,-2.339 2.508,-3.165 -0.407,-0.24 -1.457,-0.378 -3.152,-0.378 h -2.712 -0.785 -0.983 c -1.424,0 -1.491,0.207 -1.999,0.585 -0.712,0.516 -1.085,1.616 -1.085,3.302 v 14.566 h -3.762 V -0.963 c 0,-1.892 0.44,-3.371 1.356,-4.471 0.983,-1.204 2.372,-1.789 4.203,-1.789 h 2.27 0.785 2.915 c 3.22,0 5.729,0.619 7.491,1.892 1.797,-1.273 4.305,-1.892 7.559,-1.892 h 2.542 0.304 4.006 c 2.542,0 5.016,0.826 7.491,2.476 0.576,-0.653 1.288,-1.204 2.169,-1.65 1.051,-0.551 2.068,-0.826 3.017,-0.826 h 5.902 -0.289 3.136 c 3.797,0 5.695,2.064 5.695,6.225 V 15.157 H 15.36 Z"
         style="fill:#4a4a49; xx=icccc-color(sRGB-IEC61966-2, 0.1, 0.28999329, 0.28999329, 0.28599548);fill-opacity:1;fill-rule:nonzero;stroke:none"
         transform="matrix(1.3333333,0,0,-1.3333333,2258.2767,4853.4085)"
         clip-path="url(#clipPath2628)" />
      <path
         id="path2629"
         d="m 1715.53,128.091 h 3.763 v 22.414 h -3.763 z"
         style="fill:#4a4a49; xx=icccc-color(sRGB-IEC61966-2, 0.1, 0.28999329, 0.28999329, 0.28599548);fill-opacity:1;fill-rule:nonzero;stroke:none"
         transform="matrix(1.3333333,0,0,-1.3333333,0,5033.8267)"
         clip-path="url(#clipPath2630)" />
      <path
         id="path2631"
         d="m 0,0 v -0.022 c -18.914,-0.484 -34.105,-15.961 -34.105,-34.991 0,-10.119 4.292,-19.234 11.154,-25.628 2.317,3.774 5.689,6.834 9.711,8.753 -4.81,4.04 -7.87,10.1 -7.87,16.875 0,11.857 9.37,21.587 21.11,22.065 L 22.861,-12.98 V -29.599 H 0.909 c -2.991,0 -5.414,-2.423 -5.414,-5.414 0,-2.996 2.423,-5.419 5.414,-5.419 H 35.937 L 35.928,0 Z"
         style="fill:#007197; xx=icccc-color(sRGB-IEC61966-2, 0.1, 0, 0.44398499, 0.59399414);fill-opacity:1;fill-rule:nonzero;stroke:none"
         transform="matrix(1.3333333,0,0,-1.3333333,2093.9301,4769.3844)"
         clip-path="url(#clipPath2632)" />
      <path
         id="path2633"
         d="M 0,0 C 5.833,-4.347 13.067,-6.919 20.901,-6.919 H 55.93 V 6.128 H 15.319 C 5.85,6.128 0,0 0,0"
         style="fill:#007197; xx=icccc-color(sRGB-IEC61966-2, 0.1, 0, 0.44398499, 0.59399414);fill-opacity:1;fill-rule:nonzero;stroke:none"
         transform="matrix(1.3333333,0,0,-1.3333333,2067.2611,4853.5325)"
         clip-path="url(#clipPath2634)" />
      <path
         id="path2635"
         d="m 1624.547,195.654 h -3.729 v -3.818 h 3.729 z"
         style="fill:#4a4a49; xx=icccc-color(sRGB-IEC61966-2, 0.1, 0.28999329, 0.28999329, 0.28599548);fill-opacity:1;fill-rule:nonzero;stroke:none"
         transform="matrix(1.3333333,0,0,-1.3333333,0,5033.8267)"
         clip-path="url(#clipPath2636)" />
      <path
         id="path2637"
         d="m 1672.261,151.449 h 3.728 v 3.852 h -3.728 z"
         style="fill:#4a4a49; xx=icccc-color(sRGB-IEC61966-2, 0.1, 0.28999329, 0.28999329, 0.28599548);fill-opacity:1;fill-rule:nonzero;stroke:none"
         transform="matrix(1.3333333,0,0,-1.3333333,0,5033.8267)"
         clip-path="url(#clipPath2638)" />
      <path
         id="path2639"
         d="m 1666.74,151.449 h 3.728 v 3.852 h -3.728 z"
         style="fill:#4a4a49; xx=icccc-color(sRGB-IEC61966-2, 0.1, 0.28999329, 0.28999329, 0.28599548);fill-opacity:1;fill-rule:nonzero;stroke:none"
         transform="matrix(1.3333333,0,0,-1.3333333,0,5033.8267)"
         clip-path="url(#clipPath2640)" />
      <path
         id="path2641"
         d="m 1685.249,191.803 h 3.728 v 3.852 h -3.728 z"
         style="fill:#4a4a49; xx=icccc-color(sRGB-IEC61966-2, 0.1, 0.28999329, 0.28999329, 0.28599548);fill-opacity:1;fill-rule:nonzero;stroke:none"
         transform="matrix(1.3333333,0,0,-1.3333333,0,5033.8267)"
         clip-path="url(#clipPath2642)" />
      <path
         id="path2643"
         d="m 1679.728,191.803 h 3.728 v 3.852 h -3.728 z"
         style="fill:#4a4a49; xx=icccc-color(sRGB-IEC61966-2, 0.1, 0.28999329, 0.28999329, 0.28599548);fill-opacity:1;fill-rule:nonzero;stroke:none"
         transform="matrix(1.3333333,0,0,-1.3333333,0,5033.8267)"
         clip-path="url(#clipPath2644)" />
    </g>
  </g>
</svg>
