<?xml version="1.0" encoding="UTF-8" standalone="no"?>
<!-- Created with Inkscape (http://www.inkscape.org/) -->

<svg
   width="57.817772mm"
   height="34.603458mm"
   viewBox="0 0 57.817772 34.603458"
   version="1.1"
   id="svg1"
   inkscape:version="1.3.2 (091e20e, 2023-11-25, custom)"
   sodipodi:docname="partner2-hraj.svg"
   xmlns:inkscape="http://www.inkscape.org/namespaces/inkscape"
   xmlns:sodipodi="http://sodipodi.sourceforge.net/DTD/sodipodi-0.dtd"
   xmlns="http://www.w3.org/2000/svg"
   xmlns:svg="http://www.w3.org/2000/svg">
  <sodipodi:namedview
     id="namedview1"
     pagecolor="#474747"
     bordercolor="#999999"
     borderopacity="1"
     inkscape:showpageshadow="2"
     inkscape:pageopacity="0"
     inkscape:pagecheckerboard="0"
     inkscape:deskcolor="#d1d1d1"
     inkscape:document-units="mm"
     inkscape:zoom="0.74920735"
     inkscape:cx="-401.09057"
     inkscape:cy="186.19678"
     inkscape:window-width="1920"
     inkscape:window-height="1017"
     inkscape:window-x="-8"
     inkscape:window-y="-8"
     inkscape:window-maximized="1"
     inkscape:current-layer="layer1" />
  <defs
     id="defs1">
    <clipPath
       clipPathUnits="userSpaceOnUse"
       id="clipPath2891">
      <path
         d="M 258.197,395.571 H 553.204 V 690.578 H 258.197 Z"
         transform="translate(-333.90591,-515.32401)"
         id="path2891" />
    </clipPath>
    <clipPath
       clipPathUnits="userSpaceOnUse"
       id="clipPath2893">
      <path
         d="M 258.197,395.571 H 553.204 V 690.578 H 258.197 Z"
         transform="translate(0,2.5e-5)"
         id="path2893" />
    </clipPath>
    <clipPath
       clipPathUnits="userSpaceOnUse"
       id="clipPath2895">
      <path
         d="M 258.197,395.571 H 553.204 V 690.578 H 258.197 Z"
         transform="translate(0,2.5e-5)"
         id="path2895" />
    </clipPath>
    <clipPath
       clipPathUnits="userSpaceOnUse"
       id="clipPath2897">
      <path
         d="M 258.197,395.571 H 553.204 V 690.578 H 258.197 Z"
         transform="translate(0,2.5e-5)"
         id="path2897" />
    </clipPath>
    <clipPath
       clipPathUnits="userSpaceOnUse"
       id="clipPath2899">
      <path
         d="M 258.197,395.571 H 553.204 V 690.578 H 258.197 Z"
         transform="translate(-340.78811,-513.28799)"
         id="path2899" />
    </clipPath>
    <clipPath
       clipPathUnits="userSpaceOnUse"
       id="clipPath2901">
      <path
         d="M 258.197,395.571 H 553.204 V 690.578 H 258.197 Z"
         transform="translate(0,2.5e-5)"
         id="path2901" />
    </clipPath>
    <clipPath
       clipPathUnits="userSpaceOnUse"
       id="clipPath2903">
      <path
         d="M 258.197,395.571 H 553.204 V 690.578 H 258.197 Z"
         transform="translate(0,2.5e-5)"
         id="path2903" />
    </clipPath>
    <clipPath
       clipPathUnits="userSpaceOnUse"
       id="clipPath2905">
      <path
         d="M 258.197,395.571 H 553.204 V 690.578 H 258.197 Z"
         transform="translate(-360.21271,-514.99101)"
         id="path2905" />
    </clipPath>
    <clipPath
       clipPathUnits="userSpaceOnUse"
       id="clipPath2907">
      <path
         d="M 258.197,395.571 H 553.204 V 690.578 H 258.197 Z"
         transform="translate(0,2.5e-5)"
         id="path2907" />
    </clipPath>
    <clipPath
       clipPathUnits="userSpaceOnUse"
       id="clipPath2909">
      <path
         d="M 258.197,395.571 H 553.204 V 690.578 H 258.197 Z"
         transform="translate(0,2.5e-5)"
         id="path2909" />
    </clipPath>
    <clipPath
       clipPathUnits="userSpaceOnUse"
       id="clipPath2911">
      <path
         d="M 258.197,395.571 H 553.204 V 690.578 H 258.197 Z"
         transform="translate(-386.06121,-512.39954)"
         id="path2911" />
    </clipPath>
    <clipPath
       clipPathUnits="userSpaceOnUse"
       id="clipPath2913">
      <path
         d="M 258.197,395.571 H 553.204 V 690.578 H 258.197 Z"
         transform="translate(0,2.5e-5)"
         id="path2913" />
    </clipPath>
    <clipPath
       clipPathUnits="userSpaceOnUse"
       id="clipPath2915">
      <path
         d="M 258.197,395.571 H 553.204 V 690.578 H 258.197 Z"
         transform="translate(-410.17911,-515.10209)"
         id="path2915" />
    </clipPath>
    <clipPath
       clipPathUnits="userSpaceOnUse"
       id="clipPath2917">
      <path
         d="M 258.197,395.571 H 553.204 V 690.578 H 258.197 Z"
         transform="translate(0,2.5e-5)"
         id="path2917" />
    </clipPath>
    <clipPath
       clipPathUnits="userSpaceOnUse"
       id="clipPath2919">
      <path
         d="M 258.197,395.571 H 553.204 V 690.578 H 258.197 Z"
         transform="translate(-424.37081,-516.16334)"
         id="path2919" />
    </clipPath>
    <clipPath
       clipPathUnits="userSpaceOnUse"
       id="clipPath2921">
      <path
         d="M 258.197,395.571 H 553.204 V 690.578 H 258.197 Z"
         transform="translate(0,2.5e-5)"
         id="path2921" />
    </clipPath>
    <clipPath
       clipPathUnits="userSpaceOnUse"
       id="clipPath2923">
      <path
         d="M 258.197,395.571 H 553.204 V 690.578 H 258.197 Z"
         transform="translate(0,2.5e-5)"
         id="path2923" />
    </clipPath>
    <clipPath
       clipPathUnits="userSpaceOnUse"
       id="clipPath2925">
      <path
         d="M 258.197,395.571 H 553.204 V 690.578 H 258.197 Z"
         transform="translate(-443.25821,-512.39954)"
         id="path2925" />
    </clipPath>
    <clipPath
       clipPathUnits="userSpaceOnUse"
       id="clipPath2927">
      <path
         d="M 258.197,395.571 H 553.204 V 690.578 H 258.197 Z"
         transform="translate(0,2.5e-5)"
         id="path2927" />
    </clipPath>
    <clipPath
       clipPathUnits="userSpaceOnUse"
       id="clipPath2929">
      <path
         d="M 258.197,395.571 H 553.204 V 690.578 H 258.197 Z"
         transform="translate(0,2.5e-5)"
         id="path2929" />
    </clipPath>
    <clipPath
       clipPathUnits="userSpaceOnUse"
       id="clipPath2931">
      <path
         d="M 258.197,395.571 H 553.204 V 690.578 H 258.197 Z"
         transform="translate(0,2.5e-5)"
         id="path2931" />
    </clipPath>
    <clipPath
       clipPathUnits="userSpaceOnUse"
       id="clipPath2933">
      <path
         d="M 258.197,395.571 H 553.204 V 690.578 H 258.197 Z"
         transform="translate(-456.18041,-518.12534)"
         id="path2933" />
    </clipPath>
    <clipPath
       clipPathUnits="userSpaceOnUse"
       id="clipPath2935">
      <path
         d="M 258.197,395.571 H 553.204 V 690.578 H 258.197 Z"
         transform="translate(0,2.5e-5)"
         id="path2935" />
    </clipPath>
    <clipPath
       clipPathUnits="userSpaceOnUse"
       id="clipPath2937">
      <path
         d="M 258.197,395.571 H 553.204 V 690.578 H 258.197 Z"
         transform="translate(0,2.5e-5)"
         id="path2937" />
    </clipPath>
    <clipPath
       clipPathUnits="userSpaceOnUse"
       id="clipPath2939">
      <path
         d="M 258.197,395.571 H 553.204 V 690.578 H 258.197 Z"
         transform="translate(0,2.5e-5)"
         id="path2939" />
    </clipPath>
    <clipPath
       clipPathUnits="userSpaceOnUse"
       id="clipPath2941">
      <path
         d="M 258.197,395.571 H 553.204 V 690.578 H 258.197 Z"
         transform="translate(-475.83511,-512.39954)"
         id="path2941" />
    </clipPath>
    <clipPath
       clipPathUnits="userSpaceOnUse"
       id="clipPath2943">
      <path
         d="M 258.197,395.571 H 553.204 V 690.578 H 258.197 Z"
         transform="translate(-326.78781,-500.05679)"
         id="path2943" />
    </clipPath>
    <clipPath
       clipPathUnits="userSpaceOnUse"
       id="clipPath2945">
      <path
         d="M 258.197,395.571 H 553.204 V 690.578 H 258.197 Z"
         transform="translate(0,2.5e-5)"
         id="path2945" />
    </clipPath>
    <clipPath
       clipPathUnits="userSpaceOnUse"
       id="clipPath2947">
      <path
         d="M 258.197,395.571 H 553.204 V 690.578 H 258.197 Z"
         transform="translate(-338.97921,-502.68381)"
         id="path2947" />
    </clipPath>
    <clipPath
       clipPathUnits="userSpaceOnUse"
       id="clipPath2949">
      <path
         d="M 258.197,395.571 H 553.204 V 690.578 H 258.197 Z"
         transform="translate(-346.19481,-498.62061)"
         id="path2949" />
    </clipPath>
    <clipPath
       clipPathUnits="userSpaceOnUse"
       id="clipPath2951">
      <path
         d="M 258.197,395.571 H 553.204 V 690.578 H 258.197 Z"
         transform="translate(-350.10161,-501.38241)"
         id="path2951" />
    </clipPath>
    <clipPath
       clipPathUnits="userSpaceOnUse"
       id="clipPath2953">
      <path
         d="M 258.197,395.571 H 553.204 V 690.578 H 258.197 Z"
         transform="translate(-356.42651,-498.62061)"
         id="path2953" />
    </clipPath>
    <clipPath
       clipPathUnits="userSpaceOnUse"
       id="clipPath2955">
      <path
         d="M 258.197,395.571 H 553.204 V 690.578 H 258.197 Z"
         transform="translate(-359.45511,-497.56484)"
         id="path2955" />
    </clipPath>
    <clipPath
       clipPathUnits="userSpaceOnUse"
       id="clipPath2957">
      <path
         d="M 258.197,395.571 H 553.204 V 690.578 H 258.197 Z"
         transform="translate(-360.01501,-504.90561)"
         id="path2957" />
    </clipPath>
    <clipPath
       clipPathUnits="userSpaceOnUse"
       id="clipPath2959">
      <path
         d="M 258.197,395.571 H 553.204 V 690.578 H 258.197 Z"
         transform="translate(-366.75991,-500.05679)"
         id="path2959" />
    </clipPath>
    <clipPath
       clipPathUnits="userSpaceOnUse"
       id="clipPath2961">
      <path
         d="M 258.197,395.571 H 553.204 V 690.578 H 258.197 Z"
         transform="translate(0,2.5e-5)"
         id="path2961" />
    </clipPath>
    <clipPath
       clipPathUnits="userSpaceOnUse"
       id="clipPath2963">
      <path
         d="M 258.197,395.571 H 553.204 V 690.578 H 258.197 Z"
         transform="translate(-376.55861,-504.90561)"
         id="path2963" />
    </clipPath>
    <clipPath
       clipPathUnits="userSpaceOnUse"
       id="clipPath2965">
      <path
         d="M 258.197,395.571 H 553.204 V 690.578 H 258.197 Z"
         transform="translate(-375.99881,-497.56484)"
         id="path2965" />
    </clipPath>
    <clipPath
       clipPathUnits="userSpaceOnUse"
       id="clipPath2967">
      <path
         d="M 258.197,395.571 H 553.204 V 690.578 H 258.197 Z"
         transform="translate(-382.19641,-498.62061)"
         id="path2967" />
    </clipPath>
    <clipPath
       clipPathUnits="userSpaceOnUse"
       id="clipPath2969">
      <path
         d="M 258.197,395.571 H 553.204 V 690.578 H 258.197 Z"
         transform="translate(-389.28471,-499.11164)"
         id="path2969" />
    </clipPath>
    <clipPath
       clipPathUnits="userSpaceOnUse"
       id="clipPath2971">
      <path
         d="M 258.197,395.571 H 553.204 V 690.578 H 258.197 Z"
         transform="translate(-392.89861,-500.16741)"
         id="path2971" />
    </clipPath>
    <clipPath
       clipPathUnits="userSpaceOnUse"
       id="clipPath2973">
      <path
         d="M 258.197,395.571 H 553.204 V 690.578 H 258.197 Z"
         transform="translate(-399.27441,-500.16741)"
         id="path2973" />
    </clipPath>
    <clipPath
       clipPathUnits="userSpaceOnUse"
       id="clipPath2975">
      <path
         d="M 258.197,395.571 H 553.204 V 690.578 H 258.197 Z"
         transform="translate(-409.21331,-499.11164)"
         id="path2975" />
    </clipPath>
    <clipPath
       clipPathUnits="userSpaceOnUse"
       id="clipPath2977">
      <path
         d="M 258.197,395.571 H 553.204 V 690.578 H 258.197 Z"
         transform="translate(-417.16711,-501.01431)"
         id="path2977" />
    </clipPath>
    <clipPath
       clipPathUnits="userSpaceOnUse"
       id="clipPath2979">
      <path
         d="M 258.197,395.571 H 553.204 V 690.578 H 258.197 Z"
         transform="translate(-422.42271,-500.16741)"
         id="path2979" />
    </clipPath>
    <clipPath
       clipPathUnits="userSpaceOnUse"
       id="clipPath2981">
      <path
         d="M 258.197,395.571 H 553.204 V 690.578 H 258.197 Z"
         transform="translate(-431.40741,-498.62061)"
         id="path2981" />
    </clipPath>
    <clipPath
       clipPathUnits="userSpaceOnUse"
       id="clipPath2983">
      <path
         d="M 258.197,395.571 H 553.204 V 690.578 H 258.197 Z"
         transform="translate(0,2.5e-5)"
         id="path2983" />
    </clipPath>
    <clipPath
       clipPathUnits="userSpaceOnUse"
       id="clipPath2985">
      <path
         d="M 258.197,395.571 H 553.204 V 690.578 H 258.197 Z"
         transform="translate(-441.14251,-500.49884)"
         id="path2985" />
    </clipPath>
    <clipPath
       clipPathUnits="userSpaceOnUse"
       id="clipPath2987">
      <path
         d="M 258.197,395.571 H 553.204 V 690.578 H 258.197 Z"
         transform="translate(-448.24371,-500.05679)"
         id="path2987" />
    </clipPath>
    <clipPath
       clipPathUnits="userSpaceOnUse"
       id="clipPath2989">
      <path
         d="M 258.197,395.571 H 553.204 V 690.578 H 258.197 Z"
         transform="translate(-452.64651,-503.98499)"
         id="path2989" />
    </clipPath>
    <clipPath
       clipPathUnits="userSpaceOnUse"
       id="clipPath2991">
      <path
         d="M 258.197,395.571 H 553.204 V 690.578 H 258.197 Z"
         transform="translate(-458.75531,-498.62061)"
         id="path2991" />
    </clipPath>
    <clipPath
       clipPathUnits="userSpaceOnUse"
       id="clipPath2993">
      <path
         d="M 258.197,395.571 H 553.204 V 690.578 H 258.197 Z"
         transform="translate(-462.94201,-503.98499)"
         id="path2993" />
    </clipPath>
    <clipPath
       clipPathUnits="userSpaceOnUse"
       id="clipPath2995">
      <path
         d="M 258.197,395.571 H 553.204 V 690.578 H 258.197 Z"
         transform="translate(-466.36521,-500.16741)"
         id="path2995" />
    </clipPath>
    <clipPath
       clipPathUnits="userSpaceOnUse"
       id="clipPath2997">
      <path
         d="M 258.197,395.571 H 553.204 V 690.578 H 258.197 Z"
         transform="translate(-478.84951,-504.13214)"
         id="path2997" />
    </clipPath>
    <clipPath
       clipPathUnits="userSpaceOnUse"
       id="clipPath2999">
      <path
         d="M 258.197,395.571 H 553.204 V 690.578 H 258.197 Z"
         transform="translate(-484.60151,-497.29469)"
         id="path2999" />
    </clipPath>
    <clipPath
       clipPathUnits="userSpaceOnUse"
       id="clipPath3001">
      <path
         d="M 258.197,395.571 H 553.204 V 690.578 H 258.197 Z"
         transform="translate(-427.86441,-548.08551)"
         id="path3001" />
    </clipPath>
    <clipPath
       clipPathUnits="userSpaceOnUse"
       id="clipPath3003">
      <path
         d="M 258.197,395.571 H 553.204 V 690.578 H 258.197 Z"
         transform="translate(-400.99241,-567.87464)"
         id="path3003" />
    </clipPath>
    <clipPath
       clipPathUnits="userSpaceOnUse"
       id="clipPath3005">
      <path
         d="M 258.197,395.571 H 553.204 V 690.578 H 258.197 Z"
         transform="translate(-376.39871,-552.92969)"
         id="path3005" />
    </clipPath>
    <clipPath
       clipPathUnits="userSpaceOnUse"
       id="clipPath3007">
      <path
         d="M 258.197,395.571 H 553.204 V 690.578 H 258.197 Z"
         transform="translate(-423.01911,-530.36339)"
         id="path3007" />
    </clipPath>
    <clipPath
       clipPathUnits="userSpaceOnUse"
       id="clipPath3009">
      <path
         d="M 258.197,395.571 H 553.204 V 690.578 H 258.197 Z"
         transform="translate(-440.44741,-555.68271)"
         id="path3009" />
    </clipPath>
    <clipPath
       clipPathUnits="userSpaceOnUse"
       id="clipPath3011">
      <path
         d="M 258.197,395.571 H 553.204 V 690.578 H 258.197 Z"
         transform="translate(-339.11251,-555.68271)"
         id="path3011" />
    </clipPath>
    <clipPath
       clipPathUnits="userSpaceOnUse"
       id="clipPath3013">
      <path
         d="M 258.197,395.571 H 553.204 V 690.578 H 258.197 Z"
         transform="translate(-358.72021,-535.42431)"
         id="path3013" />
    </clipPath>
  </defs>
  <g
     inkscape:label="Layer 1"
     inkscape:groupmode="layer"
     id="layer1"
     transform="translate(-211.1375,-99.218721)">
    <g
       id="group-MC7"
       transform="matrix(0.26458333,0,0,0.26458333,96.92411,-1023.7617)">
      <path
         id="path2890"
         d="m 0,0 c 0,-0.629 -0.179,-1.061 -0.537,-1.283 -0.244,-0.161 -0.692,-0.235 -1.344,-0.235 h -3.507 c -0.781,0 -1.37,0.136 -1.754,0.395 -0.486,0.321 -0.729,0.889 -0.729,1.691 v 2.11 h -1.421 v -2.11 c 0,-2.333 1.357,-3.492 4.07,-3.492 h 4.646 c 1.267,0 1.984,0.74 1.984,1.974 V 2.678 H 0 Z"
         style="fill:#ffffff; xx=icccc-color(sRGB-IEC61966-2, 0.1, 1, 1, 1);fill-opacity:1;fill-rule:nonzero;stroke:none"
         transform="matrix(1.3333333,0,0,-1.3333333,445.20787,4346.728)"
         clip-path="url(#clipPath2891)" />
      <path
         id="path2892"
         d="m 329.426,519.384 h -1.395 v -1.37 h 1.395 z"
         style="fill:#ffffff; xx=icccc-color(sRGB-IEC61966-2, 0.1, 1, 1, 1);fill-opacity:1;fill-rule:nonzero;stroke:none"
         transform="matrix(1.3333333,0,0,-1.3333333,0,5033.8267)"
         clip-path="url(#clipPath2893)" />
      <path
         id="path2894"
         d="m 331.858,519.384 h -1.395 v -1.37 h 1.395 z"
         style="fill:#ffffff; xx=icccc-color(sRGB-IEC61966-2, 0.1, 1, 1, 1);fill-opacity:1;fill-rule:nonzero;stroke:none"
         transform="matrix(1.3333333,0,0,-1.3333333,0,5033.8267)"
         clip-path="url(#clipPath2895)" />
      <path
         id="path2896"
         d="m 338.063,520.371 h -1.42 V 512.4 h 1.42 z"
         style="fill:#ffffff; xx=icccc-color(sRGB-IEC61966-2, 0.1, 1, 1, 1);fill-opacity:1;fill-rule:nonzero;stroke:none"
         transform="matrix(1.3333333,0,0,-1.3333333,0,5033.8267)"
         clip-path="url(#clipPath2897)" />
      <path
         id="path2898"
         d="m 0,0 c 0,-1.185 -0.589,-1.752 -1.779,-1.752 v -1.185 c 2.201,0 3.212,0.926 3.212,3.147 V 4.714 H 0 Z"
         style="fill:#ffffff; xx=icccc-color(sRGB-IEC61966-2, 0.1, 1, 1, 1);fill-opacity:1;fill-rule:nonzero;stroke:none"
         transform="matrix(1.3333333,0,0,-1.3333333,454.38413,4349.4427)"
         clip-path="url(#clipPath2899)" />
      <path
         id="path2900"
         d="m 350.718,521.457 h -1.408 v -1.382 h 1.408 z"
         style="fill:#ffffff; xx=icccc-color(sRGB-IEC61966-2, 0.1, 1, 1, 1);fill-opacity:1;fill-rule:nonzero;stroke:none"
         transform="matrix(1.3333333,0,0,-1.3333333,0,5033.8267)"
         clip-path="url(#clipPath2901)" />
      <path
         id="path2902"
         d="m 353.15,521.457 h -1.408 v -1.382 h 1.408 z"
         style="fill:#ffffff; xx=icccc-color(sRGB-IEC61966-2, 0.1, 1, 1, 1);fill-opacity:1;fill-rule:nonzero;stroke:none"
         transform="matrix(1.3333333,0,0,-1.3333333,0,5033.8267)"
         clip-path="url(#clipPath2903)" />
      <path
         id="path2904"
         d="m 0,0 c -0.64,0.716 -1.369,1.209 -2.176,1.481 0.653,0.333 1.319,0.506 1.971,0.506 0.653,0 1.28,-0.161 1.856,-0.494 C 1.472,1.234 1.229,0.962 0.934,0.679 0.602,0.37 0.294,0.135 0,0 m -8.176,-0.086 c -0.218,-0.161 -0.487,-0.309 -0.781,-0.457 -0.294,0.136 -0.563,0.296 -0.794,0.457 -0.563,0.395 -0.844,0.925 -0.844,1.579 0,0.432 0.14,0.79 0.409,1.074 0.295,0.308 0.704,0.469 1.229,0.469 0.525,0 0.934,-0.161 1.229,-0.469 0.268,-0.284 0.397,-0.642 0.397,-1.074 0,-0.666 -0.282,-1.197 -0.845,-1.579 M 9.608,-2.591 h 0.373 1.138 c 1.433,0 2.15,0.74 2.15,2.233 V 5.368 H 11.835 V 0.111 c 0,-0.444 -0.038,-0.74 -0.102,-0.888 -0.141,-0.272 -0.435,-0.408 -0.909,-0.408 H 9.981 9.608 7.575 c 0.204,0.235 0.307,0.704 0.307,1.432 V 5.368 H 6.461 V 0.173 C 6.461,-0.259 6.41,-0.58 6.308,-0.765 6.154,-1.049 5.872,-1.185 5.45,-1.185 H 4.505 4.119 2.099 c -0.307,0 -0.499,0.013 -0.563,0.025 -0.166,0.037 -0.333,0.136 -0.512,0.308 0.461,0.309 0.947,0.766 1.472,1.382 0.486,0.581 0.793,1.037 0.909,1.37 -1.024,0.852 -2.24,1.284 -3.648,1.284 -1.19,0 -2.355,-0.334 -3.469,-1.012 V 0.864 c 0.474,-0.111 0.986,-0.334 1.511,-0.667 0.524,-0.32 0.896,-0.629 1.088,-0.913 -0.308,-0.197 -0.615,-0.321 -0.922,-0.382 -0.243,-0.062 -0.576,-0.087 -0.998,-0.087 h -1.662 -0.463 -0.868 c -0.653,0 -1.05,0.049 -1.19,0.136 0.396,0.296 0.716,0.679 0.934,1.16 0.205,0.419 0.307,0.851 0.307,1.308 0,1.752 -1.536,2.702 -2.982,2.702 -1.293,0 -2.342,-0.728 -2.816,-1.9 -0.102,-0.247 -0.153,-0.53 -0.153,-0.851 0,-0.445 0.102,-0.876 0.294,-1.284 0.217,-0.456 0.538,-0.839 0.947,-1.135 -0.154,-0.087 -0.55,-0.136 -1.19,-0.136 h -1.023 -0.475 -0.37 c -0.538,0 -0.909,0.074 -1.101,0.21 -0.268,0.185 -0.409,0.58 -0.409,1.185 v 5.158 h -1.421 v -5.714 c 0,-0.678 0.166,-1.209 0.512,-1.604 0.371,-0.432 0.896,-0.641 1.587,-0.641 h 1.202 0.475 1.1 c 1.215,0 2.162,0.222 2.828,0.678 0.678,-0.456 1.626,-0.678 2.854,-0.678 h 0.958 0.463 1.687 c 0.96,0 1.895,0.296 2.829,0.888 0.218,-0.234 0.486,-0.432 0.819,-0.592 0.397,-0.198 0.781,-0.296 1.139,-0.296 h 2.34 0.386 z"
         style="fill:#ffffff; xx=icccc-color(sRGB-IEC61966-2, 0.1, 1, 1, 1);fill-opacity:1;fill-rule:nonzero;stroke:none"
         transform="matrix(1.3333333,0,0,-1.3333333,480.2836,4347.172)"
         clip-path="url(#clipPath2905)" />
      <path
         id="path2906"
         d="m 387.736,509.697 h 1.408 v 1.382 h -1.408 z"
         style="fill:#ffffff; xx=icccc-color(sRGB-IEC61966-2, 0.1, 1, 1, 1);fill-opacity:1;fill-rule:nonzero;stroke:none"
         transform="matrix(1.3333333,0,0,-1.3333333,0,5033.8267)"
         clip-path="url(#clipPath2907)" />
      <path
         id="path2908"
         d="m 385.317,509.697 h 1.408 v 1.382 h -1.408 z"
         style="fill:#ffffff; xx=icccc-color(sRGB-IEC61966-2, 0.1, 1, 1, 1);fill-opacity:1;fill-rule:nonzero;stroke:none"
         transform="matrix(1.3333333,0,0,-1.3333333,0,5033.8267)"
         clip-path="url(#clipPath2909)" />
      <path
         id="path2910"
         d="M 0,0 H 0.983 C 2.404,0 3.121,0.741 3.121,2.233 V 5.602 H 1.687 V 2.703 C 1.687,2.258 1.649,1.962 1.585,1.814 1.444,1.543 1.15,1.407 0.676,1.407 H 0 -0.527 -2.227 C -2.24,3.517 -3.097,4.85 -4.812,5.405 -5.145,5.516 -5.401,5.566 -5.581,5.578 -5.76,5.59 -6.208,5.602 -6.912,5.602 V 4.344 c 0.461,0 0.896,-0.025 1.293,-0.111 1.293,-0.272 1.946,-1.21 1.946,-2.826 H -8.307 V 0 h 7.78 z"
         style="fill:#ffffff; xx=icccc-color(sRGB-IEC61966-2, 0.1, 1, 1, 1);fill-opacity:1;fill-rule:nonzero;stroke:none"
         transform="matrix(1.3333333,0,0,-1.3333333,514.74827,4350.6273)"
         clip-path="url(#clipPath2911)" />
      <path
         id="path2912"
         d="m 403.424,511.079 h -1.408 v -1.382 h 1.408 z"
         style="fill:#ffffff; xx=icccc-color(sRGB-IEC61966-2, 0.1, 1, 1, 1);fill-opacity:1;fill-rule:nonzero;stroke:none"
         transform="matrix(1.3333333,0,0,-1.3333333,0,5033.8267)"
         clip-path="url(#clipPath2913)" />
      <path
         id="path2914"
         d="M 0,0 C 0,-0.444 -0.039,-0.741 -0.102,-0.889 -0.243,-1.16 -0.537,-1.296 -1.011,-1.296 H -1.828 -2.227 -3.184 C -3.299,0.419 -3.939,1.616 -5.104,2.307 -5.77,2.702 -6.551,2.9 -7.434,2.9 -7.997,2.9 -8.56,2.789 -9.123,2.554 c -0.525,-0.222 -0.973,-0.518 -1.37,-0.876 0.32,-0.469 0.551,-0.827 0.692,-1.086 0.307,0.333 0.691,0.593 1.152,0.778 0.396,0.16 0.755,0.234 1.075,0.234 0.934,0 1.676,-0.308 2.201,-0.938 0.448,-0.543 0.666,-1.197 0.666,-1.962 h -6.782 -0.616 -1.611 c -0.012,2.11 -0.87,3.443 -2.585,3.998 -0.333,0.111 -0.589,0.161 -0.768,0.173 C -17.248,2.887 -17.696,2.9 -18.4,2.9 V 1.641 c 0.461,0 0.896,-0.025 1.293,-0.111 1.292,-0.271 1.945,-1.209 1.945,-2.826 h -4.633 v -1.407 h 7.69 0.616 9.262 0.399 1.112 c 1.433,0 2.15,0.741 2.15,2.234 V 5.257 H 0 Z"
         style="fill:#ffffff; xx=icccc-color(sRGB-IEC61966-2, 0.1, 1, 1, 1);fill-opacity:1;fill-rule:nonzero;stroke:none"
         transform="matrix(1.3333333,0,0,-1.3333333,546.90547,4347.0239)"
         clip-path="url(#clipPath2915)" />
      <path
         id="path2916"
         d="m 412.93,512.4 h 1.42 v 7.971 h -1.42 z"
         style="fill:#ffffff; xx=icccc-color(sRGB-IEC61966-2, 0.1, 1, 1, 1);fill-opacity:1;fill-rule:nonzero;stroke:none"
         transform="matrix(1.3333333,0,0,-1.3333333,0,5033.8267)"
         clip-path="url(#clipPath2917)" />
      <path
         id="path2918"
         d="m 0,0 c 0,0.802 -0.256,1.543 -0.781,2.209 -0.678,0.864 -1.651,1.222 -2.905,1.222 -0.461,0 -0.832,-0.099 -1.101,-0.21 V 2.036 c 0.179,0.099 0.512,0.197 0.999,0.197 1.254,0 1.996,-0.567 2.239,-1.937 h -1.574 c -0.883,0 -1.6,-0.234 -2.125,-0.716 -0.588,-0.53 -0.883,-1.308 -0.883,-2.332 0,-1.024 0.359,-1.801 1.063,-2.345 0.627,-0.469 1.472,-0.703 2.534,-0.703 h 1.024 v 1.444 h -1.549 c -0.448,0 -0.845,0.148 -1.165,0.432 -0.32,0.284 -0.473,0.654 -0.473,1.11 0,1.037 0.665,1.691 1.638,1.691 H 0 Z"
         style="fill:#ffffff; xx=icccc-color(sRGB-IEC61966-2, 0.1, 1, 1, 1);fill-opacity:1;fill-rule:nonzero;stroke:none"
         transform="matrix(1.3333333,0,0,-1.3333333,565.82773,4345.6089)"
         clip-path="url(#clipPath2919)" />
      <path
         id="path2920"
         d="m 421.235,512.733 h 1.408 v 1.37 h -1.408 z"
         style="fill:#ffffff; xx=icccc-color(sRGB-IEC61966-2, 0.1, 1, 1, 1);fill-opacity:1;fill-rule:nonzero;stroke:none"
         transform="matrix(1.3333333,0,0,-1.3333333,0,5033.8267)"
         clip-path="url(#clipPath2921)" />
      <path
         id="path2922"
         d="m 425.687,512.4 h 1.42 v 7.971 h -1.42 z"
         style="fill:#ffffff; xx=icccc-color(sRGB-IEC61966-2, 0.1, 1, 1, 1);fill-opacity:1;fill-rule:nonzero;stroke:none"
         transform="matrix(1.3333333,0,0,-1.3333333,0,5033.8267)"
         clip-path="url(#clipPath2923)" />
      <path
         id="path2924"
         d="m 0,0 h 1.111 c 1.433,0 2.15,0.741 2.15,2.233 V 7.959 H 1.828 V 2.703 C 1.828,2.258 1.789,1.962 1.726,1.814 1.585,1.543 1.29,1.407 0.817,1.407 H 0 -0.399 -1.357 c -0.115,1.715 -0.755,2.912 -1.92,3.603 -0.665,0.395 -1.446,0.592 -2.329,0.592 -0.563,0 -1.126,-0.111 -1.689,-0.345 -0.525,-0.222 -0.973,-0.519 -1.37,-0.876 0.32,-0.469 0.55,-0.827 0.691,-1.086 0.307,0.333 0.691,0.592 1.152,0.777 0.397,0.161 0.755,0.235 1.075,0.235 0.935,0 1.677,-0.309 2.202,-0.938 0.448,-0.543 0.665,-1.197 0.665,-1.962 h -6.91 -0.487 -1.714 v 4.195 h -1.433 V 0.889 c 0,-1.185 -0.589,-1.753 -1.78,-1.753 v -1.184 c 1.741,0 2.906,0.728 3.123,2.048 h 1.804 0.487 9.391 z"
         style="fill:#ffffff; xx=icccc-color(sRGB-IEC61966-2, 0.1, 1, 1, 1);fill-opacity:1;fill-rule:nonzero;stroke:none"
         transform="matrix(1.3333333,0,0,-1.3333333,591.01093,4350.6273)"
         clip-path="url(#clipPath2925)" />
      <path
         id="path2926"
         d="m 449.257,520.371 h -1.42 V 512.4 h 1.42 z"
         style="fill:#ffffff; xx=icccc-color(sRGB-IEC61966-2, 0.1, 1, 1, 1);fill-opacity:1;fill-rule:nonzero;stroke:none"
         transform="matrix(1.3333333,0,0,-1.3333333,0,5033.8267)"
         clip-path="url(#clipPath2927)" />
      <path
         id="path2928"
         d="m 457.435,520.198 h 1.408 v 1.382 h -1.408 z"
         style="fill:#ffffff; xx=icccc-color(sRGB-IEC61966-2, 0.1, 1, 1, 1);fill-opacity:1;fill-rule:nonzero;stroke:none"
         transform="matrix(1.3333333,0,0,-1.3333333,0,5033.8267)"
         clip-path="url(#clipPath2929)" />
      <path
         id="path2930"
         d="m 456.423,521.581 h -1.408 v -1.382 h 1.408 z"
         style="fill:#ffffff; xx=icccc-color(sRGB-IEC61966-2, 0.1, 1, 1, 1);fill-opacity:1;fill-rule:nonzero;stroke:none"
         transform="matrix(1.3333333,0,0,-1.3333333,0,5033.8267)"
         clip-path="url(#clipPath2931)" />
      <path
         id="path2932"
         d="m 0,0 h 1.293 v -1.789 c 0,-1.049 -0.564,-1.888 -1.498,-1.888 -0.858,0 -1.408,0.814 -1.408,1.764 C -1.613,-0.765 -0.999,0 0,0 m -3.033,-1.925 c 0,-1.715 1.011,-2.9 2.649,-2.9 0.64,0 1.19,0.309 1.638,0.925 0.294,-1.098 1.203,-1.826 2.317,-1.826 h 1.162 0.386 8.177 v 0.864 c 0,1.938 -0.602,3.283 -1.817,4.06 -0.692,0.456 -1.511,0.679 -2.458,0.679 H 8.394 l 1.728,2.356 H 8.419 L 5.898,-1.419 h 2.957 c 0.934,0 1.676,-0.309 2.214,-0.938 C 11.53,-2.9 11.76,-3.554 11.76,-4.319 H 5.119 4.733 4.211 c -0.96,0 -1.434,0.518 -1.434,1.481 v 3.911 h -3.161 c -1.638,0 -2.649,-1.147 -2.649,-2.998"
         style="fill:#ffffff; xx=icccc-color(sRGB-IEC61966-2, 0.1, 1, 1, 1);fill-opacity:1;fill-rule:nonzero;stroke:none"
         transform="matrix(1.3333333,0,0,-1.3333333,608.24053,4342.9929)"
         clip-path="url(#clipPath2933)" />
      <path
         id="path2934"
         d="m 482.579,522.457 h -1.408 v -1.382 h 1.408 z"
         style="fill:#ffffff; xx=icccc-color(sRGB-IEC61966-2, 0.1, 1, 1, 1);fill-opacity:1;fill-rule:nonzero;stroke:none"
         transform="matrix(1.3333333,0,0,-1.3333333,0,5033.8267)"
         clip-path="url(#clipPath2935)" />
      <path
         id="path2936"
         d="m 483.769,520.507 h -1.395 v -1.37 h 1.395 z"
         style="fill:#ffffff; xx=icccc-color(sRGB-IEC61966-2, 0.1, 1, 1, 1);fill-opacity:1;fill-rule:nonzero;stroke:none"
         transform="matrix(1.3333333,0,0,-1.3333333,0,5033.8267)"
         clip-path="url(#clipPath2937)" />
      <path
         id="path2938"
         d="m 479.955,519.137 h 1.395 v 1.37 h -1.395 z"
         style="fill:#ffffff; xx=icccc-color(sRGB-IEC61966-2, 0.1, 1, 1, 1);fill-opacity:1;fill-rule:nonzero;stroke:none"
         transform="matrix(1.3333333,0,0,-1.3333333,0,5033.8267)"
         clip-path="url(#clipPath2939)" />
      <path
         id="path2940"
         d="m 0,0 h 7.921 c 1.459,0 2.483,1.16 2.483,2.937 V 5.602 H 8.958 V 2.764 C 8.958,1.863 8.599,1.407 7.87,1.407 H 6.475 C 6.667,1.604 6.769,2.11 6.769,2.912 v 2.69 H 5.323 V 2.777 c 0,-0.914 -0.358,-1.37 -1.088,-1.37 H 2.904 v 0.074 c 0.153,0.234 0.23,0.703 0.23,1.431 v 2.69 H 1.688 V 2.863 C 1.688,1.888 1.33,1.407 0.6,1.407 H 0 -0.45 -2.201 V 5.602 H -3.635 V 0.889 c 0,-1.185 -0.589,-1.753 -1.779,-1.753 v -1.184 c 1.741,0 2.906,0.728 3.123,2.048 h 1.841 z"
         style="fill:#ffffff; xx=icccc-color(sRGB-IEC61966-2, 0.1, 1, 1, 1);fill-opacity:1;fill-rule:nonzero;stroke:none"
         transform="matrix(1.3333333,0,0,-1.3333333,634.4468,4350.6273)"
         clip-path="url(#clipPath2941)" />
      <path
         id="path2942"
         d="M 0,0 0.84,2.394 C 1.018,2.897 1.145,3.413 1.273,3.891 H 1.298 C 1.425,3.413 1.553,2.922 1.744,2.381 L 2.596,0 Z m 0.662,4.836 -2.927,-8.273 h 1.145 l 0.891,2.602 H 2.813 L 3.729,-3.437 H 4.912 L 1.986,4.836 Z"
         style="fill:#ffffff; xx=icccc-color(sRGB-IEC61966-2, 0.1, 1, 1, 1);fill-opacity:1;fill-rule:nonzero;stroke:none"
         transform="matrix(1.3333333,0,0,-1.3333333,435.71707,4367.0843)"
         clip-path="url(#clipPath2943)" />
      <path
         id="path2944"
         d="m 332.883,496.62 h 1.12 v 8.716 h -1.12 z"
         style="fill:#ffffff; xx=icccc-color(sRGB-IEC61966-2, 0.1, 1, 1, 1);fill-opacity:1;fill-rule:nonzero;stroke:none"
         transform="matrix(1.3333333,0,0,-1.3333333,0,5033.8267)"
         clip-path="url(#clipPath2945)" />
      <path
         id="path2946"
         d="m 0,0 c -0.42,0 -0.815,-0.111 -1.145,-0.295 -0.344,-0.184 -0.624,-0.466 -0.802,-0.773 h -0.025 v 3.72 h -1.121 v -8.716 h 1.121 v 3.584 c 0,0.197 0.012,0.356 0.076,0.516 0.216,0.577 0.776,1.068 1.502,1.068 1.056,0 1.425,-0.798 1.425,-1.756 v -3.412 h 1.12 v 3.535 C 2.151,-0.491 0.827,0 0,0"
         style="fill:#ffffff; xx=icccc-color(sRGB-IEC61966-2, 0.1, 1, 1, 1);fill-opacity:1;fill-rule:nonzero;stroke:none"
         transform="matrix(1.3333333,0,0,-1.3333333,451.97227,4363.5816)"
         clip-path="url(#clipPath2947)" />
      <path
         id="path2948"
         d="m 0,0 c 0,-0.098 -0.013,-0.221 -0.051,-0.344 -0.178,-0.503 -0.7,-0.994 -1.514,-0.994 -0.56,0 -1.044,0.319 -1.044,1.031 0,1.154 1.387,1.363 2.609,1.338 z m 1.082,1.645 c 0,1.178 -0.458,2.418 -2.342,2.418 -0.776,0 -1.527,-0.209 -2.036,-0.516 l 0.254,-0.724 c 0.433,0.283 1.031,0.442 1.617,0.442 1.259,0.013 1.4,-0.884 1.4,-1.362 V 1.78 c -2.38,0.012 -3.704,-0.773 -3.704,-2.21 0,-0.859 0.636,-1.706 1.884,-1.706 0.878,0 1.54,0.417 1.883,0.884 h 0.038 l 0.09,-0.749 h 1.005 c -0.064,0.405 -0.089,0.908 -0.089,1.424 z"
         style="fill:#ffffff; xx=icccc-color(sRGB-IEC61966-2, 0.1, 1, 1, 1);fill-opacity:1;fill-rule:nonzero;stroke:none"
         transform="matrix(1.3333333,0,0,-1.3333333,461.59307,4368.9992)"
         clip-path="url(#clipPath2949)" />
      <path
         id="path2950"
         d="m 0,0 h -0.038 l -0.051,1.178 h -0.98 c 0.038,-0.552 0.051,-1.153 0.051,-1.853 v -4.088 h 1.12 v 3.167 c 0,0.172 0.013,0.356 0.038,0.504 0.153,0.81 0.713,1.374 1.502,1.374 0.152,0 0.267,0 0.382,-0.024 V 1.277 C 1.922,1.289 1.833,1.301 1.718,1.301 0.967,1.301 0.28,0.798 0,0"
         style="fill:#ffffff; xx=icccc-color(sRGB-IEC61966-2, 0.1, 1, 1, 1);fill-opacity:1;fill-rule:nonzero;stroke:none"
         transform="matrix(1.3333333,0,0,-1.3333333,466.80213,4365.3168)"
         clip-path="url(#clipPath2951)" />
      <path
         id="path2952"
         d="m 0,0 c 0,-0.098 -0.013,-0.221 -0.051,-0.344 -0.178,-0.503 -0.7,-0.994 -1.514,-0.994 -0.56,0 -1.044,0.319 -1.044,1.031 0,1.154 1.387,1.363 2.609,1.338 z m 1.082,1.645 c 0,1.178 -0.458,2.418 -2.342,2.418 -0.776,0 -1.527,-0.209 -2.036,-0.516 l 0.254,-0.724 c 0.433,0.283 1.031,0.442 1.617,0.442 1.259,0.013 1.4,-0.884 1.4,-1.362 V 1.78 c -2.38,0.012 -3.704,-0.773 -3.704,-2.21 0,-0.859 0.636,-1.706 1.884,-1.706 0.878,0 1.54,0.417 1.883,0.884 h 0.038 l 0.09,-0.749 h 1.005 c -0.064,0.405 -0.089,0.908 -0.089,1.424 z"
         style="fill:#ffffff; xx=icccc-color(sRGB-IEC61966-2, 0.1, 1, 1, 1);fill-opacity:1;fill-rule:nonzero;stroke:none"
         transform="matrix(1.3333333,0,0,-1.3333333,475.23533,4368.9992)"
         clip-path="url(#clipPath2953)" />
      <path
         id="path2954"
         d="m 0,0 c 0,-1.424 -0.127,-1.89 -0.433,-2.222 -0.267,-0.294 -0.7,-0.429 -1.221,-0.466 l 0.127,-0.847 c 0.598,0 1.412,0.196 1.909,0.675 0.547,0.54 0.738,1.289 0.738,2.443 V 4.996 H 0 Z"
         style="fill:#ffffff; xx=icccc-color(sRGB-IEC61966-2, 0.1, 1, 1, 1);fill-opacity:1;fill-rule:nonzero;stroke:none"
         transform="matrix(1.3333333,0,0,-1.3333333,479.27347,4370.4069)"
         clip-path="url(#clipPath2955)" />
      <path
         id="path2956"
         d="m 0,0 c -0.42,0 -0.7,-0.307 -0.7,-0.675 0,-0.356 0.267,-0.663 0.675,-0.663 0.458,0 0.712,0.307 0.712,0.663 C 0.687,-0.307 0.42,0 0,0"
         style="fill:#ffffff; xx=icccc-color(sRGB-IEC61966-2, 0.1, 1, 1, 1);fill-opacity:1;fill-rule:nonzero;stroke:none"
         transform="matrix(1.3333333,0,0,-1.3333333,480.02,4360.6192)"
         clip-path="url(#clipPath2957)" />
      <path
         id="path2958"
         d="M 0,0 0.84,2.394 C 1.018,2.897 1.145,3.413 1.273,3.891 H 1.298 C 1.425,3.413 1.553,2.922 1.744,2.381 L 2.596,0 Z m 0.662,4.836 -2.927,-8.273 h 1.145 l 0.891,2.602 H 2.813 L 3.729,-3.437 H 4.912 L 1.986,4.836 Z"
         style="fill:#ffffff; xx=icccc-color(sRGB-IEC61966-2, 0.1, 1, 1, 1);fill-opacity:1;fill-rule:nonzero;stroke:none"
         transform="matrix(1.3333333,0,0,-1.3333333,489.0132,4367.0843)"
         clip-path="url(#clipPath2959)" />
      <path
         id="path2960"
         d="m 372.855,496.62 h 1.12 v 8.716 h -1.12 z"
         style="fill:#ffffff; xx=icccc-color(sRGB-IEC61966-2, 0.1, 1, 1, 1);fill-opacity:1;fill-rule:nonzero;stroke:none"
         transform="matrix(1.3333333,0,0,-1.3333333,0,5033.8267)"
         clip-path="url(#clipPath2961)" />
      <path
         id="path2962"
         d="m 0,0 c -0.42,0 -0.7,-0.307 -0.7,-0.675 0,-0.356 0.267,-0.663 0.675,-0.663 0.458,0 0.712,0.307 0.712,0.663 C 0.687,-0.307 0.42,0 0,0"
         style="fill:#ffffff; xx=icccc-color(sRGB-IEC61966-2, 0.1, 1, 1, 1);fill-opacity:1;fill-rule:nonzero;stroke:none"
         transform="matrix(1.3333333,0,0,-1.3333333,502.07813,4360.6192)"
         clip-path="url(#clipPath2963)" />
      <path
         id="path2964"
         d="m 0,0 c 0,-1.424 -0.127,-1.89 -0.433,-2.222 -0.267,-0.294 -0.7,-0.429 -1.221,-0.466 l 0.127,-0.847 c 0.598,0 1.412,0.196 1.909,0.675 0.547,0.54 0.738,1.289 0.738,2.443 V 4.996 H 0 Z"
         style="fill:#ffffff; xx=icccc-color(sRGB-IEC61966-2, 0.1, 1, 1, 1);fill-opacity:1;fill-rule:nonzero;stroke:none"
         transform="matrix(1.3333333,0,0,-1.3333333,501.33173,4370.4069)"
         clip-path="url(#clipPath2965)" />
      <path
         id="path2966"
         d="m 0,0 c 0,-0.098 -0.013,-0.221 -0.051,-0.344 -0.178,-0.503 -0.7,-0.994 -1.514,-0.994 -0.56,0 -1.044,0.319 -1.044,1.031 0,1.154 1.387,1.363 2.609,1.338 z m 1.082,1.645 c 0,1.178 -0.458,2.418 -2.342,2.418 -0.776,0 -1.527,-0.209 -2.036,-0.516 l 0.254,-0.724 c 0.433,0.283 1.031,0.442 1.617,0.442 1.259,0.013 1.4,-0.884 1.4,-1.362 V 1.78 c -2.38,0.012 -3.704,-0.773 -3.704,-2.21 0,-0.859 0.636,-1.706 1.884,-1.706 0.878,0 1.54,0.417 1.883,0.884 h 0.038 l 0.09,-0.749 h 1.005 c -0.064,0.405 -0.089,0.908 -0.089,1.424 z"
         style="fill:#ffffff; xx=icccc-color(sRGB-IEC61966-2, 0.1, 1, 1, 1);fill-opacity:1;fill-rule:nonzero;stroke:none"
         transform="matrix(1.3333333,0,0,-1.3333333,509.5952,4368.9992)"
         clip-path="url(#clipPath2967)" />
      <path
         id="path2968"
         d="m 0,0 c 0,-0.172 -0.013,-0.319 -0.051,-0.467 -0.203,-0.797 -0.891,-1.288 -1.642,-1.288 -1.196,0 -1.82,0.994 -1.82,2.197 0,1.301 0.688,2.283 1.846,2.283 0.84,0 1.451,-0.565 1.616,-1.24 C -0.013,1.35 0,1.166 0,1.031 Z M 1.107,6.224 H 0 V 2.676 h -0.025 c -0.28,0.467 -0.904,0.896 -1.858,0.896 -1.489,0 -2.775,-1.203 -2.762,-3.179 0,-1.805 1.158,-3.02 2.647,-3.02 1.005,0 1.744,0.503 2.074,1.166 h 0.039 l 0.051,-1.031 h 0.992 c -0.025,0.405 -0.051,1.007 -0.051,1.534 z"
         style="fill:#ffffff; xx=icccc-color(sRGB-IEC61966-2, 0.1, 1, 1, 1);fill-opacity:1;fill-rule:nonzero;stroke:none"
         transform="matrix(1.3333333,0,0,-1.3333333,519.04627,4368.3445)"
         clip-path="url(#clipPath2969)" />
      <path
         id="path2970"
         d="M 0,0 C 0.089,0.749 0.573,1.743 1.718,1.743 2.978,1.743 3.284,0.675 3.271,0 Z m 1.807,2.517 c -1.794,0 -2.889,-1.4 -2.889,-3.192 0,-1.792 1.133,-3.008 3.029,-3.008 0.98,0 1.667,0.209 2.062,0.381 L 3.805,-2.529 C 3.398,-2.701 2.902,-2.836 2.1,-2.836 c -1.133,0 -2.087,0.602 -2.113,2.062 h 4.327 c 0.026,0.123 0.038,0.283 0.038,0.504 0,1.092 -0.521,2.787 -2.545,2.787"
         style="fill:#ffffff; xx=icccc-color(sRGB-IEC61966-2, 0.1, 1, 1, 1);fill-opacity:1;fill-rule:nonzero;stroke:none"
         transform="matrix(1.3333333,0,0,-1.3333333,523.8648,4366.9368)"
         clip-path="url(#clipPath2971)" />
      <path
         id="path2972"
         d="M 0,0 C 0.089,0.749 0.573,1.743 1.718,1.743 2.978,1.743 3.284,0.675 3.271,0 Z m 1.807,2.517 c -1.794,0 -2.889,-1.4 -2.889,-3.192 0,-1.792 1.133,-3.008 3.029,-3.008 0.98,0 1.667,0.209 2.062,0.381 L 3.805,-2.529 C 3.398,-2.701 2.902,-2.836 2.1,-2.836 c -1.133,0 -2.087,0.602 -2.113,2.062 h 4.327 c 0.026,0.123 0.038,0.283 0.038,0.504 0,1.092 -0.521,2.787 -2.545,2.787"
         style="fill:#ffffff; xx=icccc-color(sRGB-IEC61966-2, 0.1, 1, 1, 1);fill-opacity:1;fill-rule:nonzero;stroke:none"
         transform="matrix(1.3333333,0,0,-1.3333333,532.36587,4366.9368)"
         clip-path="url(#clipPath2973)" />
      <path
         id="path2974"
         d="m 0,0 c 0,-0.172 -0.013,-0.319 -0.051,-0.467 -0.203,-0.797 -0.891,-1.288 -1.642,-1.288 -1.196,0 -1.819,0.994 -1.819,2.197 0,1.301 0.687,2.283 1.845,2.283 0.84,0 1.451,-0.565 1.616,-1.24 C -0.013,1.35 0,1.166 0,1.031 Z M 1.107,6.224 H 0 V 2.676 h -0.025 c -0.28,0.467 -0.904,0.896 -1.858,0.896 -1.489,0 -2.775,-1.203 -2.762,-3.179 0,-1.805 1.158,-3.02 2.647,-3.02 1.005,0 1.744,0.503 2.074,1.166 h 0.038 l 0.052,-1.031 h 0.992 c -0.025,0.405 -0.051,1.007 -0.051,1.534 z"
         style="fill:#ffffff; xx=icccc-color(sRGB-IEC61966-2, 0.1, 1, 1, 1);fill-opacity:1;fill-rule:nonzero;stroke:none"
         transform="matrix(1.3333333,0,0,-1.3333333,545.61773,4368.3445)"
         clip-path="url(#clipPath2975)" />
      <path
         id="path2976"
         d="m 0,0 h -1.133 v 3.02 c 0.191,0.049 0.56,0.086 1.094,0.086 1.172,0 1.973,-0.467 1.973,-1.535 C 1.934,0.626 1.183,0 0,0 m 1.438,-0.454 v 0.036 c 0.891,0.295 1.604,1.019 1.604,2.1 0,0.65 -0.255,1.215 -0.675,1.583 C 1.845,3.719 1.069,3.94 -0.115,3.94 -0.866,3.94 -1.68,3.867 -2.24,3.769 v -8.164 h 1.107 v 3.585 h 1.044 c 1.005,-0.037 1.476,-0.467 1.731,-1.608 0.229,-1.031 0.419,-1.731 0.559,-1.977 h 1.146 c -0.178,0.32 -0.382,1.117 -0.662,2.271 -0.203,0.86 -0.598,1.449 -1.247,1.67"
         style="fill:#ffffff; xx=icccc-color(sRGB-IEC61966-2, 0.1, 1, 1, 1);fill-opacity:1;fill-rule:nonzero;stroke:none"
         transform="matrix(1.3333333,0,0,-1.3333333,556.2228,4365.8076)"
         clip-path="url(#clipPath2977)" />
      <path
         id="path2978"
         d="M 0,0 C 0.089,0.749 0.573,1.743 1.718,1.743 2.978,1.743 3.284,0.675 3.271,0 Z m 1.807,2.517 c -1.794,0 -2.889,-1.4 -2.889,-3.192 0,-1.792 1.133,-3.008 3.029,-3.008 0.98,0 1.667,0.209 2.062,0.381 L 3.805,-2.529 C 3.398,-2.701 2.902,-2.836 2.1,-2.836 c -1.133,0 -2.087,0.602 -2.113,2.062 h 4.327 c 0.026,0.123 0.038,0.283 0.038,0.504 0,1.092 -0.521,2.787 -2.545,2.787"
         style="fill:#ffffff; xx=icccc-color(sRGB-IEC61966-2, 0.1, 1, 1, 1);fill-opacity:1;fill-rule:nonzero;stroke:none"
         transform="matrix(1.3333333,0,0,-1.3333333,563.23027,4366.9368)"
         clip-path="url(#clipPath2979)" />
      <path
         id="path2980"
         d="m 0,0 c 0,-0.098 -0.013,-0.221 -0.051,-0.344 -0.178,-0.503 -0.7,-0.994 -1.514,-0.994 -0.56,0 -1.044,0.319 -1.044,1.031 0,1.154 1.387,1.363 2.609,1.338 z m 1.082,1.645 c 0,1.178 -0.458,2.418 -2.342,2.418 -0.776,0 -1.527,-0.209 -2.036,-0.516 l 0.254,-0.724 c 0.433,0.283 1.031,0.442 1.617,0.442 1.259,0.013 1.4,-0.884 1.4,-1.362 V 1.78 c -2.38,0.012 -3.704,-0.773 -3.704,-2.21 0,-0.859 0.636,-1.706 1.884,-1.706 0.878,0 1.54,0.417 1.883,0.884 h 0.038 l 0.09,-0.749 h 1.005 c -0.064,0.405 -0.089,0.908 -0.089,1.424 z"
         style="fill:#ffffff; xx=icccc-color(sRGB-IEC61966-2, 0.1, 1, 1, 1);fill-opacity:1;fill-rule:nonzero;stroke:none"
         transform="matrix(1.3333333,0,0,-1.3333333,575.20987,4368.9992)"
         clip-path="url(#clipPath2981)" />
      <path
         id="path2982"
         d="m 434.296,496.62 h 1.12 v 8.716 h -1.12 z"
         style="fill:#ffffff; xx=icccc-color(sRGB-IEC61966-2, 0.1, 1, 1, 1);fill-opacity:1;fill-rule:nonzero;stroke:none"
         transform="matrix(1.3333333,0,0,-1.3333333,0,5033.8267)"
         clip-path="url(#clipPath2983)" />
      <path
         id="path2984"
         d="M 0,0 H 3.322 V 0.884 H 0 V 3.499 H 3.525 V 4.395 H -1.12 v -8.274 h 4.836 v 0.896 H 0 Z"
         style="fill:#ffffff; xx=icccc-color(sRGB-IEC61966-2, 0.1, 1, 1, 1);fill-opacity:1;fill-rule:nonzero;stroke:none"
         transform="matrix(1.3333333,0,0,-1.3333333,588.19,4366.4949)"
         clip-path="url(#clipPath2985)" />
      <path
         id="path2986"
         d="m 0,0 c -0.802,0.307 -1.158,0.528 -1.158,1.019 0,0.442 0.356,0.81 1.018,0.81 0.573,0 1.018,-0.208 1.26,-0.356 l 0.267,0.786 c -0.331,0.208 -0.878,0.368 -1.502,0.368 -1.31,0 -2.125,-0.786 -2.125,-1.743 0,-0.712 0.522,-1.289 1.642,-1.682 0.814,-0.295 1.133,-0.564 1.133,-1.08 0,-0.503 -0.382,-0.884 -1.184,-0.884 -0.56,0 -1.145,0.221 -1.489,0.418 l -0.267,-0.811 c 0.433,-0.245 1.056,-0.417 1.731,-0.417 1.437,0 2.29,0.736 2.29,1.792 0,0.884 -0.56,1.4 -1.616,1.78"
         style="fill:#ffffff; xx=icccc-color(sRGB-IEC61966-2, 0.1, 1, 1, 1);fill-opacity:1;fill-rule:nonzero;stroke:none"
         transform="matrix(1.3333333,0,0,-1.3333333,597.65827,4367.0843)"
         clip-path="url(#clipPath2987)" />
      <path
         id="path2988"
         d="m 0,0 -1.095,-0.319 v -1.105 h -0.954 v -0.822 h 0.954 v -3.241 c 0,-0.7 0.128,-1.228 0.433,-1.559 0.267,-0.282 0.687,-0.454 1.209,-0.454 0.433,0 0.776,0.073 0.993,0.147 L 1.489,-6.531 C 1.323,-6.58 1.145,-6.604 0.84,-6.604 0.216,-6.604 0,-6.187 0,-5.45 v 3.204 h 1.603 v 0.822 H 0 Z"
         style="fill:#ffffff; xx=icccc-color(sRGB-IEC61966-2, 0.1, 1, 1, 1);fill-opacity:1;fill-rule:nonzero;stroke:none"
         transform="matrix(1.3333333,0,0,-1.3333333,603.52867,4361.8467)"
         clip-path="url(#clipPath2989)" />
      <path
         id="path2990"
         d="m 0,0 c 0,-0.098 -0.013,-0.221 -0.051,-0.344 -0.178,-0.503 -0.7,-0.994 -1.514,-0.994 -0.56,0 -1.044,0.319 -1.044,1.031 0,1.154 1.387,1.363 2.609,1.338 z m 1.082,1.645 c 0,1.178 -0.458,2.418 -2.342,2.418 -0.776,0 -1.527,-0.209 -2.036,-0.516 l 0.254,-0.724 c 0.433,0.283 1.031,0.442 1.617,0.442 1.259,0.013 1.4,-0.884 1.4,-1.362 V 1.78 c -2.38,0.012 -3.704,-0.773 -3.704,-2.21 0,-0.859 0.637,-1.706 1.884,-1.706 0.878,0 1.54,0.417 1.883,0.884 h 0.038 l 0.089,-0.749 h 1.006 c -0.064,0.405 -0.089,0.908 -0.089,1.424 z"
         style="fill:#ffffff; xx=icccc-color(sRGB-IEC61966-2, 0.1, 1, 1, 1);fill-opacity:1;fill-rule:nonzero;stroke:none"
         transform="matrix(1.3333333,0,0,-1.3333333,611.67373,4368.9992)"
         clip-path="url(#clipPath2991)" />
      <path
         id="path2992"
         d="m 0,0 -1.095,-0.319 v -1.105 h -0.954 v -0.822 h 0.954 v -3.241 c 0,-0.7 0.128,-1.228 0.433,-1.559 0.268,-0.282 0.687,-0.454 1.209,-0.454 0.433,0 0.776,0.073 0.993,0.147 L 1.489,-6.531 C 1.323,-6.58 1.145,-6.604 0.84,-6.604 0.217,-6.604 0,-6.187 0,-5.45 v 3.204 h 1.603 v 0.822 H 0 Z"
         style="fill:#ffffff; xx=icccc-color(sRGB-IEC61966-2, 0.1, 1, 1, 1);fill-opacity:1;fill-rule:nonzero;stroke:none"
         transform="matrix(1.3333333,0,0,-1.3333333,617.256,4361.8467)"
         clip-path="url(#clipPath2993)" />
      <path
         id="path2994"
         d="M 0,0 C 0.089,0.749 0.573,1.743 1.718,1.743 2.978,1.743 3.284,0.675 3.271,0 Z m 1.807,2.517 c -1.794,0 -2.889,-1.4 -2.889,-3.192 0,-1.792 1.133,-3.008 3.029,-3.008 0.98,0 1.667,0.209 2.062,0.381 L 3.805,-2.529 C 3.398,-2.701 2.902,-2.836 2.1,-2.836 c -1.133,0 -2.087,0.602 -2.113,2.062 h 4.327 c 0.026,0.123 0.038,0.283 0.038,0.504 0,1.092 -0.521,2.787 -2.545,2.787"
         style="fill:#ffffff; xx=icccc-color(sRGB-IEC61966-2, 0.1, 1, 1, 1);fill-opacity:1;fill-rule:nonzero;stroke:none"
         transform="matrix(1.3333333,0,0,-1.3333333,621.82027,4366.9368)"
         clip-path="url(#clipPath2995)" />
      <path
         id="path2996"
         d="m 0,0 c 0.713,0 1.311,-0.147 1.718,-0.344 l 0.28,0.872 c -0.293,0.147 -0.98,0.368 -2.036,0.368 -2.66,0 -4.48,-1.743 -4.48,-4.345 0,-2.725 1.807,-4.199 4.225,-4.199 1.044,0 1.871,0.197 2.265,0.393 l -0.216,0.86 c -0.445,-0.209 -1.132,-0.344 -1.82,-0.344 -2.074,0 -3.283,1.289 -3.283,3.326 C -3.347,-1.24 -2.011,0 0,0"
         style="fill:#ffffff; xx=icccc-color(sRGB-IEC61966-2, 0.1, 1, 1, 1);fill-opacity:1;fill-rule:nonzero;stroke:none"
         transform="matrix(1.3333333,0,0,-1.3333333,638.466,4361.6505)"
         clip-path="url(#clipPath2997)" />
      <path
         id="path2998"
         d="m 0,0 c -1.095,0 -1.858,0.982 -1.858,2.283 0,1.117 0.573,2.296 1.883,2.296 1.324,0 1.846,-1.265 1.846,-2.271 C 1.871,0.97 1.069,0 0,0 m 0.051,5.389 c -1.693,0 -3.055,-1.166 -3.055,-3.142 0,-1.879 1.299,-3.057 2.953,-3.057 1.476,0 3.067,0.957 3.067,3.155 0,1.804 -1.196,3.044 -2.965,3.044"
         style="fill:#ffffff; xx=icccc-color(sRGB-IEC61966-2, 0.1, 1, 1, 1);fill-opacity:1;fill-rule:nonzero;stroke:none"
         transform="matrix(1.3333333,0,0,-1.3333333,646.13533,4370.7671)"
         clip-path="url(#clipPath2999)" />
      <path
         id="path3000"
         d="M 0,0 2.538,-2.179 C 3.041,-2.621 3.615,-3.114 4.243,-3.642 L 4.93,-4.231 h 0.023 c 5.206,-4.285 13.634,-10.308 20.059,-10.474 0,0 -6.327,2.473 -13.051,10.474 H 59.783 L 49.715,4.844 H 2.515 C 2.515,4.844 -5.507,5.245 0,0"
         style="fill:#ffffff; xx=icccc-color(sRGB-IEC61966-2, 0.1, 1, 1, 1);fill-opacity:1;fill-rule:nonzero;stroke:none"
         transform="matrix(1.3333333,0,0,-1.3333333,570.48587,4303.046)"
         clip-path="url(#clipPath3001)" />
      <path
         id="path3002"
         d="m 0,0 -14.993,0.093 41.607,-37.692 14.994,-0.093 z"
         style="fill:#ffffff; xx=icccc-color(sRGB-IEC61966-2, 0.1, 1, 1, 1);fill-opacity:1;fill-rule:nonzero;stroke:none"
         transform="matrix(1.3333333,0,0,-1.3333333,534.65653,4276.6605)"
         clip-path="url(#clipPath3003)" />
      <path
         id="path3004"
         d="m 0,0 h -47.2 c 0,0 -8.022,0.401 -2.515,-4.844 0,0 14.86,-14.447 24.858,-14.705 0,0 -6.327,2.472 -13.051,10.474 h 47.976 z"
         style="fill:#ffffff; xx=icccc-color(sRGB-IEC61966-2, 0.1, 1, 1, 1);fill-opacity:1;fill-rule:nonzero;stroke:none"
         transform="matrix(1.3333333,0,0,-1.3333333,501.86493,4296.5871)"
         clip-path="url(#clipPath3005)" />
      <path
         id="path3006"
         d="M 0,0 -68.076,61.755 -83.907,61.574 -15.831,-0.181 Z"
         style="fill:#ffffff; xx=icccc-color(sRGB-IEC61966-2, 0.1, 1, 1, 1);fill-opacity:1;fill-rule:nonzero;stroke:none"
         transform="matrix(1.3333333,0,0,-1.3333333,564.02547,4326.6755)"
         clip-path="url(#clipPath3007)" />
      <path
         id="path3008"
         d="M 0,0 H 35.818 L 25.75,9.075 H -8.962 c 0,0 -4.175,1.659 -6.396,8.324 0,0 0.854,-15.637 15.358,-17.399"
         style="fill:#ffffff; xx=icccc-color(sRGB-IEC61966-2, 0.1, 1, 1, 1);fill-opacity:1;fill-rule:nonzero;stroke:none"
         transform="matrix(1.3333333,0,0,-1.3333333,587.2632,4292.9164)"
         clip-path="url(#clipPath3009)" />
      <path
         id="path3010"
         d="M 0,0 -0.109,0.237 0.154,0 H 35.972 L 25.904,9.075 H -8.962 c 0,0 -4.175,1.659 -6.396,8.324 0,0 0.854,-15.637 15.358,-17.399"
         style="fill:#ffffff; xx=icccc-color(sRGB-IEC61966-2, 0.1, 1, 1, 1);fill-opacity:1;fill-rule:nonzero;stroke:none"
         transform="matrix(1.3333333,0,0,-1.3333333,452.15,4292.9164)"
         clip-path="url(#clipPath3011)" />
      <path
         id="path3012"
         d="m 0,0 c 0,-3.13 2.63,-5.667 5.876,-5.667 3.245,0 5.875,2.537 5.875,5.667 0,3.13 -2.63,5.667 -5.875,5.667 C 2.63,5.667 0,3.13 0,0"
         style="fill:#ffffff; xx=icccc-color(sRGB-IEC61966-2, 0.1, 1, 1, 1);fill-opacity:1;fill-rule:nonzero;stroke:none"
         transform="matrix(1.3333333,0,0,-1.3333333,478.2936,4319.9276)"
         clip-path="url(#clipPath3013)" />
    </g>
  </g>
</svg>
