<?xml version="1.0" encoding="UTF-8" standalone="no"?>
<!-- Created with Inkscape (http://www.inkscape.org/) -->

<svg
   width="61.309856mm"
   height="32.139065mm"
   viewBox="0 0 61.309856 32.139065"
   version="1.1"
   id="svg1"
   inkscape:version="1.3.2 (091e20e, 2023-11-25, custom)"
   sodipodi:docname="partner2-mawjat.svg"
   xmlns:inkscape="http://www.inkscape.org/namespaces/inkscape"
   xmlns:sodipodi="http://sodipodi.sourceforge.net/DTD/sodipodi-0.dtd"
   xmlns="http://www.w3.org/2000/svg"
   xmlns:svg="http://www.w3.org/2000/svg">
  <sodipodi:namedview
     id="namedview1"
     pagecolor="#6a6a6a"
     bordercolor="#999999"
     borderopacity="1"
     inkscape:showpageshadow="2"
     inkscape:pageopacity="0"
     inkscape:pagecheckerboard="0"
     inkscape:deskcolor="#d1d1d1"
     inkscape:document-units="mm"
     inkscape:zoom="0.74920735"
     inkscape:cx="-366.38722"
     inkscape:cy="183.5273"
     inkscape:window-width="1920"
     inkscape:window-height="1017"
     inkscape:window-x="-8"
     inkscape:window-y="-8"
     inkscape:window-maximized="1"
     inkscape:current-layer="layer1" />
  <defs
     id="defs1">
    <clipPath
       clipPathUnits="userSpaceOnUse"
       id="clipPath2739">
      <path
         d="m 795.792,386.661 h 312.826 V 699.487 H 795.792 Z"
         transform="translate(-891.0955,-569.82914)"
         id="path2739" />
    </clipPath>
    <clipPath
       clipPathUnits="userSpaceOnUse"
       id="clipPath2741">
      <path
         d="m 795.792,386.661 h 312.826 V 699.487 H 795.792 Z"
         transform="translate(-880.44932,-569.82914)"
         id="path2741" />
    </clipPath>
    <clipPath
       clipPathUnits="userSpaceOnUse"
       id="clipPath2743">
      <path
         d="m 795.792,386.661 h 312.826 V 699.487 H 795.792 Z"
         transform="translate(-957.05035,-548.24871)"
         id="path2743" />
    </clipPath>
    <clipPath
       clipPathUnits="userSpaceOnUse"
       id="clipPath2745">
      <path
         d="m 795.792,386.661 h 312.826 V 699.487 H 795.792 Z"
         transform="translate(-992.48515,-543.59159)"
         id="path2745" />
    </clipPath>
    <clipPath
       clipPathUnits="userSpaceOnUse"
       id="clipPath2747">
      <path
         d="m 795.792,386.661 h 312.826 V 699.487 H 795.792 Z"
         transform="translate(-898.82852,-535.90529)"
         id="path2747" />
    </clipPath>
    <clipPath
       clipPathUnits="userSpaceOnUse"
       id="clipPath2749">
      <path
         d="m 795.792,386.661 h 312.826 V 699.487 H 795.792 Z"
         transform="translate(-900.07075,-577.18814)"
         id="path2749" />
    </clipPath>
    <clipPath
       clipPathUnits="userSpaceOnUse"
       id="clipPath2751">
      <path
         d="m 795.792,386.661 h 312.826 V 699.487 H 795.792 Z"
         transform="translate(-968.18665,-566.26259)"
         id="path2751" />
    </clipPath>
    <clipPath
       clipPathUnits="userSpaceOnUse"
       id="clipPath2753">
      <path
         d="m 795.792,386.661 h 312.826 V 699.487 H 795.792 Z"
         transform="translate(-1026.4479,-560.98491)"
         id="path2753" />
    </clipPath>
    <clipPath
       clipPathUnits="userSpaceOnUse"
       id="clipPath2755">
      <path
         d="m 795.792,386.661 h 312.826 V 699.487 H 795.792 Z"
         transform="translate(0,2.5e-5)"
         id="path2755" />
    </clipPath>
  </defs>
  <g
     inkscape:label="Layer 1"
     inkscape:groupmode="layer"
     id="layer1"
     transform="translate(-202.14167,-100.0125)">
    <g
       id="group-MC5"
       transform="matrix(0.26458333,0,0,0.26458333,-103.12003,-1024.2001)">
      <path
         id="path2738"
         d="M 0,0 C 2.535,0 4.658,2.123 4.658,4.71 4.658,7.295 2.535,9.366 0,9.366 -2.639,9.366 -4.708,7.295 -4.708,4.71 -4.708,2.123 -2.639,0 0,0"
         style="fill:#ffffff; xx=icccc-color(sRGB-IEC61966-2, 0.1, 1, 1, 1);fill-opacity:1;fill-rule:nonzero;stroke:none"
         transform="matrix(1.3333333,0,0,-1.3333333,1188.1273,4274.0545)"
         clip-path="url(#clipPath2739)" />
      <path
         id="path2740"
         d="M 0,0 C 2.535,0 4.658,2.123 4.658,4.71 4.658,7.295 2.535,9.366 0,9.366 -2.639,9.366 -4.708,7.295 -4.708,4.71 -4.708,2.123 -2.639,0 0,0"
         style="fill:#ffffff; xx=icccc-color(sRGB-IEC61966-2, 0.1, 1, 1, 1);fill-opacity:1;fill-rule:nonzero;stroke:none"
         transform="matrix(1.3333333,0,0,-1.3333333,1173.9324,4274.0545)"
         clip-path="url(#clipPath2741)" />
      <path
         id="path2742"
         d="m 0,0 c -2.639,0 -4.71,-2.069 -4.71,-4.656 0,-2.588 2.071,-4.71 4.71,-4.71 2.535,0 4.658,2.122 4.658,4.71 C 4.658,-2.069 2.535,0 0,0"
         style="fill:#ffffff; xx=icccc-color(sRGB-IEC61966-2, 0.1, 1, 1, 1);fill-opacity:1;fill-rule:nonzero;stroke:none"
         transform="matrix(1.3333333,0,0,-1.3333333,1276.0671,4302.8284)"
         clip-path="url(#clipPath2743)" />
      <path
         id="path2744"
         d="m 0,0 c 0,-2.587 -2.121,-4.708 -4.658,-4.708 -2.639,0 -4.708,2.121 -4.708,4.708 0,2.587 2.069,4.656 4.708,4.656 C -2.121,4.656 0,2.587 0,0"
         style="fill:#ffffff; xx=icccc-color(sRGB-IEC61966-2, 0.1, 1, 1, 1);fill-opacity:1;fill-rule:nonzero;stroke:none"
         transform="matrix(1.3333333,0,0,-1.3333333,1323.3135,4309.0379)"
         clip-path="url(#clipPath2745)" />
      <path
         id="path2746"
         d="M 0,0 C -3.883,0 -7.14,-2.071 -8.225,-6.368 -9.004,-2.123 -12.054,0 -16.974,0 c -3.674,0 -6.778,-1.864 -8.016,-5.641 v 4.914 h -7.608 v -0.624 h 2.53 c -2.115,-0.927 -2.53,-3.155 -2.53,-8.276 v -16.351 h -0.853 v -0.623 h 8.461 v 17.026 c 0,4.141 2.071,7.817 5.38,7.817 2.28,0 3.935,-1.353 3.935,-5.694 v -10.249 c 0,-5.123 0.407,-7.349 2.581,-8.277 h -2.581 v -0.623 h 7.659 v 17.026 c 0,4.141 2.011,7.817 5.329,7.817 2.323,0 3.986,-1.353 3.986,-5.694 v -10.249 c 0,-5.123 0.407,-7.349 2.53,-8.277 h -2.53 v -0.623 H 8.9 V -8.7 C 8.9,-2.902 5.693,0 0,0 m 32.442,-17.287 c 0,-4.349 -2.946,-6.827 -6.048,-6.827 -2.435,0 -5.746,1.81 -5.746,5.952 0,5.789 6.725,7.601 6.725,10.867 0,2.737 -5.901,3.05 -5.901,4.965 0,0.934 1.395,1.655 4.817,1.655 3.727,0 6.153,-0.928 6.153,-6.361 z m -6.153,17.235 c -3.83,0 -9.99,-0.831 -9.99,-3.518 0,-4.142 10.399,-1.654 10.399,-3.725 0,-2.852 -13.397,-4.662 -13.397,-13.353 0,-4.351 3.777,-6.473 8.38,-6.473 4.504,0 9.211,2.174 10.813,6.473 0.207,-3.104 0.831,-4.609 2.539,-5.33 h -2.539 v -0.623 h 7.608 V -8.7 c 0,6.577 -4.758,8.648 -13.813,8.648 m 90.291,-17.235 c 0,-4.349 -2.954,-6.827 -6.056,-6.827 -2.435,0 -5.744,1.81 -5.744,5.952 0,5.789 6.73,7.601 6.73,10.867 0,2.737 -5.9,3.05 -5.9,4.965 0,0.934 1.396,1.655 4.811,1.655 3.725,0 6.159,-0.928 6.159,-6.361 z m -6.159,17.235 c -3.831,0 -9.985,-0.831 -9.985,-3.518 0,-4.142 10.399,-1.654 10.399,-3.725 0,-2.852 -13.404,-4.662 -13.404,-13.353 0,-4.351 3.777,-6.473 8.387,-6.473 4.497,0 9.21,2.174 10.813,6.473 0.209,-3.104 0.826,-4.609 2.532,-5.33 h -2.532 v -0.623 h 7.608 V -8.7 c 0,6.577 -4.765,8.648 -13.818,8.648 M 79.64,-0.727 h -4.038 v -0.624 h 3.155 l -6.932,-21.939 -6.992,21.939 -0.194,0.624 h -7.905 v -0.624 h 3.185 C 57.38,-2.384 57.9,-4.713 59.14,-8.7 l 1.714,-5.328 -2.954,-9.314 -6.984,21.991 -0.252,0.624 h -7.741 l 0.236,-0.624 h 2.843 C 43.465,-2.384 43.983,-4.713 45.223,-8.7 l 5.693,-17.901 h 8.024 l -0.675,2.174 2.946,9.263 3.622,-11.437 h 8.022 l -0.675,2.174 7.297,23.076 z m 58.042,0 v 10.865 h -0.876 c -5.121,0 -3.831,-10.865 -8.283,-10.865 v -0.624 h 4.089 c -2.174,-0.927 -2.538,-3.155 -2.538,-8.276 v -16.351 h -1.551 v -0.623 h 9.159 v 25.25 h 2.59 v 0.624 z m -52.46,0 v -0.624 h 2.591 c -2.177,-0.927 -2.591,-3.155 -2.591,-8.276 l 0.14,-14.591 c 0.987,-14.793 -13.627,-8.366 -13.619,-8.366 v -5.366 c 1.38,0 19.356,-3.874 21.071,11.565 l 0.067,25.658 z"
         style="fill:#ffffff; xx=icccc-color(sRGB-IEC61966-2, 0.1, 1, 1, 1);fill-opacity:1;fill-rule:nonzero;stroke:none"
         transform="matrix(1.3333333,0,0,-1.3333333,1198.438,4319.2863)"
         clip-path="url(#clipPath2747)" />
      <path
         id="path2748"
         d="M 0,0 H 2.53 C 0.408,-0.934 0,-3.162 0,-8.283 v -6.555 c 0,-4.149 -1.506,-5.558 -3.667,-5.684 H -19.8 c -7.867,0 -15.862,6.931 -9.278,18.348 l -2.708,1.573 c -3.748,-6.451 -7.297,-24.954 11.637,-24.954 h 18.85 c 5.693,0 8.907,2.902 8.907,8.7 V 0.617 H 0 Z"
         style="fill:#ffffff; xx=icccc-color(sRGB-IEC61966-2, 0.1, 1, 1, 1);fill-opacity:1;fill-rule:nonzero;stroke:none"
         transform="matrix(1.3333333,0,0,-1.3333333,1200.0943,4264.2425)"
         clip-path="url(#clipPath2749)" />
      <path
         id="path2750"
         d="M 0,0 C -2.123,5.573 -3.021,11.86 -10.287,11.86 H -20.33 V -0.378 h 0.706 v 2.665 h 9.515 c 9.575,0 8.81,-7.023 16.373,-9.382 l -54.175,-0.023 c -6.264,0 -6.761,2.517 -6.761,8.297 v 21.184 h -1.387 V 1.179 c 0,-10.687 2.976,-15.808 9.9,-15.808 L 3.518,-14.71 c 5.848,0 8.387,0.475 9.456,3.131 v -3.131 h 0.705 v 7.615 H 10.577 C 3.437,-7.104 0.468,-1.232 0,0"
         style="fill:#ffffff; xx=icccc-color(sRGB-IEC61966-2, 0.1, 1, 1, 1);fill-opacity:1;fill-rule:nonzero;stroke:none"
         transform="matrix(1.3333333,0,0,-1.3333333,1290.9155,4278.8099)"
         clip-path="url(#clipPath2751)" />
      <path
         id="path2752"
         d="m 0,0 c -6.406,0 -9.33,1.715 -9.33,4.335 v 0.326 c 0.045,3.742 4.758,6.22 9.33,6.22 4.907,0 9.485,-2.814 9.53,-6.145 V 4.639 C 9.53,1.283 7.095,0 0,0 m -22.431,0.207 c 0,-4.342 -2.953,-6.827 -6.055,-6.827 -2.435,0 -5.746,1.81 -5.746,5.951 0,5.797 6.733,7.609 6.733,10.868 0,2.746 -5.9,3.05 -5.9,4.965 0,0.935 1.395,1.655 4.808,1.655 3.727,0 6.16,-0.928 6.16,-6.361 z M 0,17.19 c -14.221,0 -6.161,-19.097 -16.567,-19.097 h -2.352 v 10.71 c 0,6.568 -0.617,8.639 -9.672,8.639 -3.829,0 -9.983,-0.824 -9.983,-3.518 0,-4.142 10.399,-1.655 10.399,-3.725 0,-2.843 -13.404,-4.655 -13.404,-13.353 0,-4.342 3.777,-6.465 8.387,-6.465 4.497,0 9.211,2.175 10.814,6.465 0.008,-0.179 0.029,-0.342 0.045,-0.513 0,-0.007 -0.007,-0.007 -0.007,-0.015 -0.298,-6.582 -5.056,-9.047 -9.576,-9.886 v -7.683 c 5.486,0.461 11.847,2.911 12.826,11.772 2.361,0 4.639,0.95 6.206,2.71 0.986,1.099 2.032,2.612 2.931,4.698 3.77,-10.465 20.879,-11.119 20.879,6.904 0,0 -0.632,12.357 -10.926,12.357"
         style="fill:#ffffff; xx=icccc-color(sRGB-IEC61966-2, 0.1, 1, 1, 1);fill-opacity:1;fill-rule:nonzero;stroke:none"
         transform="matrix(1.3333333,0,0,-1.3333333,1368.5972,4285.8468)"
         clip-path="url(#clipPath2753)" />
      <path
         id="path2754"
         d="m 994.533,541.236 h 0.705 v -3.002 h -0.705 z"
         style="fill:#ffffff; xx=icccc-color(sRGB-IEC61966-2, 0.1, 1, 1, 1);fill-opacity:1;fill-rule:nonzero;stroke:none"
         transform="matrix(1.3333333,0,0,-1.3333333,0,5033.8267)"
         clip-path="url(#clipPath2755)" />
    </g>
  </g>
</svg>
