<?xml version="1.0" encoding="UTF-8" standalone="no"?>
<!-- Created with Inkscape (http://www.inkscape.org/) -->

<svg
   width="42.638062mm"
   height="32.169136mm"
   viewBox="0 0 42.638062 32.169136"
   version="1.1"
   id="svg1"
   inkscape:version="1.3.2 (091e20e, 2023-11-25, custom)"
   sodipodi:docname="partner2-infaz.svg"
   xmlns:inkscape="http://www.inkscape.org/namespaces/inkscape"
   xmlns:sodipodi="http://sodipodi.sourceforge.net/DTD/sodipodi-0.dtd"
   xmlns="http://www.w3.org/2000/svg"
   xmlns:svg="http://www.w3.org/2000/svg">
  <sodipodi:namedview
     id="namedview1"
     pagecolor="#4f4f4f"
     bordercolor="#999999"
     borderopacity="1"
     inkscape:showpageshadow="2"
     inkscape:pageopacity="0"
     inkscape:pagecheckerboard="0"
     inkscape:deskcolor="#d1d1d1"
     inkscape:document-units="mm"
     inkscape:zoom="0.74920735"
     inkscape:cx="-418.44224"
     inkscape:cy="204.8832"
     inkscape:window-width="1920"
     inkscape:window-height="1017"
     inkscape:window-x="-8"
     inkscape:window-y="-8"
     inkscape:window-maximized="1"
     inkscape:current-layer="layer1" />
  <defs
     id="defs1">
    <clipPath
       clipPathUnits="userSpaceOnUse"
       id="clipPath2713">
      <path
         d="m 1134.94,434.297 h 217.554 V 651.851 H 1134.94 Z"
         transform="translate(-1198.6014,-573.75824)"
         id="path2713" />
    </clipPath>
    <clipPath
       clipPathUnits="userSpaceOnUse"
       id="clipPath2715">
      <path
         d="m 1134.94,434.297 h 217.554 V 651.851 H 1134.94 Z"
         transform="translate(-1195.8978,-581.30061)"
         id="path2715" />
    </clipPath>
    <clipPath
       clipPathUnits="userSpaceOnUse"
       id="clipPath2717">
      <path
         d="m 1134.94,434.297 h 217.554 V 651.851 H 1134.94 Z"
         transform="translate(-1254.6177,-581.30061)"
         id="path2717" />
    </clipPath>
    <clipPath
       clipPathUnits="userSpaceOnUse"
       id="clipPath2719">
      <path
         d="m 1134.94,434.297 h 217.554 V 651.851 H 1134.94 Z"
         transform="translate(-1287.3301,-588.66801)"
         id="path2719" />
    </clipPath>
    <clipPath
       clipPathUnits="userSpaceOnUse"
       id="clipPath2721">
      <path
         d="m 1134.94,434.297 h 217.554 V 651.851 H 1134.94 Z"
         transform="translate(-1284.0193,-549.70484)"
         id="path2721" />
    </clipPath>
    <clipPath
       clipPathUnits="userSpaceOnUse"
       id="clipPath2723">
      <path
         d="m 1134.94,434.297 h 217.554 V 651.851 H 1134.94 Z"
         transform="translate(0,2.5e-5)"
         id="path2723" />
    </clipPath>
    <clipPath
       clipPathUnits="userSpaceOnUse"
       id="clipPath2725">
      <path
         d="m 1134.94,434.297 h 217.554 V 651.851 H 1134.94 Z"
         transform="translate(-1206.6612,-520.04834)"
         id="path2725" />
    </clipPath>
    <clipPath
       clipPathUnits="userSpaceOnUse"
       id="clipPath2727">
      <path
         d="m 1134.94,434.297 h 217.554 V 651.851 H 1134.94 Z"
         transform="translate(-1222.5849,-521.58914)"
         id="path2727" />
    </clipPath>
    <clipPath
       clipPathUnits="userSpaceOnUse"
       id="clipPath2729">
      <path
         d="m 1134.94,434.297 h 217.554 V 651.851 H 1134.94 Z"
         transform="translate(-1248.7489,-520.04819)"
         id="path2729" />
    </clipPath>
    <clipPath
       clipPathUnits="userSpaceOnUse"
       id="clipPath2731">
      <path
         d="m 1134.94,434.297 h 217.554 V 651.851 H 1134.94 Z"
         transform="translate(-1269.2838,-525.86991)"
         id="path2731" />
    </clipPath>
    <clipPath
       clipPathUnits="userSpaceOnUse"
       id="clipPath2733">
      <path
         d="m 1134.94,434.297 h 217.554 V 651.851 H 1134.94 Z"
         transform="translate(-1294.8207,-520.04834)"
         id="path2733" />
    </clipPath>
    <clipPath
       clipPathUnits="userSpaceOnUse"
       id="clipPath2735">
      <path
         d="m 1134.94,434.297 h 217.554 V 651.851 H 1134.94 Z"
         transform="translate(0,2.5e-5)"
         id="path2735" />
    </clipPath>
    <clipPath
       clipPathUnits="userSpaceOnUse"
       id="clipPath2737">
      <path
         d="m 1134.94,434.297 h 217.554 V 651.851 H 1134.94 Z"
         transform="translate(-1300.8702,-535.97571)"
         id="path2737" />
    </clipPath>
  </defs>
  <g
     inkscape:label="Layer 1"
     inkscape:groupmode="layer"
     id="layer1"
     transform="translate(-215.6354,-94.456236)">
    <g
       id="group-MC4"
       transform="matrix(0.26458333,0,0,0.26458333,-201.80136,-1029.7414)">
      <path
         id="path2712"
         d="m 0,0 h -9.896 v -6.215 h 8.342 c 5.472,0 7.771,-2.501 7.771,-7.502 v -10.337 h -21.533 v -6.217 h 28.222 v 16.96 C 12.906,-4.796 8.988,0 0,0"
         style="fill:#ffffff; xx=icccc-color(sRGB-IEC61966-2, 0.1, 1, 1, 1);fill-opacity:1;fill-rule:nonzero;stroke:none"
         transform="matrix(1.3333333,0,0,-1.3333333,1598.1351,4268.8157)"
         clip-path="url(#clipPath2713)" />
      <path
         id="path2714"
         d="M 0,0 C 2.029,0 3.65,1.69 3.65,3.65 3.65,5.677 2.029,7.365 0,7.365 -1.958,7.365 -3.648,5.677 -3.648,3.65 -3.648,1.69 -1.958,0 0,0"
         style="fill:#ffffff; xx=icccc-color(sRGB-IEC61966-2, 0.1, 1, 1, 1);fill-opacity:1;fill-rule:nonzero;stroke:none"
         transform="matrix(1.3333333,0,0,-1.3333333,1594.5303,4258.7592)"
         clip-path="url(#clipPath2715)" />
      <path
         id="path2716"
         d="M 0,0 C 2.027,0 3.648,1.69 3.648,3.65 3.648,5.677 2.027,7.365 0,7.365 -1.96,7.365 -3.648,5.677 -3.648,3.65 -3.648,1.69 -1.96,0 0,0"
         style="fill:#ffffff; xx=icccc-color(sRGB-IEC61966-2, 0.1, 1, 1, 1);fill-opacity:1;fill-rule:nonzero;stroke:none"
         transform="matrix(1.3333333,0,0,-1.3333333,1672.8235,4258.7592)"
         clip-path="url(#clipPath2717)" />
      <path
         id="path2718"
         d="m 0,0 c -1.96,0 -3.648,-1.692 -3.648,-3.717 0,-1.96 1.688,-3.648 3.648,-3.648 2.027,0 3.648,1.688 3.648,3.648 C 3.648,-1.692 2.027,0 0,0"
         style="fill:#ffffff; xx=icccc-color(sRGB-IEC61966-2, 0.1, 1, 1, 1);fill-opacity:1;fill-rule:nonzero;stroke:none"
         transform="matrix(1.3333333,0,0,-1.3333333,1716.4401,4248.936)"
         clip-path="url(#clipPath2719)" />
      <path
         id="path2720"
         d="m 0,0 h -16.362 v 24.053 h -14.526 c -9.123,0 -13.108,-5.066 -13.108,-13.716 L -43.996,0 H -54.21 c -3.242,0 -4.729,1.351 -4.729,4.865 V 38.851 H -65.63 V 5.608 c 0,-8.244 2.771,-11.825 11.757,-11.825 H 6.622 v 30.27 H 0 Z m -23.117,0 h -14.19 v 9.729 c 0,5.407 2.297,8.109 7.838,8.109 h 6.352 z"
         style="fill:#ffffff; xx=icccc-color(sRGB-IEC61966-2, 0.1, 1, 1, 1);fill-opacity:1;fill-rule:nonzero;stroke:none"
         transform="matrix(1.3333333,0,0,-1.3333333,1712.0257,4300.8869)"
         clip-path="url(#clipPath2721)" />
      <path
         id="path2722"
         d="m 1297.46,543.487 h 6.689 v 45.07 h -6.689 z"
         style="fill:#ffffff; xx=icccc-color(sRGB-IEC61966-2, 0.1, 1, 1, 1);fill-opacity:1;fill-rule:nonzero;stroke:none"
         transform="matrix(1.3333333,0,0,-1.3333333,0,5033.8267)"
         clip-path="url(#clipPath2723)" />
      <path
         id="path2724"
         d="m 0,0 h -11.519 v -22.568 h 5.195 V -4.24 h 5.506 c 3.517,0 4.952,-1.434 4.952,-4.953 v -13.375 h 5.197 v 13.24 C 9.331,-2.878 6.453,0 0,0"
         style="fill:#ffffff; xx=icccc-color(sRGB-IEC61966-2, 0.1, 1, 1, 1);fill-opacity:1;fill-rule:nonzero;stroke:none"
         transform="matrix(1.3333333,0,0,-1.3333333,1608.8815,4340.4289)"
         clip-path="url(#clipPath2725)" />
      <path
         id="path2726"
         d="m 0,0 v -1.541 h -3.548 v -4.15 H 0 v -18.418 h 5.195 v 18.418 h 7.05 v 4.15 h -7.05 v 1.403 c 0,1.979 0.701,2.678 2.68,2.678 h 4.37 V 6.644 H 6.647 C 1.925,6.644 0,4.718 0,0"
         style="fill:#ffffff; xx=icccc-color(sRGB-IEC61966-2, 0.1, 1, 1, 1);fill-opacity:1;fill-rule:nonzero;stroke:none"
         transform="matrix(1.3333333,0,0,-1.3333333,1630.1131,4338.3745)"
         clip-path="url(#clipPath2727)" />
      <path
         id="path2728"
         d="m 0,0 h -10.557 v -4.15 h 10.465 c 2.716,0 3.633,-0.926 3.633,-3.679 v -0.54 h -8.364 c -4.445,0 -7.101,-2.653 -7.101,-7.1 0,-4.446 2.656,-7.099 7.101,-7.099 H 8.736 v 13.83 C 8.736,-2.532 6.206,0 0,0 m 3.587,-12.473 v -5.993 H -3.64 c -1.988,0 -2.997,1.009 -2.997,2.997 0,1.988 1.009,2.996 2.997,2.996 z"
         style="fill:#ffffff; xx=icccc-color(sRGB-IEC61966-2, 0.1, 1, 1, 1);fill-opacity:1;fill-rule:nonzero;stroke:none"
         transform="matrix(1.3333333,0,0,-1.3333333,1664.9985,4340.4291)"
         clip-path="url(#clipPath2729)" />
      <path
         id="path2730"
         d="m 0,0 h -5.198 v -5.821 h -3.545 v -4.151 h 3.545 v -11.774 c 0,-4.721 1.925,-6.644 6.647,-6.644 h 6.192 v 4.148 H 2.677 C 0.701,-24.242 0,-23.54 0,-21.564 v 11.592 h 7.649 v 4.151 H 0 Z"
         style="fill:#ffffff; xx=icccc-color(sRGB-IEC61966-2, 0.1, 1, 1, 1);fill-opacity:1;fill-rule:nonzero;stroke:none"
         transform="matrix(1.3333333,0,0,-1.3333333,1692.3784,4332.6668)"
         clip-path="url(#clipPath2731)" />
      <path
         id="path2732"
         d="m 0,0 h -6.09 v 8.185 h -5.196 V -22.568 H -6.09 V -4.24 h 5.272 c 3.514,0 4.951,-1.434 4.951,-4.953 v -13.375 h 5.195 v 13.24 C 9.328,-2.878 6.451,0 0,0"
         style="fill:#ffffff; xx=icccc-color(sRGB-IEC61966-2, 0.1, 1, 1, 1);fill-opacity:1;fill-rule:nonzero;stroke:none"
         transform="matrix(1.3333333,0,0,-1.3333333,1726.4275,4340.4289)"
         clip-path="url(#clipPath2733)" />
      <path
         id="path2734"
         d="m 1183.286,497.623 h 5.207 v 30.61 h -5.207 z"
         style="fill:#ffffff; xx=icccc-color(sRGB-IEC61966-2, 0.1, 1, 1, 1);fill-opacity:1;fill-rule:nonzero;stroke:none"
         transform="matrix(1.3333333,0,0,-1.3333333,0,5033.8267)"
         clip-path="url(#clipPath2735)" />
      <path
         id="path2736"
         d="M 0,0 V 1.391 C 0,2.054 0.236,2.278 0.935,2.278 H 2.376 V 4.281 H 0.658 c -1.795,0 -2.745,-0.974 -2.745,-2.817 V 0 H -3.41 V -2.003 H 3.279 V 0 Z"
         style="fill:#ffffff; xx=icccc-color(sRGB-IEC61966-2, 0.1, 1, 1, 1);fill-opacity:1;fill-rule:nonzero;stroke:none"
         transform="matrix(1.3333333,0,0,-1.3333333,1734.4935,4319.1924)"
         clip-path="url(#clipPath2737)" />
    </g>
  </g>
</svg>
