<?xml version="1.0" encoding="UTF-8" standalone="no"?>
<!-- Created with Inkscape (http://www.inkscape.org/) -->

<svg
   width="60.713989mm"
   height="19.226112mm"
   viewBox="0 0 60.713989 19.226112"
   version="1.1"
   id="svg1"
   inkscape:version="1.3.2 (091e20e, 2023-11-25, custom)"
   sodipodi:docname="partner2-bank-belad.svg"
   xmlns:inkscape="http://www.inkscape.org/namespaces/inkscape"
   xmlns:sodipodi="http://sodipodi.sourceforge.net/DTD/sodipodi-0.dtd"
   xmlns="http://www.w3.org/2000/svg"
   xmlns:svg="http://www.w3.org/2000/svg">
  <sodipodi:namedview
     id="namedview1"
     pagecolor="#525252"
     bordercolor="#999999"
     borderopacity="1"
     inkscape:showpageshadow="2"
     inkscape:pageopacity="0"
     inkscape:pagecheckerboard="0"
     inkscape:deskcolor="#d1d1d1"
     inkscape:document-units="mm"
     inkscape:zoom="0.74920735"
     inkscape:cx="403.76005"
     inkscape:cy="115.45535"
     inkscape:window-width="1920"
     inkscape:window-height="1017"
     inkscape:window-x="-8"
     inkscape:window-y="-8"
     inkscape:window-maximized="1"
     inkscape:current-layer="layer1" />
  <defs
     id="defs1">
    <clipPath
       clipPathUnits="userSpaceOnUse"
       id="clipPath2673">
      <path
         d="m 1352.495,386.661 h 312.826 v 312.826 h -312.826 z"
         transform="translate(-1490.4051,-555.17519)"
         id="path2673" />
    </clipPath>
    <clipPath
       clipPathUnits="userSpaceOnUse"
       id="clipPath2675">
      <path
         d="m 1352.495,386.661 h 312.826 v 312.826 h -312.826 z"
         transform="translate(-1427.3757,-546.69441)"
         id="path2675" />
    </clipPath>
    <clipPath
       clipPathUnits="userSpaceOnUse"
       id="clipPath2677">
      <path
         d="m 1352.495,386.661 h 312.826 v 312.826 h -312.826 z"
         transform="translate(-1526.0626,-547.31024)"
         id="path2677" />
    </clipPath>
    <clipPath
       clipPathUnits="userSpaceOnUse"
       id="clipPath2679">
      <path
         d="m 1352.495,386.661 h 312.826 v 312.826 h -312.826 z"
         transform="translate(-1516.4026,-558.79409)"
         id="path2679" />
    </clipPath>
    <clipPath
       clipPathUnits="userSpaceOnUse"
       id="clipPath2681">
      <path
         d="m 1352.495,386.661 h 312.826 v 312.826 h -312.826 z"
         transform="translate(-1520.7765,-543.35894)"
         id="path2681" />
    </clipPath>
    <clipPath
       clipPathUnits="userSpaceOnUse"
       id="clipPath2683">
      <path
         d="m 1352.495,386.661 h 312.826 v 312.826 h -312.826 z"
         transform="translate(-1472.9217,-543.14054)"
         id="path2683" />
    </clipPath>
    <clipPath
       clipPathUnits="userSpaceOnUse"
       id="clipPath2685">
      <path
         d="m 1352.495,386.661 h 312.826 v 312.826 h -312.826 z"
         transform="translate(-1586.5536,-577.81274)"
         id="path2685" />
    </clipPath>
    <clipPath
       clipPathUnits="userSpaceOnUse"
       id="clipPath2687">
      <path
         d="m 1352.495,386.661 h 312.826 v 312.826 h -312.826 z"
         transform="translate(-1560.217,-552.02579)"
         id="path2687" />
    </clipPath>
    <clipPath
       clipPathUnits="userSpaceOnUse"
       id="clipPath2689">
      <path
         d="m 1352.495,386.661 h 312.826 v 312.826 h -312.826 z"
         transform="translate(-1431.5736,-526.59081)"
         id="path2689" />
    </clipPath>
    <clipPath
       clipPathUnits="userSpaceOnUse"
       id="clipPath2691">
      <path
         d="m 1352.495,386.661 h 312.826 v 312.826 h -312.826 z"
         transform="translate(-1442.3176,-527.34884)"
         id="path2691" />
    </clipPath>
    <clipPath
       clipPathUnits="userSpaceOnUse"
       id="clipPath2693">
      <path
         d="m 1352.495,386.661 h 312.826 v 312.826 h -312.826 z"
         transform="translate(-1451.6796,-534.23661)"
         id="path2693" />
    </clipPath>
    <clipPath
       clipPathUnits="userSpaceOnUse"
       id="clipPath2695">
      <path
         d="m 1352.495,386.661 h 312.826 v 312.826 h -312.826 z"
         transform="translate(-1466.3914,-533.99129)"
         id="path2695" />
    </clipPath>
    <clipPath
       clipPathUnits="userSpaceOnUse"
       id="clipPath2697">
      <path
         d="m 1352.495,386.661 h 312.826 v 312.826 h -312.826 z"
         transform="translate(-1474.4382,-529.57791)"
         id="path2697" />
    </clipPath>
    <clipPath
       clipPathUnits="userSpaceOnUse"
       id="clipPath2699">
      <path
         d="m 1352.495,386.661 h 312.826 v 312.826 h -312.826 z"
         transform="translate(0,2.5e-5)"
         id="path2699" />
    </clipPath>
    <clipPath
       clipPathUnits="userSpaceOnUse"
       id="clipPath2701">
      <path
         d="m 1352.495,386.661 h 312.826 v 312.826 h -312.826 z"
         transform="translate(-1495.6476,-526.12289)"
         id="path2701" />
    </clipPath>
    <clipPath
       clipPathUnits="userSpaceOnUse"
       id="clipPath2703">
      <path
         d="m 1352.495,386.661 h 312.826 v 312.826 h -312.826 z"
         transform="translate(0,2.5e-5)"
         id="path2703" />
    </clipPath>
    <clipPath
       clipPathUnits="userSpaceOnUse"
       id="clipPath2705">
      <path
         d="m 1352.495,386.661 h 312.826 v 312.826 h -312.826 z"
         transform="translate(0,2.5e-5)"
         id="path2705" />
    </clipPath>
    <clipPath
       clipPathUnits="userSpaceOnUse"
       id="clipPath2707">
      <path
         d="m 1352.495,386.661 h 312.826 v 312.826 h -312.826 z"
         transform="translate(0,2.5e-5)"
         id="path2707" />
    </clipPath>
    <clipPath
       clipPathUnits="userSpaceOnUse"
       id="clipPath2709">
      <path
         d="m 1352.495,386.661 h 312.826 v 312.826 h -312.826 z"
         transform="translate(-1515.0069,-527.34884)"
         id="path2709" />
    </clipPath>
    <clipPath
       clipPathUnits="userSpaceOnUse"
       id="clipPath2711">
      <path
         d="m 1352.495,386.661 h 312.826 v 312.826 h -312.826 z"
         transform="translate(-1526.3973,-527.99534)"
         id="path2711" />
    </clipPath>
  </defs>
  <g
     inkscape:label="Layer 1"
     inkscape:groupmode="layer"
     id="layer1"
     transform="translate(919.42705,-347.92703)">
    <g
       id="group-MC3"
       transform="matrix(0.26458333,0,0,0.26458333,-1421.6771,-780.09982)">
      <path
         id="path2672"
         d="M 0,0 H 0.009 C 2.092,-0.081 4.374,0 5.539,1.83 5.801,2.227 6.477,3.551 6.477,3.977 5.76,4.679 4.741,4.791 4.408,5.213 l 1.33,1.208 0.245,1.102 C 5.91,7.64 3.129,5.561 3.143,3.977 V 3.836 C 3.115,3.116 5.24,2.441 5.24,2.441 4.823,1.92 0.896,0.248 0,0"
         style="fill:#ffffff; xx=icccc-color(sRGB-IEC61966-2, 0.1, 1, 1, 1);fill-opacity:1;fill-rule:nonzero;stroke:none"
         transform="matrix(1.3333333,0,0,-1.3333333,1987.2067,4293.5931)"
         clip-path="url(#clipPath2673)" />
      <path
         id="path2674"
         d="m 0,0 c 3.556,0.051 11.078,3.637 13.637,4.942 0.867,0.434 0.872,1.73 0.879,2.327 0.01,1.182 -0.131,1.944 -0.706,2.836 -1.294,1.757 -3.994,3.758 -7.6,7.694 0,0 -1.775,1.78 -2.822,2.918 L 3.007,18.12 C 5.015,15.395 8.801,11.558 13.307,7.768 L 13.03,7.369 V 7.364 C 10.2,5.96 3.025,2.871 0.295,2.831 c -4.207,-0.068 -2.6,5.498 -2.257,6.467 0,0 0.127,0.39 -0.068,0.49 C -2.822,7.944 -6.236,-0.076 0,0"
         style="fill:#ffffff; xx=icccc-color(sRGB-IEC61966-2, 0.1, 1, 1, 1);fill-opacity:1;fill-rule:nonzero;stroke:none"
         transform="matrix(1.3333333,0,0,-1.3333333,1903.1676,4304.9008)"
         clip-path="url(#clipPath2675)" />
      <path
         id="path2676"
         d="m 0,0 c 1.599,0.371 2.146,3.814 2.146,5.086 0,1.799 -1.015,3.375 -2.109,4.734 L -0.122,9.996 C -0.392,9.14 -0.622,8.31 -0.875,7.45 -0.004,6.228 0.95,4.901 1.051,3.37 0.941,2.401 -1.545,2.057 -3.511,2.021 l -0.008,-0.01 c -4.873,0.01 -4.376,2.935 -4.339,4.176 -0.013,-0.041 -2.305,-4.04 -5.75,-4.04 -3.96,0.199 -5.216,2.677 -5.29,4.415 -0.048,5.671 -4.918,7.886 -9.156,14.173 l -0.128,0.19 -1.518,2.364 c 0.702,0.672 17.665,4.353 20.642,4.951 h 0.003 c 0.626,0.09 1.17,-0.049 0.722,-1.649 -0.513,-1.785 -2.435,-6.507 -3.281,-8.719 1.817,2.909 6.397,12.805 4.289,12.629 -3.467,-0.626 -20.581,-4.554 -22.994,-5.531 -0.236,-0.409 -0.644,-3.483 -0.441,-3.636 3.585,-5.839 8.769,-10.3 10.166,-12.764 0.286,-0.489 0.398,-0.984 0.345,-1.124 -1.339,-3.215 -12.59,-5.613 -16.195,-5.613 -0.61,0 -1.376,0.024 -2.169,0.1 4.733,7.488 -6.858,22.127 -9.511,26.443 -0.824,1.25 -1.16,1.826 -1.16,1.826 l -1.024,-2.179 c 0.459,-2.459 1.572,-19.195 1.586,-20.374 0.008,-1.398 0.045,-1.435 0.042,-3.098 0,-2.141 -4.037,-2.06 -4.559,-1.987 -1.417,0.263 -2.083,3.192 -2.165,5.19 -4.75,-6.141 -10.207,-5.733 -10.236,-5.733 -5.203,0.584 -5.393,7.49 -5.56,11.557 -0.052,1.355 -0.019,13.036 -0.286,16.777 0,0 -1.589,-2.279 -1.698,-2.654 0,-1.105 0.438,-12.143 0.611,-15.358 0.189,-3.348 -0.648,-6.446 -3.579,-9.017 0.146,0.18 0.552,1.294 0.59,1.706 0.535,5.888 -6.483,11.708 -11.053,18.447 l -0.143,0.196 c 0,0 -1.949,3.287 -2.37,3.849 -0.235,-0.571 -0.57,-1.933 -0.688,-2.766 5.887,-9.879 13.474,-15.515 13.076,-20.428 -0.083,-0.974 -0.207,-1.359 -0.806,-1.947 -2.749,-2.369 -5.72,-3.86 -9.061,-5.259 h 0.509 c 2.513,-0.09 6.935,0.942 8.915,2.387 2.825,2.06 4.818,5.838 5.312,8.162 l 0.032,0.131 0.019,-0.118 c 0.258,-3.135 0.242,-6.898 4.735,-8.03 3.358,-0.848 6.387,0.617 8.439,2.079 1.676,1.196 2.699,2.396 2.699,2.327 0,-1.776 0.38,-3.137 1.25,-3.668 1.464,-0.883 3.524,-0.47 3.524,-0.47 4.82,0.829 4.108,6.592 4.108,9.257 0,3.333 -1.099,14.239 -1.237,15.861 2.42,-3.836 12.244,-16.871 8.326,-22.936 -1.224,0.222 -2.379,0.612 -3.058,1.31 0,0.039 -1.431,1.063 -1.418,2.889 0.014,2.46 1.805,4.824 1.805,4.824 -1.918,-1.654 -2.95,-5.041 -2.95,-6.228 0,-2.817 1.761,-4.38 4.044,-5.069 -1.109,-1.282 -1.309,-1.567 -2.025,-2.31 1.218,0.626 2.23,1.319 3.054,2.062 0.689,-0.123 1.398,-0.181 2.106,-0.181 9.339,0 17.348,3.605 18.561,6.558 -0.09,-7.414 7.183,-6.129 7.183,-6.129 2.578,0.426 3.49,1.718 4.313,2.736 L -8.346,2.532 C -7.156,-2.051 -0.063,0 0,0"
         style="fill:#ffffff; xx=icccc-color(sRGB-IEC61966-2, 0.1, 1, 1, 1);fill-opacity:1;fill-rule:nonzero;stroke:none"
         transform="matrix(1.3333333,0,0,-1.3333333,2034.7501,4304.0797)"
         clip-path="url(#clipPath2677)" />
      <path
         id="path2678"
         d="M 0,0 V -0.236 L 2.164,-1.784 3.365,-0.217 3.379,0.081 1.246,1.653 Z"
         style="fill:#ffffff; xx=icccc-color(sRGB-IEC61966-2, 0.1, 1, 1, 1);fill-opacity:1;fill-rule:nonzero;stroke:none"
         transform="matrix(1.3333333,0,0,-1.3333333,2021.8701,4288.7679)"
         clip-path="url(#clipPath2679)" />
      <path
         id="path2680"
         d="M 0,0 V -0.236 L 2.17,-1.781 3.369,-0.218 3.383,0.076 1.246,1.653 Z"
         style="fill:#ffffff; xx=icccc-color(sRGB-IEC61966-2, 0.1, 1, 1, 1);fill-opacity:1;fill-rule:nonzero;stroke:none"
         transform="matrix(1.3333333,0,0,-1.3333333,2027.7019,4309.3481)"
         clip-path="url(#clipPath2681)" />
      <path
         id="path2682"
         d="m 0,0 0.014,0.295 -2.125,1.577 -1.25,-1.654 v -0.235 l 2.17,-1.545 z"
         style="fill:#ffffff; xx=icccc-color(sRGB-IEC61966-2, 0.1, 1, 1, 1);fill-opacity:1;fill-rule:nonzero;stroke:none"
         transform="matrix(1.3333333,0,0,-1.3333333,1963.8955,4309.6393)"
         clip-path="url(#clipPath2683)" />
      <path
         id="path2684"
         d="m 0,0 h -44.919 v -27.216 c 7.723,4.511 16.702,7.108 26.293,7.108 10.252,0 19.808,-2.967 27.876,-8.073 V -9.25 C 9.25,-4.141 5.107,0 0,0"
         style="fill:#ffffff; xx=icccc-color(sRGB-IEC61966-2, 0.1, 1, 1, 1);fill-opacity:1;fill-rule:nonzero;stroke:none"
         transform="matrix(1.3333333,0,0,-1.3333333,2115.4048,4263.4097)"
         clip-path="url(#clipPath2685)" />
      <path
         id="path2686"
         d="m 0,0 c -6.788,0 -13.138,-1.857 -18.582,-5.085 v -14.041 c 0,-5.111 4.144,-9.255 9.255,-9.255 H 35.586 C 31.891,-12.132 17.366,0 0,0"
         style="fill:#ffffff; xx=icccc-color(sRGB-IEC61966-2, 0.1, 1, 1, 1);fill-opacity:1;fill-rule:nonzero;stroke:none"
         transform="matrix(1.3333333,0,0,-1.3333333,2080.2893,4297.7923)"
         clip-path="url(#clipPath2687)" />
      <path
         id="path2688"
         d="m 0,0 c -0.223,-0.327 -0.513,-0.572 -0.869,-0.736 -0.357,-0.163 -0.74,-0.267 -1.148,-0.312 -0.409,-0.044 -0.806,-0.067 -1.193,-0.067 h -2.585 v 4.994 h 2.719 c 0.505,0 1.018,-0.067 1.538,-0.201 0.52,-0.134 0.962,-0.383 1.326,-0.747 C 0.152,2.567 0.335,2.028 0.335,1.315 0.335,0.765 0.223,0.327 0,0 m -5.795,10.053 h 2.652 c 0.446,0 0.881,-0.052 1.304,-0.156 C -1.415,9.793 -1.066,9.588 -0.791,9.284 -0.516,8.979 -0.379,8.53 -0.379,7.935 -0.379,7.4 -0.516,6.969 -0.791,6.643 -1.066,6.316 -1.415,6.078 -1.839,5.929 -2.262,5.781 -2.697,5.706 -3.143,5.706 H -5.795 Z M 1.326,3.979 C 0.992,4.254 0.639,4.466 0.268,4.614 c -0.372,0.149 -0.706,0.245 -1.003,0.29 0.326,0.059 0.679,0.223 1.058,0.491 0.379,0.267 0.702,0.631 0.97,1.092 0.267,0.46 0.401,1.003 0.401,1.627 0,0.698 -0.163,1.333 -0.49,1.906 -0.327,0.571 -0.825,1.029 -1.494,1.371 -0.668,0.341 -1.515,0.512 -2.541,0.512 H -7.868 V -2.965 h 4.77 c 1.04,0 1.98,0.126 2.819,0.379 0.84,0.253 1.509,0.684 2.007,1.293 0.497,0.609 0.746,1.442 0.746,2.497 0,0.668 -0.108,1.229 -0.323,1.683 C 1.936,3.34 1.661,3.704 1.326,3.979"
         style="fill:#ffffff; xx=icccc-color(sRGB-IEC61966-2, 0.1, 1, 1, 1);fill-opacity:1;fill-rule:nonzero;stroke:none"
         transform="matrix(1.3333333,0,0,-1.3333333,1908.7647,4331.7056)"
         clip-path="url(#clipPath2689)" />
      <path
         id="path2690"
         d="M 0,0 C 0,-0.416 -0.138,-0.81 -0.412,-1.181 -0.688,-1.553 -1.044,-1.854 -1.483,-2.084 -1.921,-2.315 -2.4,-2.43 -2.92,-2.43 c -0.684,0 -1.219,0.149 -1.605,0.446 -0.387,0.297 -0.58,0.721 -0.58,1.271 0,0.312 0.071,0.627 0.212,0.947 0.141,0.32 0.409,0.587 0.802,0.803 0.394,0.215 0.963,0.323 1.706,0.323 0.312,0 0.635,-0.011 0.969,-0.034 C -1.081,1.304 -0.78,1.282 -0.513,1.259 -0.245,1.237 -0.074,1.211 0,1.182 Z m 1.917,-2.808 v 6.04 c 0,1.189 -0.387,2.107 -1.159,2.753 -0.773,0.646 -1.82,0.97 -3.143,0.97 C -3.5,6.955 -4.384,6.813 -5.038,6.531 -5.692,6.249 -6.204,5.959 -6.576,5.662 l 0.936,-1.36 c 0.312,0.223 0.703,0.442 1.171,0.658 0.468,0.215 1.088,0.323 1.861,0.323 0.803,0 1.438,-0.167 1.906,-0.502 C -0.234,4.447 0,3.893 0,3.121 V 2.742 C -0.089,2.756 -0.275,2.775 -0.557,2.797 -0.84,2.82 -1.156,2.842 -1.505,2.864 -1.854,2.887 -2.192,2.898 -2.519,2.898 -3.976,2.898 -5.097,2.563 -5.885,1.895 -6.672,1.226 -7.066,0.334 -7.066,-0.78 c 0,-0.788 0.182,-1.419 0.546,-1.895 0.364,-0.476 0.825,-0.817 1.382,-1.025 0.557,-0.208 1.118,-0.312 1.683,-0.312 0.654,0 1.304,0.13 1.95,0.39 0.647,0.26 1.156,0.642 1.527,1.148 l 0.045,-1.249 h 1.872 c -0.015,0.208 -0.022,0.387 -0.022,0.536 z"
         style="fill:#ffffff; xx=icccc-color(sRGB-IEC61966-2, 0.1, 1, 1, 1);fill-opacity:1;fill-rule:nonzero;stroke:none"
         transform="matrix(1.3333333,0,0,-1.3333333,1923.0901,4330.6949)"
         clip-path="url(#clipPath2691)" />
      <path
         id="path2692"
         d="m 0,0 c -0.639,0 -1.185,-0.1 -1.638,-0.301 -0.454,-0.2 -0.829,-0.439 -1.126,-0.713 -0.297,-0.276 -0.535,-0.539 -0.713,-0.791 l -0.067,1.56 h -1.917 c 0.014,-0.298 0.022,-0.517 0.022,-0.658 v -0.412 -9.295 h 2.006 v 4.815 c 0,0.668 0.093,1.315 0.279,1.939 0.186,0.624 0.501,1.133 0.947,1.527 0.446,0.393 1.048,0.59 1.806,0.59 0.743,0 1.326,-0.226 1.75,-0.68 0.423,-0.453 0.635,-1.163 0.635,-2.128 V -10.61 H 3.99 v 6.219 c 0,1.337 -0.327,2.403 -0.981,3.198 C 2.355,-0.398 1.352,0 0,0"
         style="fill:#ffffff; xx=icccc-color(sRGB-IEC61966-2, 0.1, 1, 1, 1);fill-opacity:1;fill-rule:nonzero;stroke:none"
         transform="matrix(1.3333333,0,0,-1.3333333,1935.5728,4321.5112)"
         clip-path="url(#clipPath2693)" />
      <path
         id="path2694"
         d="m 0,0 h -2.408 l -4.346,-4.257 v 8.76 H -8.76 v -14.868 h 2.006 v 3.812 l 1.426,1.381 3.523,-5.193 h 2.384 l -4.502,6.531 z"
         style="fill:#ffffff; xx=icccc-color(sRGB-IEC61966-2, 0.1, 1, 1, 1);fill-opacity:1;fill-rule:nonzero;stroke:none"
         transform="matrix(1.3333333,0,0,-1.3333333,1955.1885,4321.8383)"
         clip-path="url(#clipPath2695)" />
      <path
         id="path2696"
         d="M 0,0 2.43,6.531 4.837,0 Z M 1.404,8.916 -4.414,-5.951 h 2.252 l 1.538,4.146 H 5.483 L 7.021,-5.951 H 9.406 L 3.589,8.916 Z"
         style="fill:#ffffff; xx=icccc-color(sRGB-IEC61966-2, 0.1, 1, 1, 1);fill-opacity:1;fill-rule:nonzero;stroke:none"
         transform="matrix(1.3333333,0,0,-1.3333333,1965.9176,4327.7228)"
         clip-path="url(#clipPath2697)" />
      <path
         id="path2698"
         d="m 1484.759,523.626 h 2.006 v 14.868 h -2.006 z"
         style="fill:#ffffff; xx=icccc-color(sRGB-IEC61966-2, 0.1, 1, 1, 1);fill-opacity:1;fill-rule:nonzero;stroke:none"
         transform="matrix(1.3333333,0,0,-1.3333333,0,5033.8267)"
         clip-path="url(#clipPath2699)" />
      <path
         id="path2700"
         d="m 0,0 c -0.691,-0.713 -1.609,-1.07 -2.753,-1.07 -0.595,0 -1.044,0.033 -1.349,0.1 -0.304,0.067 -0.561,0.13 -0.769,0.19 v 4.123 c 0,0.52 0.108,1.011 0.324,1.472 0.215,0.46 0.542,0.832 0.98,1.114 0.439,0.282 0.977,0.424 1.617,0.424 0.713,0 1.289,-0.171 1.727,-0.513 C 0.215,5.498 0.535,5.052 0.736,4.503 0.936,3.953 1.037,3.358 1.037,2.72 1.037,1.619 0.691,0.713 0,0 M 0.958,7.4 C 0.253,7.876 -0.613,8.114 -1.638,8.114 -2.5,8.114 -3.199,7.954 -3.734,7.634 -4.269,7.315 -4.64,7.014 -4.848,6.732 v 5.639 H -6.854 V -2.14 c 0.445,-0.178 1.032,-0.334 1.761,-0.468 0.728,-0.134 1.515,-0.2 2.362,-0.2 1.16,0 2.174,0.237 3.043,0.713 0.869,0.475 1.549,1.133 2.04,1.973 0.49,0.839 0.735,1.801 0.735,2.886 0,0.995 -0.178,1.898 -0.535,2.708 C 2.196,6.282 1.664,6.925 0.958,7.4"
         style="fill:#ffffff; xx=icccc-color(sRGB-IEC61966-2, 0.1, 1, 1, 1);fill-opacity:1;fill-rule:nonzero;stroke:none"
         transform="matrix(1.3333333,0,0,-1.3333333,1994.1968,4332.3295)"
         clip-path="url(#clipPath2701)" />
      <path
         id="path2702"
         d="m 1500.25,535.841 h 2.251 v 2.251 h -2.251 z"
         style="fill:#ffffff; xx=icccc-color(sRGB-IEC61966-2, 0.1, 1, 1, 1);fill-opacity:1;fill-rule:nonzero;stroke:none"
         transform="matrix(1.3333333,0,0,-1.3333333,0,5033.8267)"
         clip-path="url(#clipPath2703)" />
      <path
         id="path2704"
         d="m 1500.384,523.626 h 2.006 v 10.365 h -2.006 z"
         style="fill:#ffffff; xx=icccc-color(sRGB-IEC61966-2, 0.1, 1, 1, 1);fill-opacity:1;fill-rule:nonzero;stroke:none"
         transform="matrix(1.3333333,0,0,-1.3333333,0,5033.8267)"
         clip-path="url(#clipPath2705)" />
      <path
         id="path2706"
         d="m 1504.508,523.626 h 2.006 v 14.868 h -2.006 z"
         style="fill:#ffffff; xx=icccc-color(sRGB-IEC61966-2, 0.1, 1, 1, 1);fill-opacity:1;fill-rule:nonzero;stroke:none"
         transform="matrix(1.3333333,0,0,-1.3333333,0,5033.8267)"
         clip-path="url(#clipPath2707)" />
      <path
         id="path2708"
         d="M 0,0 C 0,-0.416 -0.138,-0.81 -0.412,-1.181 -0.688,-1.553 -1.044,-1.854 -1.483,-2.084 -1.921,-2.315 -2.4,-2.43 -2.92,-2.43 c -0.684,0 -1.219,0.149 -1.605,0.446 -0.387,0.297 -0.58,0.721 -0.58,1.271 0,0.312 0.071,0.627 0.212,0.947 0.141,0.32 0.409,0.587 0.802,0.803 0.394,0.215 0.963,0.323 1.706,0.323 0.312,0 0.635,-0.011 0.969,-0.034 C -1.081,1.304 -0.78,1.282 -0.513,1.259 -0.245,1.237 -0.074,1.211 0,1.182 Z m 1.917,-2.808 v 6.04 c 0,1.189 -0.387,2.107 -1.159,2.753 -0.773,0.646 -1.82,0.97 -3.143,0.97 C -3.5,6.955 -4.384,6.813 -5.038,6.531 -5.692,6.249 -6.204,5.959 -6.576,5.662 l 0.936,-1.36 c 0.312,0.223 0.703,0.442 1.171,0.658 0.468,0.215 1.088,0.323 1.861,0.323 0.803,0 1.438,-0.167 1.906,-0.502 C -0.234,4.447 0,3.893 0,3.121 V 2.742 C -0.089,2.756 -0.275,2.775 -0.557,2.797 -0.84,2.82 -1.156,2.842 -1.505,2.864 -1.854,2.887 -2.192,2.898 -2.519,2.898 -3.976,2.898 -5.097,2.563 -5.885,1.895 -6.672,1.226 -7.066,0.334 -7.066,-0.78 c 0,-0.788 0.182,-1.419 0.546,-1.895 0.364,-0.476 0.825,-0.817 1.382,-1.025 0.557,-0.208 1.118,-0.312 1.683,-0.312 0.654,0 1.304,0.13 1.95,0.39 0.647,0.26 1.156,0.642 1.527,1.148 l 0.045,-1.249 h 1.872 c -0.015,0.208 -0.022,0.387 -0.022,0.536 z"
         style="fill:#ffffff; xx=icccc-color(sRGB-IEC61966-2, 0.1, 1, 1, 1);fill-opacity:1;fill-rule:nonzero;stroke:none"
         transform="matrix(1.3333333,0,0,-1.3333333,2020.0091,4330.6949)"
         clip-path="url(#clipPath2709)" />
      <path
         id="path2710"
         d="m 0,0 c 0,-0.401 -0.1,-0.832 -0.301,-1.293 -0.2,-0.461 -0.513,-0.851 -0.936,-1.17 -0.424,-0.32 -0.985,-0.479 -1.683,-0.479 -0.684,0 -1.248,0.159 -1.694,0.479 -0.446,0.319 -0.777,0.754 -0.992,1.304 -0.216,0.55 -0.323,1.151 -0.323,1.805 0,1.189 0.323,2.125 0.969,2.809 0.647,0.683 1.453,1.025 2.419,1.025 0.594,0 1.099,-0.074 1.516,-0.223 C -0.609,4.109 -0.267,3.923 0,3.7 Z m 2.006,-3.321 v 13.82 H 0 V 5.573 c -0.416,0.208 -0.828,0.371 -1.237,0.49 -0.409,0.119 -0.895,0.178 -1.46,0.178 -0.55,0 -1.133,-0.108 -1.75,-0.323 C -5.064,5.702 -5.64,5.372 -6.174,4.926 -6.71,4.48 -7.144,3.904 -7.478,3.199 -7.813,2.492 -7.98,1.649 -7.98,0.669 c 0,-1.085 0.201,-2.029 0.602,-2.831 0.401,-0.803 0.951,-1.423 1.649,-1.862 0.699,-0.438 1.486,-0.657 2.363,-0.657 0.669,0 1.234,0.108 1.694,0.323 0.461,0.215 0.828,0.457 1.104,0.725 0.274,0.267 0.464,0.46 0.568,0.579 l 0.067,-1.315 h 1.961 c -0.015,0.208 -0.022,0.42 -0.022,0.635 z"
         style="fill:#ffffff; xx=icccc-color(sRGB-IEC61966-2, 0.1, 1, 1, 1);fill-opacity:1;fill-rule:nonzero;stroke:none"
         transform="matrix(1.3333333,0,0,-1.3333333,2035.1963,4329.8329)"
         clip-path="url(#clipPath2711)" />
    </g>
  </g>
</svg>
