<?xml version="1.0" encoding="UTF-8" standalone="no"?>
<!-- Created with Inkscape (http://www.inkscape.org/) -->

<svg
   width="66.215034mm"
   height="30.073952mm"
   viewBox="0 0 66.215034 30.073952"
   version="1.1"
   id="svg1"
   inkscape:version="1.3.2 (091e20e, 2023-11-25, custom)"
   sodipodi:docname="partner2-awqaf.svg"
   xmlns:inkscape="http://www.inkscape.org/namespaces/inkscape"
   xmlns:sodipodi="http://sodipodi.sourceforge.net/DTD/sodipodi-0.dtd"
   xmlns="http://www.w3.org/2000/svg"
   xmlns:svg="http://www.w3.org/2000/svg">
  <sodipodi:namedview
     id="namedview1"
     pagecolor="#494949"
     bordercolor="#999999"
     borderopacity="1"
     inkscape:showpageshadow="2"
     inkscape:pageopacity="0"
     inkscape:pagecheckerboard="0"
     inkscape:deskcolor="#d1d1d1"
     inkscape:document-units="mm"
     inkscape:zoom="0.74920735"
     inkscape:cx="124.79856"
     inkscape:cy="56.726619"
     inkscape:window-width="1920"
     inkscape:window-height="1017"
     inkscape:window-x="-8"
     inkscape:window-y="-8"
     inkscape:window-maximized="1"
     inkscape:current-layer="layer1" />
  <defs
     id="defs1">
    <clipPath
       clipPathUnits="userSpaceOnUse"
       id="clipPath2757">
      <path
         d="M 511.94,374.148 H 849.792 V 712 H 511.94 Z"
         transform="translate(-721.84412,-541.33611)"
         id="path2757" />
    </clipPath>
    <clipPath
       clipPathUnits="userSpaceOnUse"
       id="clipPath2759">
      <path
         d="M 511.94,374.148 H 849.792 V 712 H 511.94 Z"
         transform="translate(-763.00539,-541.24469)"
         id="path2759" />
    </clipPath>
    <clipPath
       clipPathUnits="userSpaceOnUse"
       id="clipPath2761">
      <path
         d="M 511.94,374.148 H 849.792 V 712 H 511.94 Z"
         transform="translate(-724.67962,-541.15311)"
         id="path2761" />
    </clipPath>
    <clipPath
       clipPathUnits="userSpaceOnUse"
       id="clipPath2763">
      <path
         d="M 511.94,374.148 H 849.792 V 712 H 511.94 Z"
         transform="translate(-735.19862,-535.84784)"
         id="path2763" />
    </clipPath>
    <clipPath
       clipPathUnits="userSpaceOnUse"
       id="clipPath2765">
      <path
         d="M 511.94,374.148 H 849.792 V 712 H 511.94 Z"
         transform="translate(-736.57072,-535.02471)"
         id="path2765" />
    </clipPath>
    <clipPath
       clipPathUnits="userSpaceOnUse"
       id="clipPath2767">
      <path
         d="M 511.94,374.148 H 849.792 V 712 H 511.94 Z"
         transform="translate(-723.28452,-541.33311)"
         id="path2767" />
    </clipPath>
    <clipPath
       clipPathUnits="userSpaceOnUse"
       id="clipPath2769">
      <path
         d="M 511.94,374.148 H 849.792 V 712 H 511.94 Z"
         transform="translate(-766.11542,-541.06161)"
         id="path2769" />
    </clipPath>
    <clipPath
       clipPathUnits="userSpaceOnUse"
       id="clipPath2771">
      <path
         d="M 511.94,374.148 H 849.792 V 712 H 511.94 Z"
         transform="translate(-769.77399,-533.83559)"
         id="path2771" />
    </clipPath>
    <clipPath
       clipPathUnits="userSpaceOnUse"
       id="clipPath2773">
      <path
         d="M 511.94,374.148 H 849.792 V 712 H 511.94 Z"
         transform="translate(-760.16994,-541.06169)"
         id="path2773" />
    </clipPath>
    <clipPath
       clipPathUnits="userSpaceOnUse"
       id="clipPath2775">
      <path
         d="M 511.94,374.148 H 849.792 V 712 H 511.94 Z"
         transform="translate(-608.87921,-568.95981)"
         id="path2775" />
    </clipPath>
    <clipPath
       clipPathUnits="userSpaceOnUse"
       id="clipPath2777">
      <path
         d="M 511.94,374.148 H 849.792 V 712 H 511.94 Z"
         transform="translate(-641.80822,-568.95981)"
         id="path2777" />
    </clipPath>
    <clipPath
       clipPathUnits="userSpaceOnUse"
       id="clipPath2779">
      <path
         d="M 511.94,374.148 H 849.792 V 712 H 511.94 Z"
         transform="translate(-646.93052,-568.95981)"
         id="path2779" />
    </clipPath>
    <clipPath
       clipPathUnits="userSpaceOnUse"
       id="clipPath2781">
      <path
         d="M 511.94,374.148 H 849.792 V 712 H 511.94 Z"
         transform="translate(-675.65201,-564.20354)"
         id="path2781" />
    </clipPath>
    <clipPath
       clipPathUnits="userSpaceOnUse"
       id="clipPath2783">
      <path
         d="M 511.94,374.148 H 849.792 V 712 H 511.94 Z"
         transform="translate(-653.05901,-564.20354)"
         id="path2783" />
    </clipPath>
    <clipPath
       clipPathUnits="userSpaceOnUse"
       id="clipPath2785">
      <path
         d="M 511.94,374.148 H 849.792 V 712 H 511.94 Z"
         transform="translate(-617.56882,-564.20354)"
         id="path2785" />
    </clipPath>
    <clipPath
       clipPathUnits="userSpaceOnUse"
       id="clipPath2787">
      <path
         d="M 511.94,374.148 H 849.792 V 712 H 511.94 Z"
         transform="translate(-685.16482,-572.61869)"
         id="path2787" />
    </clipPath>
    <clipPath
       clipPathUnits="userSpaceOnUse"
       id="clipPath2789">
      <path
         d="M 511.94,374.148 H 849.792 V 712 H 511.94 Z"
         transform="translate(-680.68282,-572.43569)"
         id="path2789" />
    </clipPath>
    <clipPath
       clipPathUnits="userSpaceOnUse"
       id="clipPath2791">
      <path
         d="M 511.94,374.148 H 849.792 V 712 H 511.94 Z"
         transform="translate(-685.34771,-580.21064)"
         id="path2791" />
    </clipPath>
    <clipPath
       clipPathUnits="userSpaceOnUse"
       id="clipPath2793">
      <path
         d="M 511.94,374.148 H 849.792 V 712 H 511.94 Z"
         transform="translate(-605.95211,-525.14594)"
         id="path2793" />
    </clipPath>
    <clipPath
       clipPathUnits="userSpaceOnUse"
       id="clipPath2795">
      <path
         d="M 511.94,374.148 H 849.792 V 712 H 511.94 Z"
         transform="translate(-604.21421,-525.14594)"
         id="path2795" />
    </clipPath>
    <clipPath
       clipPathUnits="userSpaceOnUse"
       id="clipPath2797">
      <path
         d="M 511.94,374.148 H 849.792 V 712 H 511.94 Z"
         transform="translate(-622.05082,-521.67014)"
         id="path2797" />
    </clipPath>
    <clipPath
       clipPathUnits="userSpaceOnUse"
       id="clipPath2799">
      <path
         d="M 511.94,374.148 H 849.792 V 712 H 511.94 Z"
         transform="translate(-629.55131,-525.14594)"
         id="path2799" />
    </clipPath>
    <clipPath
       clipPathUnits="userSpaceOnUse"
       id="clipPath2801">
      <path
         d="M 511.94,374.148 H 849.792 V 712 H 511.94 Z"
         transform="translate(-631.38071,-525.14594)"
         id="path2801" />
    </clipPath>
    <clipPath
       clipPathUnits="userSpaceOnUse"
       id="clipPath2803">
      <path
         d="M 511.94,374.148 H 849.792 V 712 H 511.94 Z"
         transform="translate(-639.24712,-520.11509)"
         id="path2803" />
    </clipPath>
    <clipPath
       clipPathUnits="userSpaceOnUse"
       id="clipPath2805">
      <path
         d="M 511.94,374.148 H 849.792 V 712 H 511.94 Z"
         transform="translate(-650.49782,-521.67014)"
         id="path2805" />
    </clipPath>
    <clipPath
       clipPathUnits="userSpaceOnUse"
       id="clipPath2807">
      <path
         d="M 511.94,374.148 H 849.792 V 712 H 511.94 Z"
         transform="translate(-652.87601,-518.28584)"
         id="path2807" />
    </clipPath>
    <clipPath
       clipPathUnits="userSpaceOnUse"
       id="clipPath2809">
      <path
         d="M 511.94,374.148 H 849.792 V 712 H 511.94 Z"
         transform="translate(-659.55332,-525.14594)"
         id="path2809" />
    </clipPath>
    <clipPath
       clipPathUnits="userSpaceOnUse"
       id="clipPath2811">
      <path
         d="M 511.94,374.148 H 849.792 V 712 H 511.94 Z"
         transform="translate(-661.38272,-525.14594)"
         id="path2811" />
    </clipPath>
    <clipPath
       clipPathUnits="userSpaceOnUse"
       id="clipPath2813">
      <path
         d="M 511.94,374.148 H 849.792 V 712 H 511.94 Z"
         transform="translate(-669.34052,-517.27949)"
         id="path2813" />
    </clipPath>
    <clipPath
       clipPathUnits="userSpaceOnUse"
       id="clipPath2815">
      <path
         d="M 511.94,374.148 H 849.792 V 712 H 511.94 Z"
         transform="translate(-671.16992,-517.27949)"
         id="path2815" />
    </clipPath>
    <clipPath
       clipPathUnits="userSpaceOnUse"
       id="clipPath2817">
      <path
         d="M 511.94,374.148 H 849.792 V 712 H 511.94 Z"
         transform="translate(-681.78041,-521.67014)"
         id="path2817" />
    </clipPath>
    <clipPath
       clipPathUnits="userSpaceOnUse"
       id="clipPath2819">
      <path
         d="M 511.94,374.148 H 849.792 V 712 H 511.94 Z"
         transform="translate(-684.15862,-527.70719)"
         id="path2819" />
    </clipPath>
    <clipPath
       clipPathUnits="userSpaceOnUse"
       id="clipPath2821">
      <path
         d="M 511.94,374.148 H 849.792 V 712 H 511.94 Z"
         transform="translate(-607.32422,-524.32281)"
         id="path2821" />
    </clipPath>
    <clipPath
       clipPathUnits="userSpaceOnUse"
       id="clipPath2823">
      <path
         d="M 511.94,374.148 H 849.792 V 712 H 511.94 Z"
         transform="translate(-611.34892,-523.68239)"
         id="path2823" />
    </clipPath>
    <clipPath
       clipPathUnits="userSpaceOnUse"
       id="clipPath2825">
      <path
         d="M 511.94,374.148 H 849.792 V 712 H 511.94 Z"
         transform="translate(-595.61611,-523.68239)"
         id="path2825" />
    </clipPath>
    <clipPath
       clipPathUnits="userSpaceOnUse"
       id="clipPath2827">
      <path
         d="M 511.94,374.148 H 849.792 V 712 H 511.94 Z"
         transform="translate(-595.25021,-525.14594)"
         id="path2827" />
    </clipPath>
    <clipPath
       clipPathUnits="userSpaceOnUse"
       id="clipPath2829">
      <path
         d="M 511.94,374.148 H 849.792 V 712 H 511.94 Z"
         transform="translate(-665.86472,-526.24364)"
         id="path2829" />
    </clipPath>
    <clipPath
       clipPathUnits="userSpaceOnUse"
       id="clipPath2831">
      <path
         d="M 511.94,374.148 H 849.792 V 712 H 511.94 Z"
         transform="translate(-615.46502,-526.24364)"
         id="path2831" />
    </clipPath>
    <clipPath
       clipPathUnits="userSpaceOnUse"
       id="clipPath2833">
      <path
         d="M 511.94,374.148 H 849.792 V 712 H 511.94 Z"
         transform="translate(-590.31091,-509.50461)"
         id="path2833" />
    </clipPath>
    <clipPath
       clipPathUnits="userSpaceOnUse"
       id="clipPath2835">
      <path
         d="M 511.94,374.148 H 849.792 V 712 H 511.94 Z"
         transform="translate(-592.59761,-509.77911)"
         id="path2835" />
    </clipPath>
    <clipPath
       clipPathUnits="userSpaceOnUse"
       id="clipPath2837">
      <path
         d="M 511.94,374.148 H 849.792 V 712 H 511.94 Z"
         transform="translate(-598.54312,-508.68149)"
         id="path2837" />
    </clipPath>
    <clipPath
       clipPathUnits="userSpaceOnUse"
       id="clipPath2839">
      <path
         d="M 511.94,374.148 H 849.792 V 712 H 511.94 Z"
         transform="translate(-600.82982,-509.77911)"
         id="path2839" />
    </clipPath>
    <clipPath
       clipPathUnits="userSpaceOnUse"
       id="clipPath2841">
      <path
         d="M 511.94,374.148 H 849.792 V 712 H 511.94 Z"
         transform="translate(-603.66542,-511.97444)"
         id="path2841" />
    </clipPath>
    <clipPath
       clipPathUnits="userSpaceOnUse"
       id="clipPath2843">
      <path
         d="M 511.94,374.148 H 849.792 V 712 H 511.94 Z"
         transform="translate(-637.96652,-511.97444)"
         id="path2843" />
    </clipPath>
    <clipPath
       clipPathUnits="userSpaceOnUse"
       id="clipPath2845">
      <path
         d="M 511.94,374.148 H 849.792 V 712 H 511.94 Z"
         transform="translate(-659.91922,-511.88294)"
         id="path2845" />
    </clipPath>
    <clipPath
       clipPathUnits="userSpaceOnUse"
       id="clipPath2847">
      <path
         d="M 511.94,374.148 H 849.792 V 712 H 511.94 Z"
         transform="translate(-609.51952,-509.41319)"
         id="path2847" />
    </clipPath>
    <clipPath
       clipPathUnits="userSpaceOnUse"
       id="clipPath2849">
      <path
         d="M 511.94,374.148 H 849.792 V 712 H 511.94 Z"
         transform="translate(-618.75791,-509.32169)"
         id="path2849" />
    </clipPath>
    <clipPath
       clipPathUnits="userSpaceOnUse"
       id="clipPath2851">
      <path
         d="M 511.94,374.148 H 849.792 V 712 H 511.94 Z"
         transform="translate(-612.08062,-508.04114)"
         id="path2851" />
    </clipPath>
    <clipPath
       clipPathUnits="userSpaceOnUse"
       id="clipPath2853">
      <path
         d="M 511.94,374.148 H 849.792 V 712 H 511.94 Z"
         transform="translate(-628.27072,-512.15729)"
         id="path2853" />
    </clipPath>
    <clipPath
       clipPathUnits="userSpaceOnUse"
       id="clipPath2855">
      <path
         d="M 511.94,374.148 H 849.792 V 712 H 511.94 Z"
         transform="translate(-646.29022,-512.15729)"
         id="path2855" />
    </clipPath>
    <clipPath
       clipPathUnits="userSpaceOnUse"
       id="clipPath2857">
      <path
         d="M 511.94,374.148 H 849.792 V 712 H 511.94 Z"
         transform="translate(-629.36831,-508.04114)"
         id="path2857" />
    </clipPath>
    <clipPath
       clipPathUnits="userSpaceOnUse"
       id="clipPath2859">
      <path
         d="M 511.94,374.148 H 849.792 V 712 H 511.94 Z"
         transform="translate(-629.45981,-511.70001)"
         id="path2859" />
    </clipPath>
    <clipPath
       clipPathUnits="userSpaceOnUse"
       id="clipPath2861">
      <path
         d="M 511.94,374.148 H 849.792 V 712 H 511.94 Z"
         transform="translate(-632.20391,-508.04114)"
         id="path2861" />
    </clipPath>
    <clipPath
       clipPathUnits="userSpaceOnUse"
       id="clipPath2863">
      <path
         d="M 511.94,374.148 H 849.792 V 712 H 511.94 Z"
         transform="translate(-632.38682,-511.70001)"
         id="path2863" />
    </clipPath>
    <clipPath
       clipPathUnits="userSpaceOnUse"
       id="clipPath2865">
      <path
         d="M 511.94,374.148 H 849.792 V 712 H 511.94 Z"
         transform="translate(-631.83802,-509.68761)"
         id="path2865" />
    </clipPath>
    <clipPath
       clipPathUnits="userSpaceOnUse"
       id="clipPath2867">
      <path
         d="M 511.94,374.148 H 849.792 V 712 H 511.94 Z"
         transform="translate(-642.17411,-507.67529)"
         id="path2867" />
    </clipPath>
    <clipPath
       clipPathUnits="userSpaceOnUse"
       id="clipPath2869">
      <path
         d="M 511.94,374.148 H 849.792 V 712 H 511.94 Z"
         transform="translate(-648.66851,-507.67529)"
         id="path2869" />
    </clipPath>
    <clipPath
       clipPathUnits="userSpaceOnUse"
       id="clipPath2871">
      <path
         d="M 511.94,374.148 H 849.792 V 712 H 511.94 Z"
         transform="translate(-652.78451,-509.77911)"
         id="path2871" />
    </clipPath>
    <clipPath
       clipPathUnits="userSpaceOnUse"
       id="clipPath2873">
      <path
         d="M 511.94,374.148 H 849.792 V 712 H 511.94 Z"
         transform="translate(-656.80922,-507.40094)"
         id="path2873" />
    </clipPath>
    <clipPath
       clipPathUnits="userSpaceOnUse"
       id="clipPath2875">
      <path
         d="M 511.94,374.148 H 849.792 V 712 H 511.94 Z"
         transform="translate(-635.31382,-507.40094)"
         id="path2875" />
    </clipPath>
    <clipPath
       clipPathUnits="userSpaceOnUse"
       id="clipPath2877">
      <path
         d="M 511.94,374.148 H 849.792 V 712 H 511.94 Z"
         transform="translate(-623.97161,-509.13884)"
         id="path2877" />
    </clipPath>
    <clipPath
       clipPathUnits="userSpaceOnUse"
       id="clipPath2879">
      <path
         d="M 511.94,374.148 H 849.792 V 712 H 511.94 Z"
         transform="translate(-667.23682,-509.32169)"
         id="path2879" />
    </clipPath>
    <clipPath
       clipPathUnits="userSpaceOnUse"
       id="clipPath2881">
      <path
         d="M 511.94,374.148 H 849.792 V 712 H 511.94 Z"
         transform="translate(-670.98701,-510.87674)"
         id="path2881" />
    </clipPath>
    <clipPath
       clipPathUnits="userSpaceOnUse"
       id="clipPath2883">
      <path
         d="M 511.94,374.148 H 849.792 V 712 H 511.94 Z"
         transform="translate(-676.74962,-507.49229)"
         id="path2883" />
    </clipPath>
    <clipPath
       clipPathUnits="userSpaceOnUse"
       id="clipPath2885">
      <path
         d="M 511.94,374.148 H 849.792 V 712 H 511.94 Z"
         transform="translate(-681.23162,-509.32169)"
         id="path2885" />
    </clipPath>
    <clipPath
       clipPathUnits="userSpaceOnUse"
       id="clipPath2887">
      <path
         d="M 511.94,374.148 H 849.792 V 712 H 511.94 Z"
         transform="translate(-683.79272,-509.77911)"
         id="path2887" />
    </clipPath>
    <clipPath
       clipPathUnits="userSpaceOnUse"
       id="clipPath2889">
      <path
         d="M 511.94,374.148 H 849.792 V 712 H 511.94 Z"
         transform="translate(-649.30871,-512.06579)"
         id="path2889" />
    </clipPath>
  </defs>
  <g
     inkscape:label="Layer 1"
     inkscape:groupmode="layer"
     id="layer1"
     transform="translate(-71.966674,-133.35002)">
    <g
       id="group-MC6"
       transform="matrix(0.26458333,0,0,0.26458333,-135.12016,-991.89516)">
      <path
         id="path2756"
         d="m 0,0 c -0.457,0 -0.915,-0.091 -1.281,-0.091 0.458,0 0.915,0 1.281,0.091"
         style="fill:#ffffff; xx=icccc-color(sRGB-IEC61966-2, 0.1, 1, 1, 1);fill-opacity:1;fill-rule:nonzero;stroke:none"
         transform="matrix(1.3333333,0,0,-1.3333333,962.4588,4312.0452)"
         clip-path="url(#clipPath2757)" />
      <path
         id="path2758"
         d="M 0,0 C 0.457,0 0.823,-0.091 1.281,-0.091 0.915,-0.091 0.457,0 0,0"
         style="fill:#ffffff; xx=icccc-color(sRGB-IEC61966-2, 0.1, 1, 1, 1);fill-opacity:1;fill-rule:nonzero;stroke:none"
         transform="matrix(1.3333333,0,0,-1.3333333,1017.3405,4312.1671)"
         clip-path="url(#clipPath2759)" />
      <path
         id="path2760"
         d="M 0,0 C 0.039,0 0.078,-0.006 0.116,-0.009 0.109,-0.005 0.099,-0.004 0.091,0 -0.163,0.043 -0.397,0.084 -0.621,0.117 -0.7,0.125 -0.78,0.133 -0.859,0.14 -0.566,0.105 -0.267,0.053 0,0"
         style="fill:#ffffff; xx=icccc-color(sRGB-IEC61966-2, 0.1, 1, 1, 1);fill-opacity:1;fill-rule:nonzero;stroke:none"
         transform="matrix(1.3333333,0,0,-1.3333333,966.23947,4312.2892)"
         clip-path="url(#clipPath2761)" />
      <path
         id="path2762"
         d="M 0,0 C 0.183,-0.091 0.274,-0.183 0.457,-0.274 0.64,-0.366 0.732,-0.457 0.915,-0.549 1.026,-0.604 1.104,-0.66 1.188,-0.715 0.497,-0.224 -0.505,0.507 -1.665,1.282 -1.384,1.084 -1.104,0.874 -0.823,0.64 -0.549,0.457 -0.274,0.274 0,0"
         style="fill:#ffffff; xx=icccc-color(sRGB-IEC61966-2, 0.1, 1, 1, 1);fill-opacity:1;fill-rule:nonzero;stroke:none"
         transform="matrix(1.3333333,0,0,-1.3333333,980.2648,4319.3629)"
         clip-path="url(#clipPath2763)" />
      <path
         id="path2764"
         d="M 0,0 C -0.072,0.036 -0.129,0.072 -0.184,0.108 0.029,-0.043 0.217,-0.176 0.366,-0.274 0.274,-0.183 0.091,-0.091 0,0"
         style="fill:#ffffff; xx=icccc-color(sRGB-IEC61966-2, 0.1, 1, 1, 1);fill-opacity:1;fill-rule:nonzero;stroke:none"
         transform="matrix(1.3333333,0,0,-1.3333333,982.09427,4320.4604)"
         clip-path="url(#clipPath2765)" />
      <path
         id="path2766"
         d="M 0,0 C -0.003,-0.001 -0.006,-0.001 -0.009,-0.001 0.171,-0.011 0.353,-0.024 0.536,-0.04 0.352,-0.018 0.171,-0.003 0,0"
         style="fill:#ffffff; xx=icccc-color(sRGB-IEC61966-2, 0.1, 1, 1, 1);fill-opacity:1;fill-rule:nonzero;stroke:none"
         transform="matrix(1.3333333,0,0,-1.3333333,964.37933,4312.0492)"
         clip-path="url(#clipPath2767)" />
      <path
         id="path2768"
         d="m 0,0 h 0.091 c 0.092,0 0.092,-0.091 0,-0.091 C -0.64,0 -4.299,-0.64 -7.683,-2.195 c -1.83,-0.915 -3.842,-1.921 -5.763,-3.385 -1.098,-0.731 -2.104,-1.463 -3.201,-2.378 -1.716,-1.429 -3.36,-2.717 -4.931,-3.867 0.212,-0.146 0.424,-0.294 0.631,-0.432 1.189,-0.732 2.379,-1.464 3.476,-2.012 1.281,1.463 1.098,2.378 1.098,2.378 0.549,0.457 1.006,0.183 1.006,0.183 0.823,-0.641 0,-1.646 -1.006,-2.653 -0.092,-0.091 -0.549,-0.549 -0.549,-0.549 -0.091,-0.091 -0.823,-0.914 -1.006,-1.189 l -0.091,-0.183 c -0.824,-1.372 0,-2.378 0,-2.378 -0.641,-0.823 -1.007,-0.457 -1.007,-0.457 -0.732,0.457 -0.64,1.646 0,2.744 -1.472,0.777 -3.073,1.775 -4.793,2.966 -1.603,-1.087 -3.119,-2.017 -4.537,-2.783 0.641,-1.098 0.732,-2.287 0,-2.744 0,0 -0.366,-0.275 -1.006,0.457 0,0 0.823,1.006 0,2.378 l -0.091,0.183 c -0.183,0.275 -0.915,1.098 -1.006,1.189 0,0 -0.458,0.458 -0.549,0.549 -1.006,1.006 -1.83,2.013 -1.006,2.653 0,0 0.457,0.183 1.006,-0.183 0,0 -0.183,-0.915 1.097,-2.378 1.098,0.548 2.196,1.189 3.476,2.012 0.128,0.085 0.26,0.178 0.39,0.266 -1.487,1.104 -3.051,2.33 -4.689,3.667 -1.097,0.915 -2.195,1.647 -3.201,2.378 -1.921,1.464 -3.934,2.562 -5.763,3.385 -3.384,1.555 -7.043,2.195 -7.775,2.104 0,0 -0.091,0.091 0,0.091 h 0.092 c 0.091,0.092 0.457,0.183 0.823,0.274 0.823,0.275 1.738,0.366 2.653,0.183 h -0.366 c 0.448,-0.089 0.897,-0.09 1.431,-0.004 -0.02,0.001 -0.04,0.003 -0.059,0.004 0.022,0 0.046,-0.002 0.068,-0.002 0.008,0.001 0.015,0.001 0.023,0.002 0.245,0 0.492,-0.027 0.751,-0.065 0.605,-0.062 1.218,-0.163 1.835,-0.301 -0.008,0 -0.014,0.001 -0.025,0.001 h -0.091 -0.092 -0.183 c -0.235,0.078 -0.471,0.153 -0.706,0.174 0.182,-0.081 0.443,-0.087 0.706,-0.174 0.092,-0.092 0.092,-0.092 0.183,-0.092 h 0.092 0.091 c 0.092,-0.091 0.092,-0.091 0.183,-0.091 0.092,-0.092 0.092,-0.092 0.183,-0.092 h 0.092 0.091 c 0.092,-0.091 0.092,-0.091 0.183,-0.091 0.092,-0.092 0.092,-0.092 0.183,-0.092 h 0.091 0.092 c 0.091,-0.091 0.091,-0.091 0.183,-0.091 0,0 0.091,-0.092 0.183,-0.092 h 0.091 0.092 c 0,0 0.091,-0.091 0.183,-0.091 1.925,-0.642 4.06,-1.922 5.836,-3.109 -0.269,0.189 -0.537,0.369 -0.805,0.548 -0.549,0.366 -1.098,0.64 -1.647,1.006 -1.097,0.64 -2.287,1.189 -3.384,1.646 L -38.6,-0.64 h -0.092 -0.091 c -0.092,0 -0.092,0.091 -0.183,0.091 0,0.092 -0.092,0.092 -0.183,0.092 h -0.091 -0.092 c -0.091,0.091 -0.091,0.091 -0.183,0.091 -0.091,0.092 -0.091,0.092 -0.183,0.092 h -0.091 -0.092 c -0.091,0.091 -0.091,0.091 -0.183,0.091 -0.041,0.041 -0.063,0.063 -0.084,0.075 1.056,-0.242 2.125,-0.595 3.194,-1.081 2.47,-1.098 4.848,-2.744 7.684,-4.848 1.956,-1.496 3.766,-2.918 5.455,-4.178 1.76,1.305 3.651,2.791 5.704,4.361 2.835,2.104 5.214,3.75 7.684,4.848 2.103,0.823 4.024,1.372 5.945,1.463 0.366,0 0.732,0 0.823,0.183 1.007,0 2.013,-0.091 2.836,-0.366 C -0.457,0.183 -0.091,0 0,0 m -8.415,-17.654 c -0.275,-0.64 -0.915,-1.097 -1.738,-1.28 -0.366,-0.092 -0.732,-0.092 -1.098,-0.092 -1.555,0 -3.75,0.641 -6.22,1.83 -0.091,0.091 -0.183,0.091 -0.274,0.183 0,0.091 -0.274,0.183 -0.274,0.183 0.091,0.183 0.365,0.365 0.548,0.64 0.275,0.274 0.549,0.64 0.641,0.732 0,0 0.731,-0.366 1.189,-0.549 1.006,-0.458 1.92,-0.732 2.835,-0.915 0.183,0 0.457,-0.091 0.64,-0.091 0.275,-0.092 0.458,-0.092 0.641,-0.092 0.457,0 0.823,0 1.098,0.092 0.182,0.091 0.365,0.091 0.457,0.183 0.091,0 0.091,0.091 0.183,0.091 0.091,0 0.091,0 0.183,0.092 0,0.091 0.091,0.091 0.091,0.182 v 0.183 c 0,-0.091 0,-0.182 -0.091,-0.274 -0.092,0 -0.092,-0.091 -0.183,-0.091 -0.092,0 -0.092,-0.092 -0.183,-0.092 -0.183,0 -0.275,-0.091 -0.457,-0.091 -0.092,-0.092 -0.275,-0.092 -0.458,-0.092 h -0.549 c -0.366,0 -0.732,0.092 -1.189,0.183 -0.823,0.274 -1.738,0.549 -2.744,1.006 -0.366,0.183 -0.732,0.366 -1.098,0.549 0.092,0.091 0.366,0.366 0.275,0.183 0.457,-0.183 0.823,-0.366 1.28,-0.549 1.738,-0.732 2.836,-0.914 3.476,-0.914 0.732,0 1.007,0.182 1.098,0.182 0.091,0.092 0.183,0.183 0.274,0.275 0,0 0.092,0.091 0.275,0.091 h -0.092 c 0.275,0.183 0.549,0.275 0.915,0.092 1.006,-0.458 0.64,-1.555 0.549,-1.83 m -21.496,0.458 c -2.469,-1.189 -4.664,-1.83 -6.219,-1.83 -0.367,0 -0.732,0 -1.098,0.092 -0.823,0.183 -1.464,0.64 -1.738,1.28 -0.183,0.275 -0.457,1.372 0.549,1.83 0.216,0.072 0.488,0.083 0.729,-0.004 0.001,0.002 0.002,0.003 0.002,0.004 0.092,0 0.092,0.091 0.183,0.091 0.183,0 0.275,-0.091 0.275,-0.091 0.091,-0.092 0.183,-0.183 0.274,-0.275 0.092,-0.091 0.366,-0.183 1.098,-0.183 0.64,0 1.738,0.183 3.476,0.915 0.366,0.183 0.823,0.366 1.28,0.732 0,-0.092 0.275,-0.275 0.275,-0.366 -0.366,-0.183 -0.732,-0.366 -1.098,-0.549 -0.915,-0.457 -1.921,-0.823 -2.744,-1.006 -0.366,-0.091 -0.823,-0.183 -1.189,-0.183 h -0.549 c -0.183,0 -0.275,0.092 -0.457,0.092 -0.183,0 -0.366,0 -0.458,0.091 -0.091,0 -0.091,0.091 -0.183,0.091 -0.091,0 -0.183,0.092 -0.183,0.092 0,0.091 -0.091,0.183 -0.091,0.274 0,0.033 0.002,0.065 0.005,0.097 -0.002,-0.002 -0.003,-0.003 -0.005,-0.005 0,-0.092 -0.092,-0.183 -0.092,-0.275 v -0.183 c 0,-0.091 0.092,-0.091 0.092,-0.182 0.091,0 0.091,-0.092 0.183,-0.092 0.091,0 0.091,-0.091 0.183,-0.091 0.183,-0.092 0.274,-0.183 0.457,-0.183 0.366,-0.092 0.732,-0.092 1.098,-0.092 0.274,0.092 0.457,0.092 0.64,0.092 0.183,0 0.458,0.091 0.641,0.091 0.823,0.183 1.829,0.457 2.835,0.915 0.402,0.161 1.086,0.462 1.122,0.533 -0.008,0.005 -0.017,0.012 -0.024,0.016 0.022,0 0.028,-0.006 0.024,-0.016 0.182,-0.108 0.444,-0.453 0.707,-0.716 0.183,-0.275 0.458,-0.549 0.549,-0.64 0,0 -0.183,-0.183 -0.274,-0.183 -0.092,-0.092 -0.183,-0.092 -0.275,-0.183 m 1.555,39.332 c -2.652,0 -5.03,-0.915 -6.768,-2.287 0,0 -0.092,0 -0.092,0.091 1.006,2.562 3.933,4.482 7.318,4.482 h 0.64 c 0.091,0 0.183,0.092 0.091,0.092 -0.914,0.64 -2.012,1.006 -3.292,1.097 0,0 -0.092,0.092 0,0.092 0.823,0.457 1.829,0.732 2.927,0.732 1.097,0 2.195,-0.275 3.018,-0.824 0,-0.091 0.092,0 0.092,0 0.091,0.641 0.365,1.281 0.64,1.83 0.091,0 0.091,0.091 0.183,0.183 0.091,-0.092 0.091,-0.183 0.274,-0.183 0.275,-0.549 0.549,-1.189 0.641,-1.83 h 0.091 c 0.915,0.458 1.921,0.824 3.019,0.824 1.097,0.091 2.103,-0.275 2.927,-0.732 0.091,0 0.091,-0.092 0,-0.092 -1.189,0 -2.379,-0.457 -3.293,-1.097 0,0 0,-0.092 0.091,-0.092 h 0.641 c 3.384,0 6.311,-1.92 7.317,-4.482 0,-0.091 0,-0.091 -0.092,-0.091 -1.737,1.463 -4.207,2.378 -6.86,2.287 -0.091,0 -0.091,-0.092 0,-0.092 3.568,-0.732 6.403,-3.11 7.135,-6.128 0,-0.092 -0.092,-0.092 -0.092,-0.092 -1.463,1.464 -3.384,2.561 -5.579,3.293 -0.092,0 -0.183,0 -0.092,-0.091 2.196,-2.013 3.568,-4.665 3.568,-7.684 v -0.366 c 0,0 -0.092,-0.091 -0.092,0 -0.915,1.83 -2.287,3.385 -3.933,4.757 0,0 -0.091,0 -0.091,-0.092 0.548,-1.372 0.823,-2.835 0.823,-4.299 0,-1.28 -0.092,-2.469 -0.458,-3.659 0,-0.091 -0.091,-0.091 -0.091,0 -0.457,2.379 -1.555,4.574 -3.019,6.495 0,0 -0.091,0 -0.091,-0.092 0.183,-1.006 0.366,-1.92 0.366,-2.927 0,-1.738 -0.366,-3.384 -1.098,-4.939 0,-0.091 -0.091,-0.091 -0.091,0 0,0.64 -0.092,1.281 -0.275,1.829 -0.091,-1.006 -0.091,-2.103 -0.183,-3.109 h 0.275 c -0.092,-1.098 -0.183,-2.105 -0.275,-3.202 h 0.092 0.274 c -0.091,-1.098 -0.183,-2.104 -0.274,-3.201 h 0.183 0.274 c -0.183,-1.098 -0.274,-2.104 -0.366,-3.202 h 0.183 0.274 c -0.091,-1.098 -0.365,-3.201 -0.365,-3.201 l -1.738,-1.281 -1.738,1.372 c 0,0 -0.274,2.012 -0.366,3.11 h 0.275 0.182 c -0.182,1.098 -0.274,2.104 -0.365,3.202 h 0.274 0.183 c -0.092,1.097 -0.183,2.103 -0.274,3.201 h 0.274 0.091 c -0.091,1.097 -0.183,2.104 -0.274,3.202 h 0.274 c -0.091,1.006 -0.091,2.103 -0.183,3.109 -0.182,-0.64 -0.274,-1.189 -0.274,-1.829 0,0 -0.091,-0.091 -0.091,0 -0.732,1.555 -1.098,3.201 -1.098,4.939 0,1.007 0.091,2.013 0.366,2.927 0.091,0.092 -0.092,0.183 -0.092,0.092 -1.463,-1.921 -2.561,-4.116 -3.018,-6.495 0,-0.091 -0.092,-0.091 -0.092,0 -0.274,1.19 -0.457,2.379 -0.457,3.659 0.091,1.555 0.366,2.927 0.823,4.299 0,0.092 0,0.092 -0.091,0.092 -1.647,-1.372 -3.019,-2.927 -3.933,-4.757 0,-0.091 -0.092,-0.091 -0.092,0 v 0.366 c 0,3.019 1.372,5.671 3.567,7.684 0,0 0,0.091 -0.091,0.091 -2.195,-0.732 -4.116,-1.921 -5.58,-3.293 0,0 -0.091,0 -0.091,0.092 0.732,3.018 3.567,5.396 7.134,6.128 0.092,0 0.092,0.092 0,0.092 m 18.294,6.951 c -5.214,1.921 -9.878,4.299 -13.537,6.952 -3.75,-2.653 -8.324,-5.031 -13.538,-6.952 -7.5,-2.835 -12.165,-6.768 -12.165,-17.653 v -9.33 -9.33 c 0,-10.976 4.665,-14.818 12.165,-17.654 5.214,-1.92 9.879,-4.299 13.538,-6.951 3.75,2.652 8.323,5.031 13.537,6.951 7.501,2.836 12.166,6.769 12.166,17.654 v 9.33 9.33 c 0,10.976 -4.665,14.818 -12.166,17.653"
         style="fill:#ffffff; xx=icccc-color(sRGB-IEC61966-2, 0.1, 1, 1, 1);fill-opacity:1;fill-rule:nonzero;stroke:none"
         transform="matrix(1.3333333,0,0,-1.3333333,1021.4872,4312.4112)"
         clip-path="url(#clipPath2769)" />
      <path
         id="path2770"
         d="m 0,0 c 0,-11.799 -5.305,-16.19 -13.08,-19.208 -6.769,-2.47 -11.251,-5.214 -14.086,-7.41 -2.836,2.104 -7.409,4.94 -14.087,7.41 -7.866,2.926 -13.171,7.317 -13.171,19.117 v 9.329 9.33 c 0,11.8 5.213,16.19 13.171,19.117 6.769,2.47 11.251,5.214 14.087,7.409 2.744,-2.103 7.317,-4.939 13.994,-7.409 C -5.305,34.758 0,30.368 0,18.568 Z m -11.525,42.35 c -11.708,4.391 -15.824,9.513 -15.824,9.513 0,0 -4.025,-5.122 -15.824,-9.513 -8.416,-3.109 -16.465,-8.598 -16.465,-23.782 v -9.33 -9.329 c 0,-15.184 8.049,-20.673 16.465,-23.783 11.707,-4.39 15.824,-9.512 15.824,-9.512 0,0 4.024,5.122 15.824,9.512 8.415,3.11 16.465,8.599 16.465,23.783 v 9.329 9.33 c 0,15.184 -8.05,20.673 -16.465,23.782"
         style="fill:#ffffff; xx=icccc-color(sRGB-IEC61966-2, 0.1, 1, 1, 1);fill-opacity:1;fill-rule:nonzero;stroke:none"
         transform="matrix(1.3333333,0,0,-1.3333333,1026.3653,4322.0459)"
         clip-path="url(#clipPath2771)" />
      <path
         id="path2772"
         d="m 0,0 c -0.274,-0.091 -0.549,-0.091 -0.823,-0.183 h -0.183 -0.092 -0.091 c -0.092,-0.091 -0.092,-0.091 -0.183,-0.091 -0.091,-0.092 -0.091,-0.092 -0.183,-0.092 h -0.091 -0.092 c -0.091,-0.091 -0.091,-0.091 -0.183,-0.091 0,-0.092 -0.091,-0.092 -0.183,-0.092 h -0.091 -0.092 c 0,-0.091 -0.091,-0.091 -0.183,-0.091 0,0 -0.091,-0.092 -0.183,-0.092 h -0.091 -0.092 c 0,0 -0.091,-0.091 -0.183,-0.091 -1.097,-0.458 -2.286,-1.006 -3.384,-1.647 -0.549,-0.274 -1.098,-0.64 -1.646,-1.006 -0.549,-0.457 -1.098,-0.823 -1.647,-1.189 -0.274,-0.275 -0.549,-0.457 -0.823,-0.64 -0.183,-0.092 -0.366,-0.183 -0.457,-0.275 -0.183,-0.091 -0.275,-0.183 -0.458,-0.274 -0.183,-0.092 -0.274,-0.183 -0.457,-0.275 -0.092,-0.091 -0.183,-0.183 -0.275,-0.365 1.373,0.914 5.672,4.299 9.239,5.488 0.091,0 0.091,0.091 0.183,0.091 h 0.091 0.092 c 0.091,0 0.091,0.092 0.183,0.092 0.091,0.091 0.091,0.091 0.183,0.091 h 0.091 0.092 c 0.091,0.092 0.091,0.092 0.183,0.092 0.091,0.091 0.091,0.091 0.183,0.091 h 0.091 0.092 c 0.091,0.092 0.091,0.092 0.182,0.092 0.092,0.091 0.092,0.091 0.183,0.091 h 0.092 0.091 c 0.092,0.092 0.092,0.092 0.183,0.092 0.183,0.091 0.458,0.091 0.732,0.183 C 0.549,0 1.006,0.091 1.463,0.091 2.012,0.183 2.378,0.183 2.835,0.183 H 1.463 C 1.006,0.183 0.549,0.091 0,0"
         style="fill:#ffffff; xx=icccc-color(sRGB-IEC61966-2, 0.1, 1, 1, 1);fill-opacity:1;fill-rule:nonzero;stroke:none"
         transform="matrix(1.3333333,0,0,-1.3333333,1013.5599,4312.4111)"
         clip-path="url(#clipPath2773)" />
      <path
         id="path2774"
         d="m 0,0 c 0.732,0 1.281,0.183 1.738,0.64 0.457,0.458 0.64,1.006 0.64,1.647 0,0.731 -0.183,1.281 -0.64,1.738 C 1.281,4.482 0.732,4.665 0,4.665 -0.64,4.665 -1.189,4.482 -1.646,4.025 -2.104,3.568 -2.287,3.018 -2.287,2.287 -2.287,1.646 -2.104,1.098 -1.646,0.64 -1.281,0.274 -0.732,0 0,0"
         style="fill:#ffffff; xx=icccc-color(sRGB-IEC61966-2, 0.1, 1, 1, 1);fill-opacity:1;fill-rule:nonzero;stroke:none"
         transform="matrix(1.3333333,0,0,-1.3333333,811.83893,4275.2136)"
         clip-path="url(#clipPath2775)" />
      <path
         id="path2776"
         d="m 0,0 c 0.732,0 1.281,0.183 1.738,0.64 0.457,0.458 0.64,1.006 0.64,1.647 0,0.731 -0.183,1.281 -0.64,1.738 C 1.281,4.482 0.732,4.665 0,4.665 -0.64,4.665 -1.189,4.482 -1.646,4.025 -2.104,3.568 -2.287,3.018 -2.287,2.287 -2.287,1.646 -2.104,1.098 -1.646,0.64 -1.189,0.274 -0.64,0 0,0"
         style="fill:#ffffff; xx=icccc-color(sRGB-IEC61966-2, 0.1, 1, 1, 1);fill-opacity:1;fill-rule:nonzero;stroke:none"
         transform="matrix(1.3333333,0,0,-1.3333333,855.74427,4275.2136)"
         clip-path="url(#clipPath2777)" />
      <path
         id="path2778"
         d="m 0,0 c 0.732,0 1.281,0.183 1.738,0.64 0.457,0.458 0.64,1.006 0.64,1.647 0,0.731 -0.183,1.281 -0.64,1.738 C 1.281,4.482 0.732,4.665 0,4.665 -0.64,4.665 -1.189,4.482 -1.646,4.025 -2.104,3.568 -2.287,3.018 -2.287,2.287 -2.287,1.646 -2.104,1.098 -1.646,0.64 -1.189,0.274 -0.64,0 0,0"
         style="fill:#ffffff; xx=icccc-color(sRGB-IEC61966-2, 0.1, 1, 1, 1);fill-opacity:1;fill-rule:nonzero;stroke:none"
         transform="matrix(1.3333333,0,0,-1.3333333,862.574,4275.2136)"
         clip-path="url(#clipPath2779)" />
      <path
         id="path2780"
         d="m 0,0 c -0.64,-0.366 -2.744,-1.463 -8.598,-2.744 -2.287,-0.457 -4.299,-1.464 -5.854,-3.019 -2.013,-2.012 -3.019,-4.664 -3.019,-7.866 v -9.787 c 0,-0.092 0.092,-0.183 0.183,-0.183 h 12.897 c 0,-2.561 -2.103,-4.665 -4.664,-4.665 h -7.775 c -0.092,0 -0.183,-0.092 -0.092,-0.183 l 1.738,-4.391 c 0.091,-0.091 0.183,-0.183 0.366,-0.183 h 5.854 c 5.214,0 9.421,4.208 9.421,9.422 V -0.091 C 0.183,0 0.091,0.091 0,0 m -4.574,-18.843 h -8.232 v 5.122 c 0,2.013 0.64,3.659 1.921,4.757 0.366,0.274 0.732,0.549 1.281,0.823 0.731,0.366 1.555,0.64 2.286,0.823 l 2.653,0.549 v -12.074 z"
         style="fill:#ffffff; xx=icccc-color(sRGB-IEC61966-2, 0.1, 1, 1, 1);fill-opacity:1;fill-rule:nonzero;stroke:none"
         transform="matrix(1.3333333,0,0,-1.3333333,900.86933,4281.5553)"
         clip-path="url(#clipPath2781)" />
      <path
         id="path2782"
         d="m 0,0 c -0.64,-0.366 -2.744,-1.463 -8.598,-2.744 -2.287,-0.457 -4.299,-1.464 -5.854,-3.019 -2.013,-2.012 -3.019,-4.664 -3.019,-7.866 v -5.214 h -8.232 V 9.421 c 0,0.092 -0.091,0.183 -0.183,0.092 l -4.482,-1.647 c -0.091,0 -0.091,-0.091 -0.091,-0.091 v -31.191 c 0,-0.092 0.091,-0.183 0.182,-0.183 h 12.989 12.897 4.574 c 0.091,0 0.183,0.091 0.183,0.183 v 0.914 22.411 C 0.274,0 0.091,0.091 0,0 m -4.482,-18.843 h -8.232 v 5.122 c 0,2.013 0.64,3.659 1.921,4.757 0.366,0.274 0.823,0.549 1.28,0.823 0.732,0.366 1.555,0.64 2.287,0.823 l 2.653,0.549 v -12.074 z"
         style="fill:#ffffff; xx=icccc-color(sRGB-IEC61966-2, 0.1, 1, 1, 1);fill-opacity:1;fill-rule:nonzero;stroke:none"
         transform="matrix(1.3333333,0,0,-1.3333333,870.74533,4281.5553)"
         clip-path="url(#clipPath2783)" />
      <path
         id="path2784"
         d="m 0,0 c -0.64,-0.366 -2.744,-1.463 -8.598,-2.744 -2.287,-0.457 -4.299,-1.464 -5.854,-3.019 -2.013,-2.012 -3.019,-4.664 -3.019,-7.866 v -5.214 h -3.476 -0.731 c -0.824,0.092 -1.647,0.458 -2.287,0.915 -1.189,0.915 -1.738,2.378 -1.738,4.299 v 8.872 c 0,0.092 -0.091,0.092 -0.183,0.092 l -4.573,-1.281 c -0.092,0 -0.092,-0.091 -0.092,-0.091 v -8.324 c 0,-2.927 0.915,-5.305 2.836,-6.952 1.463,-1.28 3.018,-2.012 4.848,-2.195 H -21.404 -9.879 0 c 0.091,0 0.183,0.092 0.183,0.183 V 0 C 0.183,0 0.091,0.091 0,0 m -4.574,-18.843 h -7.866 -0.366 v 5.122 c 0,2.013 0.641,3.659 1.921,4.757 0.366,0.274 0.732,0.549 1.281,0.823 0.731,0.366 1.555,0.64 2.286,0.823 l 2.653,0.549 v -12.074 z"
         style="fill:#ffffff; xx=icccc-color(sRGB-IEC61966-2, 0.1, 1, 1, 1);fill-opacity:1;fill-rule:nonzero;stroke:none"
         transform="matrix(1.3333333,0,0,-1.3333333,823.42507,4281.5553)"
         clip-path="url(#clipPath2785)" />
      <path
         id="path2786"
         d="m 0,0 -4.482,-1.646 c -0.092,0 -0.092,-0.092 -0.092,-0.092 v -30.093 c 0,-0.092 0.092,-0.183 0.183,-0.183 h 4.482 c 0.092,0 0.183,0.091 0.183,0.183 v 31.74 C 0.183,-0.091 0.091,0 0,0"
         style="fill:#ffffff; xx=icccc-color(sRGB-IEC61966-2, 0.1, 1, 1, 1);fill-opacity:1;fill-rule:nonzero;stroke:none"
         transform="matrix(1.3333333,0,0,-1.3333333,913.55307,4270.3351)"
         clip-path="url(#clipPath2787)" />
      <path
         id="path2788"
         d="m 0,0 4.573,1.738 0.092,0.091 v 1.738 c 0,0.092 -0.092,0.092 -0.092,0.092 L 0,1.921 -0.091,1.829 V 0.091 C -0.091,0 0,-0.091 0,0"
         style="fill:#ffffff; xx=icccc-color(sRGB-IEC61966-2, 0.1, 1, 1, 1);fill-opacity:1;fill-rule:nonzero;stroke:none"
         transform="matrix(1.3333333,0,0,-1.3333333,907.57707,4270.5791)"
         clip-path="url(#clipPath2789)" />
      <path
         id="path2790"
         d="m 0,0 v -1.829 c 0,-0.092 0,-0.183 -0.091,-0.183 -0.275,-0.183 -1.007,-0.641 -1.738,-0.823 -1.555,-0.458 -1.281,-2.287 -0.183,-2.013 1.006,0.274 -1.83,-2.012 -1.83,-2.012 l 0.092,0.823 c 0,0 -1.007,0.732 -1.007,1.738 0,1.098 0.549,2.287 2.653,2.927 1.281,0.457 1.83,1.006 2.013,1.281 C -0.091,0.091 0,0.091 0,0"
         style="fill:#ffffff; xx=icccc-color(sRGB-IEC61966-2, 0.1, 1, 1, 1);fill-opacity:1;fill-rule:nonzero;stroke:none"
         transform="matrix(1.3333333,0,0,-1.3333333,913.79693,4260.2125)"
         clip-path="url(#clipPath2791)" />
      <path
         id="path2792"
         d="M 0,0 C 0.183,0 0.366,0.091 0.457,0.183 0.549,0.274 0.64,0.457 0.64,0.64 0.64,0.823 0.549,1.006 0.457,1.098 0.366,1.189 0.183,1.281 0,1.281 -0.183,1.281 -0.366,1.189 -0.457,1.098 -0.549,1.006 -0.64,0.823 -0.64,0.64 -0.64,0.457 -0.549,0.274 -0.457,0.183 -0.366,0.091 -0.183,0 0,0"
         style="fill:#ffffff; xx=icccc-color(sRGB-IEC61966-2, 0.1, 1, 1, 1);fill-opacity:1;fill-rule:nonzero;stroke:none"
         transform="matrix(1.3333333,0,0,-1.3333333,807.93613,4333.6321)"
         clip-path="url(#clipPath2793)" />
      <path
         id="path2794"
         d="M 0,0 C 0.183,0 0.366,0.091 0.457,0.183 0.549,0.274 0.64,0.457 0.64,0.64 0.64,0.823 0.549,1.006 0.457,1.098 0.366,1.189 0.183,1.281 0,1.281 -0.183,1.281 -0.366,1.189 -0.457,1.098 -0.549,1.006 -0.64,0.823 -0.64,0.64 -0.64,0.457 -0.549,0.274 -0.457,0.183 -0.274,0.091 -0.183,0 0,0"
         style="fill:#ffffff; xx=icccc-color(sRGB-IEC61966-2, 0.1, 1, 1, 1);fill-opacity:1;fill-rule:nonzero;stroke:none"
         transform="matrix(1.3333333,0,0,-1.3333333,805.61893,4333.6321)"
         clip-path="url(#clipPath2795)" />
      <path
         id="path2796"
         d="M 0,0 C 0,-0.915 -0.183,-1.555 -0.549,-1.921 -0.732,-2.104 -1.006,-2.195 -1.372,-2.195 H -1.646 -1.738 -2.012 V 6.769 L -3.11,6.22 V -2.104 H -4.757 V 2.744 L -5.854,2.195 V -2.104 H -6.22 c -0.183,0 -0.366,0.092 -0.732,0.275 l -0.731,-0.824 c 0.457,-0.365 0.914,-0.64 1.463,-0.64 h 4.574 0.091 0.183 c 0.64,0 1.189,0.183 1.646,0.64 0.641,0.549 0.915,1.464 0.915,2.744 V 6.86 L 0.091,6.311 C 0,6.129 0,0 0,0"
         style="fill:#ffffff; xx=icccc-color(sRGB-IEC61966-2, 0.1, 1, 1, 1);fill-opacity:1;fill-rule:nonzero;stroke:none"
         transform="matrix(1.3333333,0,0,-1.3333333,829.40107,4338.2665)"
         clip-path="url(#clipPath2797)" />
      <path
         id="path2798"
         d="M 0,0 C 0.183,0 0.366,0.091 0.457,0.183 0.549,0.274 0.64,0.457 0.64,0.64 0.64,0.823 0.549,1.006 0.457,1.098 0.366,1.189 0.183,1.281 0,1.281 -0.183,1.281 -0.366,1.189 -0.457,1.098 -0.549,1.006 -0.64,0.823 -0.64,0.64 -0.64,0.457 -0.549,0.274 -0.457,0.183 -0.366,0.091 -0.183,0 0,0"
         style="fill:#ffffff; xx=icccc-color(sRGB-IEC61966-2, 0.1, 1, 1, 1);fill-opacity:1;fill-rule:nonzero;stroke:none"
         transform="matrix(1.3333333,0,0,-1.3333333,839.40173,4333.6321)"
         clip-path="url(#clipPath2799)" />
      <path
         id="path2800"
         d="M 0,0 C 0.183,0 0.366,0.091 0.457,0.183 0.549,0.274 0.64,0.457 0.64,0.64 0.64,0.823 0.549,1.006 0.457,1.098 0.366,1.189 0.183,1.281 0,1.281 -0.183,1.281 -0.366,1.189 -0.457,1.098 -0.549,1.006 -0.64,0.823 -0.64,0.64 -0.64,0.457 -0.549,0.274 -0.457,0.183 -0.366,0.091 -0.183,0 0,0"
         style="fill:#ffffff; xx=icccc-color(sRGB-IEC61966-2, 0.1, 1, 1, 1);fill-opacity:1;fill-rule:nonzero;stroke:none"
         transform="matrix(1.3333333,0,0,-1.3333333,841.84093,4333.6321)"
         clip-path="url(#clipPath2801)" />
      <path
         id="path2802"
         d="M 0,0 C 0,0.915 0.091,1.829 -0.732,2.652 -1.281,3.201 -2.378,3.476 -3.11,3.567 -3.75,3.659 -4.299,3.842 -4.939,4.116 L -5.031,4.208 V -0.64 H -6.494 V 4.208 L -6.586,4.116 C -7.135,3.842 -7.775,3.659 -8.415,3.567 -9.147,3.476 -10.153,3.201 -10.793,2.652 -11.708,1.738 -11.525,0.915 -11.525,0 V -1.738 H -11.434 0 v 0.366 0.823 z m -7.592,-0.64 h -2.744 V 0 c 0,0.64 0.274,1.372 0.64,1.829 0.823,0.823 2.104,0.732 2.104,0.732 z m 6.494,0 h -2.744 v 3.11 c 0,0 1.372,0.091 2.104,-0.732 0.366,-0.366 0.64,-1.189 0.64,-1.829 z"
         style="fill:#ffffff; xx=icccc-color(sRGB-IEC61966-2, 0.1, 1, 1, 1);fill-opacity:1;fill-rule:nonzero;stroke:none"
         transform="matrix(1.3333333,0,0,-1.3333333,852.32947,4340.3399)"
         clip-path="url(#clipPath2803)" />
      <path
         id="path2804"
         d="M 0,0 C 0,-0.915 -0.183,-1.555 -0.549,-1.921 -0.732,-2.104 -1.006,-2.195 -1.372,-2.195 H -1.646 -1.738 -5.58 -5.763 v 0.64 c 0,0.64 0.183,1.464 0.549,1.921 0.823,0.823 3.293,0.732 3.293,0.732 V 2.744 L -2.012,2.653 C -2.561,2.378 -3.201,2.195 -3.842,2.104 -4.573,2.012 -5.58,1.738 -6.22,1.189 -7.135,0.274 -6.952,-0.64 -6.952,-1.555 V -2.104 H -7.683 -7.775 -8.69 V 6.769 L -9.787,6.22 v -9.33 h 2.012 0.092 5.945 0.092 0.183 c 0.64,0 1.189,0.183 1.646,0.64 0.64,0.549 0.915,1.464 0.915,2.744 V 7.043 L 0,6.494 Z"
         style="fill:#ffffff; xx=icccc-color(sRGB-IEC61966-2, 0.1, 1, 1, 1);fill-opacity:1;fill-rule:nonzero;stroke:none"
         transform="matrix(1.3333333,0,0,-1.3333333,867.3304,4338.2665)"
         clip-path="url(#clipPath2805)" />
      <path
         id="path2806"
         d="M 0,0 H 1.098 V 10.153 L 0,9.513 Z"
         style="fill:#ffffff; xx=icccc-color(sRGB-IEC61966-2, 0.1, 1, 1, 1);fill-opacity:1;fill-rule:nonzero;stroke:none"
         transform="matrix(1.3333333,0,0,-1.3333333,870.50133,4342.7789)"
         clip-path="url(#clipPath2807)" />
      <path
         id="path2808"
         d="M 0,0 C 0.183,0 0.366,0.091 0.457,0.183 0.549,0.274 0.64,0.457 0.64,0.64 0.64,0.823 0.549,1.006 0.457,1.098 0.366,1.189 0.183,1.281 0,1.281 -0.183,1.281 -0.366,1.189 -0.457,1.098 -0.549,1.006 -0.64,0.823 -0.64,0.64 -0.64,0.457 -0.549,0.274 -0.457,0.183 -0.274,0.091 -0.183,0 0,0"
         style="fill:#ffffff; xx=icccc-color(sRGB-IEC61966-2, 0.1, 1, 1, 1);fill-opacity:1;fill-rule:nonzero;stroke:none"
         transform="matrix(1.3333333,0,0,-1.3333333,879.4044,4333.6321)"
         clip-path="url(#clipPath2809)" />
      <path
         id="path2810"
         d="M 0,0 C 0.183,0 0.366,0.091 0.457,0.183 0.549,0.274 0.64,0.457 0.64,0.64 0.64,0.823 0.549,1.006 0.457,1.098 0.366,1.189 0.183,1.281 0,1.281 -0.183,1.281 -0.366,1.189 -0.457,1.098 -0.549,1.006 -0.64,0.823 -0.64,0.64 -0.64,0.457 -0.549,0.274 -0.457,0.183 -0.274,0.091 -0.183,0 0,0"
         style="fill:#ffffff; xx=icccc-color(sRGB-IEC61966-2, 0.1, 1, 1, 1);fill-opacity:1;fill-rule:nonzero;stroke:none"
         transform="matrix(1.3333333,0,0,-1.3333333,881.8436,4333.6321)"
         clip-path="url(#clipPath2811)" />
      <path
         id="path2812"
         d="M 0,0 C -0.183,0 -0.366,-0.091 -0.457,-0.183 -0.549,-0.274 -0.64,-0.457 -0.64,-0.64 c 0,-0.183 0.091,-0.366 0.183,-0.458 0.091,-0.091 0.274,-0.183 0.457,-0.183 0.183,0 0.366,0.092 0.457,0.183 0.092,0.092 0.183,0.275 0.183,0.458 0,0.183 -0.091,0.366 -0.183,0.457 C 0.366,-0.091 0.183,0 0,0"
         style="fill:#ffffff; xx=icccc-color(sRGB-IEC61966-2, 0.1, 1, 1, 1);fill-opacity:1;fill-rule:nonzero;stroke:none"
         transform="matrix(1.3333333,0,0,-1.3333333,892.454,4344.1207)"
         clip-path="url(#clipPath2813)" />
      <path
         id="path2814"
         d="M 0,0 C -0.183,0 -0.366,-0.091 -0.457,-0.183 -0.549,-0.274 -0.64,-0.457 -0.64,-0.64 c 0,-0.183 0.091,-0.366 0.183,-0.458 0.091,-0.091 0.274,-0.183 0.457,-0.183 0.183,0 0.366,0.092 0.457,0.183 0.092,0.092 0.183,0.275 0.183,0.458 0,0.183 -0.091,0.366 -0.183,0.457 C 0.366,-0.091 0.183,0 0,0"
         style="fill:#ffffff; xx=icccc-color(sRGB-IEC61966-2, 0.1, 1, 1, 1);fill-opacity:1;fill-rule:nonzero;stroke:none"
         transform="matrix(1.3333333,0,0,-1.3333333,894.8932,4344.1207)"
         clip-path="url(#clipPath2815)" />
      <path
         id="path2816"
         d="m 0,0 c 0,-0.915 -0.183,-1.555 -0.549,-1.921 -0.183,-0.183 -0.457,-0.274 -0.823,-0.274 h -0.274 -0.092 -0.183 v 0.914 c 0,0.915 0.092,1.555 -0.732,2.379 -0.548,0.548 -1.646,0.823 -2.378,0.914 -0.64,0.092 -1.189,0.275 -1.829,0.549 L -6.952,2.653 V 1.006 h 1.098 c 0,0 1.372,0.092 2.104,-0.732 0.366,-0.365 0.64,-0.914 0.64,-1.555 v -1.006 h -0.183 -0.64 v 0.275 c 0,0.914 -0.183,1.555 -0.641,1.921 -0.365,0.274 -0.731,0.457 -1.189,0.457 -0.457,0 -0.823,-0.183 -1.189,-0.457 -0.457,-0.366 -0.64,-1.007 -0.64,-1.921 V -2.287 H -8.781 -8.873 -9.97 v 4.848 l -1.098,-0.549 v -4.299 h -2.287 -0.091 -1.098 v 4.848 l -1.097,-0.549 v -4.299 h -3.385 V 2.561 L -19.117,2.47 c -0.549,-0.275 -1.189,-0.458 -1.83,-0.549 -0.731,-0.092 -1.738,-0.366 -2.378,-0.915 -0.914,-0.915 -0.732,-1.738 -0.732,-2.652 v -1.738 h 10.611 0.091 4.482 0.092 7.043 0.092 0.183 c 0.64,0 1.189,0.183 1.646,0.64 0.64,0.549 0.915,1.463 0.915,2.744 V 6.586 L 0,6.037 V 0 m -20.215,-2.195 h -2.744 v 0.914 c 0,0.641 0.274,1.098 0.64,1.555 0.824,0.824 2.104,0.732 2.104,0.732 z m 15.184,0 h -1.372 v 0.274 c 0,0.275 0,0.549 0.092,0.823 0.091,0.366 0.457,0.549 0.823,0.366 0.457,-0.183 0.457,-0.731 0.457,-1.097 v -0.092 z"
         style="fill:#ffffff; xx=icccc-color(sRGB-IEC61966-2, 0.1, 1, 1, 1);fill-opacity:1;fill-rule:nonzero;stroke:none"
         transform="matrix(1.3333333,0,0,-1.3333333,909.04053,4338.2665)"
         clip-path="url(#clipPath2817)" />
      <path
         id="path2818"
         d="m 0,0 v -9.421 h 1.098 v 9.97 z"
         style="fill:#ffffff; xx=icccc-color(sRGB-IEC61966-2, 0.1, 1, 1, 1);fill-opacity:1;fill-rule:nonzero;stroke:none"
         transform="matrix(1.3333333,0,0,-1.3333333,912.21147,4330.2171)"
         clip-path="url(#clipPath2819)" />
      <path
         id="path2820"
         d="M 0,0 -0.091,-0.091 C -0.64,-0.366 -1.281,-0.549 -1.921,-0.64 -2.653,-0.732 -3.659,-1.006 -4.299,-1.555 -5.214,-2.47 -5.031,-3.018 -5.031,-3.933 V -4.848 H -7.043 V 4.024 L -8.141,3.476 v -9.33 H 0 V -5.305 0 m -1.189,-4.848 h -2.744 v 0.915 c 0,0.64 0.274,1.097 0.64,1.555 0.823,0.823 2.104,0.732 2.104,0.732 z"
         style="fill:#ffffff; xx=icccc-color(sRGB-IEC61966-2, 0.1, 1, 1, 1);fill-opacity:1;fill-rule:nonzero;stroke:none"
         transform="matrix(1.3333333,0,0,-1.3333333,809.7656,4334.7296)"
         clip-path="url(#clipPath2821)" />
      <path
         id="path2822"
         d="M 0,0 C -0.732,-0.091 -1.738,-0.366 -2.378,-0.915 -3.293,-1.829 -3.11,-2.378 -3.11,-3.293 V -5.305 H 0.823 V -6.311 C 0.823,-6.677 0.732,-6.952 0.549,-7.135 0.366,-7.409 0,-7.501 -0.549,-7.501 h -1.189 l 0.549,-1.097 h 0.64 c 0.823,0 1.464,0.274 1.921,0.732 0.366,0.457 0.64,0.914 0.64,1.555 v 0.182 0.915 5.946 L 1.921,0.64 C 1.189,0.274 0.549,0.091 0,0 m 0.732,-4.207 h -2.744 v 0.914 c 0,0.64 0.274,1.098 0.64,1.555 0.823,0.823 2.104,0.732 2.104,0.732 z"
         style="fill:#ffffff; xx=icccc-color(sRGB-IEC61966-2, 0.1, 1, 1, 1);fill-opacity:1;fill-rule:nonzero;stroke:none"
         transform="matrix(1.3333333,0,0,-1.3333333,815.13187,4335.5835)"
         clip-path="url(#clipPath2823)" />
      <path
         id="path2824"
         d="M 0,0 C -0.732,-0.091 -1.738,-0.366 -2.378,-0.915 -3.293,-1.829 -3.11,-2.378 -3.11,-3.293 v -0.914 h -3.11 c -0.274,0 -0.457,0.091 -0.64,0.274 -0.366,0.274 -0.458,0.64 -0.458,1.189 v 2.561 l -1.097,-0.549 v -2.012 c 0,-0.823 0.274,-1.463 0.823,-2.013 0.366,-0.365 0.823,-0.548 1.372,-0.64 h 3.202 4.939 V 0.549 L 1.829,0.457 C 1.281,0.274 0.64,0.091 0,0 m 0.823,-4.207 h -2.744 v 0.914 c 0,0.64 0.275,1.098 0.64,1.555 0.824,0.823 2.104,0.732 2.104,0.732 z"
         style="fill:#ffffff; xx=icccc-color(sRGB-IEC61966-2, 0.1, 1, 1, 1);fill-opacity:1;fill-rule:nonzero;stroke:none"
         transform="matrix(1.3333333,0,0,-1.3333333,794.1548,4335.5835)"
         clip-path="url(#clipPath2825)" />
      <path
         id="path2826"
         d="M 0,0 C 0.183,0 0.366,0.091 0.457,0.183 0.549,0.274 0.64,0.457 0.64,0.64 0.64,0.823 0.549,1.006 0.457,1.098 0.366,1.189 0.183,1.281 0,1.281 -0.183,1.281 -0.366,1.189 -0.457,1.098 -0.549,1.006 -0.64,0.823 -0.64,0.64 -0.64,0.457 -0.549,0.274 -0.457,0.183 -0.274,0.091 -0.183,0 0,0"
         style="fill:#ffffff; xx=icccc-color(sRGB-IEC61966-2, 0.1, 1, 1, 1);fill-opacity:1;fill-rule:nonzero;stroke:none"
         transform="matrix(1.3333333,0,0,-1.3333333,793.66693,4333.6321)"
         clip-path="url(#clipPath2827)" />
      <path
         id="path2828"
         d="m 0,0 h 1.646 c 0.092,0.183 0.183,0.274 0.183,0.457 h -0.64 c -0.274,0 -0.549,0.183 -0.549,0.549 0,0.275 0.183,0.549 0.549,0.549 0.183,0 0.274,-0.092 0.457,-0.092 C 1.738,1.646 1.738,1.738 1.738,1.829 1.646,1.921 1.372,1.921 1.189,1.921 0.549,1.921 0.183,1.463 0.183,0.915 0.183,0.732 0.274,0.549 0.366,0.366 H -0.183 C -0.183,0.457 0,0 0,0"
         style="fill:#ffffff; xx=icccc-color(sRGB-IEC61966-2, 0.1, 1, 1, 1);fill-opacity:1;fill-rule:nonzero;stroke:none"
         transform="matrix(1.3333333,0,0,-1.3333333,887.8196,4332.1685)"
         clip-path="url(#clipPath2829)" />
      <path
         id="path2830"
         d="m 0,0 h 1.646 c 0.092,0.183 0.092,0.274 0.183,0.457 h -0.64 c -0.274,0 -0.549,0.183 -0.549,0.549 0,0.275 0.183,0.549 0.549,0.549 0.183,0 0.274,-0.092 0.457,-0.092 0,0.183 0.092,0.275 0.092,0.366 C 1.646,1.921 1.372,1.921 1.189,1.921 0.549,1.921 0.183,1.463 0.183,0.915 0.183,0.732 0.274,0.549 0.366,0.366 H -0.183 C -0.183,0.457 0,0 0,0"
         style="fill:#ffffff; xx=icccc-color(sRGB-IEC61966-2, 0.1, 1, 1, 1);fill-opacity:1;fill-rule:nonzero;stroke:none"
         transform="matrix(1.3333333,0,0,-1.3333333,820.62,4332.1685)"
         clip-path="url(#clipPath2831)" />
      <path
         id="path2832"
         d="m 0,0 h -0.915 c -0.091,0 -0.091,0 -0.091,0.091 v 0.183 c 0,0.092 0.091,0.092 0.091,0.092 h 1.372 c 0.092,0 0.092,-0.092 0.092,-0.183 v -1.372 c 0,-0.274 0,-0.274 -0.092,-0.366 -0.183,-0.274 -0.731,-0.549 -1.463,-0.549 -1.555,0 -2.287,1.189 -2.287,2.378 0,1.464 0.915,2.379 2.195,2.379 C 0,2.653 0.549,2.012 0.549,1.646 0.549,1.463 0.366,1.372 0.274,1.372 0.091,1.372 0,1.463 -0.091,1.738 c -0.092,0.183 -0.366,0.549 -1.007,0.549 -0.731,0 -1.463,-0.641 -1.463,-1.921 0,-1.189 0.549,-2.104 1.646,-2.104 0.275,0 0.549,0.092 0.641,0.183 0.183,0.092 0.183,0.274 0.183,0.457 C 0,-1.006 0,0 0,0"
         style="fill:#ffffff; xx=icccc-color(sRGB-IEC61966-2, 0.1, 1, 1, 1);fill-opacity:1;fill-rule:nonzero;stroke:none"
         transform="matrix(1.3333333,0,0,-1.3333333,787.0812,4354.4872)"
         clip-path="url(#clipPath2833)" />
      <path
         id="path2834"
         d="m 0,0 v -1.829 h 1.829 c 0.092,0 0.092,0 0.092,-0.092 v -0.183 c 0,-0.091 0,-0.091 -0.092,-0.091 h -2.286 c -0.092,0 -0.092,0 -0.092,0.091 v 4.391 c 0,0.091 0,0.183 0.092,0.183 h 2.286 c 0.092,0 0.092,0 0.092,-0.092 V 2.104 c 0,-0.092 0,-0.092 -0.092,-0.092 H 0 V 0.457 h 1.463 c 0.092,0 0.092,0 0.092,-0.091 V 0.091 C 1.555,0 1.463,0 1.463,0 Z"
         style="fill:#ffffff; xx=icccc-color(sRGB-IEC61966-2, 0.1, 1, 1, 1);fill-opacity:1;fill-rule:nonzero;stroke:none"
         transform="matrix(1.3333333,0,0,-1.3333333,790.13013,4354.1212)"
         clip-path="url(#clipPath2835)" />
      <path
         id="path2836"
         d="m 0,0 v 3.384 c 0,0.092 0,0.092 0.091,0.092 h 0.366 c 0.092,0 0.092,0 0.092,-0.092 v -4.39 c 0,-0.092 0,-0.092 -0.092,-0.092 H 0.183 c -0.092,0 -0.092,0 -0.183,0.092 l -2.653,3.659 v -3.568 c 0,-0.091 0,-0.091 -0.091,-0.091 H -3.11 c -0.091,0 -0.091,0 -0.091,0.091 v 4.391 c 0,0.091 0,0.091 0.091,0.091 h 0.366 c 0.091,0 0.091,0 0.183,-0.091 C -2.47,3.476 0,0 0,0"
         style="fill:#ffffff; xx=icccc-color(sRGB-IEC61966-2, 0.1, 1, 1, 1);fill-opacity:1;fill-rule:nonzero;stroke:none"
         transform="matrix(1.3333333,0,0,-1.3333333,798.05747,4355.5847)"
         clip-path="url(#clipPath2837)" />
      <path
         id="path2838"
         d="m 0,0 v -1.829 h 1.829 c 0.092,0 0.092,0 0.092,-0.092 v -0.183 c 0,-0.091 -0.092,-0.091 -0.092,-0.091 h -2.286 c -0.092,0 -0.092,0 -0.092,0.091 v 4.391 c 0,0.091 0,0.183 0.092,0.183 h 2.286 c 0.092,0 0.092,0 0.092,-0.092 V 2.104 c 0,-0.092 0,-0.092 -0.092,-0.092 H 0 V 0.457 h 1.463 c 0.092,0 0.092,0 0.092,-0.091 V 0.091 C 1.555,0 1.555,0 1.463,0 Z"
         style="fill:#ffffff; xx=icccc-color(sRGB-IEC61966-2, 0.1, 1, 1, 1);fill-opacity:1;fill-rule:nonzero;stroke:none"
         transform="matrix(1.3333333,0,0,-1.3333333,801.1064,4354.1212)"
         clip-path="url(#clipPath2839)" />
      <path
         id="path2840"
         d="m 0,0 c 0,0.183 0,0.183 0.091,0.183 0.183,0.091 0.641,0.091 1.007,0.091 0.365,0 0.914,0 1.28,-0.365 0.092,-0.092 0.366,-0.366 0.366,-0.915 0,-0.64 -0.457,-1.098 -1.189,-1.281 l 1.372,-2.012 c 0,-0.092 0.091,-0.092 0.091,-0.092 0,-0.091 -0.091,-0.091 -0.091,-0.091 H 2.47 c -0.092,0 -0.092,0 -0.183,0.091 L 1.189,-2.653 C 1.098,-2.561 1.006,-2.378 0.823,-2.378 0.64,-2.378 0.64,-2.561 0.64,-2.653 v -1.738 c 0,-0.091 0,-0.183 -0.091,-0.183 H 0.183 c -0.092,0 -0.092,0 -0.092,0.092 C 0,-4.299 0,0 0,0 m 0.64,-2.012 h 0.549 c 0.549,0.091 1.006,0.366 1.006,1.006 0,0.915 -0.823,0.915 -1.097,0.915 H 0.64 Z"
         style="fill:#ffffff; xx=icccc-color(sRGB-IEC61966-2, 0.1, 1, 1, 1);fill-opacity:1;fill-rule:nonzero;stroke:none"
         transform="matrix(1.3333333,0,0,-1.3333333,804.8872,4351.1941)"
         clip-path="url(#clipPath2841)" />
      <path
         id="path2842"
         d="m 0,0 c 0,0.183 0,0.183 0.091,0.183 0.183,0.091 0.641,0.091 1.007,0.091 0.365,0 0.914,0 1.28,-0.365 0.092,-0.092 0.366,-0.366 0.366,-0.915 0,-0.64 -0.457,-1.098 -1.189,-1.281 l 1.372,-2.012 0.091,-0.092 c 0,-0.091 -0.091,-0.091 -0.091,-0.091 H 2.47 c -0.092,0 -0.092,0 -0.183,0.091 L 1.189,-2.653 C 1.098,-2.561 1.006,-2.378 0.823,-2.378 0.64,-2.378 0.64,-2.561 0.64,-2.653 v -1.738 c 0,-0.091 0,-0.183 -0.091,-0.183 H 0.183 c -0.092,0 -0.092,0 -0.092,0.092 V 0 Z m 0.64,-2.012 h 0.549 c 0.549,0.091 1.006,0.366 1.006,1.006 0,0.915 -0.823,0.915 -1.097,0.915 H 0.64 Z"
         style="fill:#ffffff; xx=icccc-color(sRGB-IEC61966-2, 0.1, 1, 1, 1);fill-opacity:1;fill-rule:nonzero;stroke:none"
         transform="matrix(1.3333333,0,0,-1.3333333,850.622,4351.1941)"
         clip-path="url(#clipPath2843)" />
      <path
         id="path2844"
         d="m 0,0 c 0,0.183 0,0.183 0.091,0.183 0.183,0.091 0.641,0.091 1.007,0.091 0.365,0 0.914,0 1.28,-0.365 0.092,-0.092 0.366,-0.366 0.366,-0.915 0,-0.64 -0.457,-1.098 -1.189,-1.281 l 1.372,-2.012 c 0,-0.092 0.091,-0.092 0.091,-0.092 0,-0.091 -0.091,-0.091 -0.091,-0.091 H 2.47 c -0.092,0 -0.092,0 -0.183,0.091 L 1.189,-2.653 C 1.098,-2.561 1.006,-2.378 0.823,-2.378 0.64,-2.378 0.64,-2.561 0.64,-2.653 v -1.738 c 0,-0.091 0,-0.183 -0.091,-0.183 H 0.183 c -0.092,0 -0.092,0 -0.092,0.092 V 0 Z m 0.64,-2.012 h 0.549 c 0.549,0.091 1.006,0.366 1.006,1.006 0,0.915 -0.823,0.915 -1.097,0.915 H 0.64 Z"
         style="fill:#ffffff; xx=icccc-color(sRGB-IEC61966-2, 0.1, 1, 1, 1);fill-opacity:1;fill-rule:nonzero;stroke:none"
         transform="matrix(1.3333333,0,0,-1.3333333,879.89227,4351.3161)"
         clip-path="url(#clipPath2845)" />
      <path
         id="path2846"
         d="m 0,0 h -1.372 l -0.64,-1.738 c 0,-0.091 -0.092,-0.091 -0.183,-0.091 H -2.47 c 0,0 -0.091,0 -0.091,0.091 v 0.092 l 1.738,4.39 c 0,0.091 0.091,0.091 0.091,0.091 h 0.275 c 0.091,0 0.091,0 0.091,-0.091 l 1.738,-4.39 v -0.092 c 0,-0.091 0,-0.091 -0.091,-0.091 H 0.823 c -0.091,0 -0.091,0 -0.183,0.091 L 0,0 M -0.183,0.366 -0.732,1.921 -1.281,0.366 Z"
         style="fill:#ffffff; xx=icccc-color(sRGB-IEC61966-2, 0.1, 1, 1, 1);fill-opacity:1;fill-rule:nonzero;stroke:none"
         transform="matrix(1.3333333,0,0,-1.3333333,812.69267,4354.6091)"
         clip-path="url(#clipPath2847)" />
      <path
         id="path2848"
         d="m 0,0 h -1.463 l -0.641,-1.738 c 0,-0.091 -0.091,-0.091 -0.183,-0.091 h -0.274 c 0,0 -0.092,0 -0.092,0.091 v 0.092 l 1.738,4.39 c 0,0.091 0.092,0.091 0.092,0.091 h 0.274 c 0.092,0 0.092,0 0.092,-0.091 l 1.738,-4.39 v -0.092 c 0,-0.091 0,-0.091 -0.092,-0.091 H 0.732 c -0.092,0 -0.092,0 -0.183,0.091 C 0.64,-1.738 0,0 0,0 M -0.183,0.366 -0.732,1.921 -1.281,0.366 Z"
         style="fill:#ffffff; xx=icccc-color(sRGB-IEC61966-2, 0.1, 1, 1, 1);fill-opacity:1;fill-rule:nonzero;stroke:none"
         transform="matrix(1.3333333,0,0,-1.3333333,825.01053,4354.7311)"
         clip-path="url(#clipPath2849)" />
      <path
         id="path2850"
         d="m 0,0 h 1.738 c 0.091,0 0.091,0 0.091,-0.091 v -0.275 c 0,-0.091 -0.091,-0.091 -0.091,-0.091 h -2.287 c -0.091,0 -0.091,0 -0.091,0.091 v 4.391 c 0,0.091 0,0.091 0.091,0.091 h 0.458 C 0,4.116 0,4.116 0,4.025 Z"
         style="fill:#ffffff; xx=icccc-color(sRGB-IEC61966-2, 0.1, 1, 1, 1);fill-opacity:1;fill-rule:nonzero;stroke:none"
         transform="matrix(1.3333333,0,0,-1.3333333,816.10747,4356.4385)"
         clip-path="url(#clipPath2851)" />
      <path
         id="path2852"
         d="m 0,0 h -1.555 -0.457 -1.555 c -0.092,0 -0.092,0 -0.092,-0.091 v -0.275 c 0,-0.091 0,-0.091 0.092,-0.091 h 1.463 v -4.117 c 0,-0.091 0,-0.091 0.092,-0.091 h 0.457 c 0.092,0 0.092,0 0.092,0.091 v 4.117 H 0 c 0.091,0 0.091,0 0.091,0.091 v 0.275 C 0.091,0 0.091,0 0,0"
         style="fill:#ffffff; xx=icccc-color(sRGB-IEC61966-2, 0.1, 1, 1, 1);fill-opacity:1;fill-rule:nonzero;stroke:none"
         transform="matrix(1.3333333,0,0,-1.3333333,837.69427,4350.9503)"
         clip-path="url(#clipPath2853)" />
      <path
         id="path2854"
         d="m 0,0 h -1.555 -0.457 -1.555 c -0.092,0 -0.092,0 -0.092,-0.091 v -0.275 c 0,-0.091 0,-0.091 0.092,-0.091 h 1.463 v -4.117 c 0,-0.091 0,-0.091 0.092,-0.091 h 0.457 c 0.092,0 0.092,0 0.092,0.091 v 4.117 H 0 c 0.092,0 0.092,0 0.092,0.091 v 0.275 C 0.091,0 0.091,0 0,0"
         style="fill:#ffffff; xx=icccc-color(sRGB-IEC61966-2, 0.1, 1, 1, 1);fill-opacity:1;fill-rule:nonzero;stroke:none"
         transform="matrix(1.3333333,0,0,-1.3333333,861.72027,4350.9503)"
         clip-path="url(#clipPath2855)" />
      <path
         id="path2856"
         d="m 0,0 c 0.091,0.091 0.274,0.183 0.366,0.183 v 3.842 c 0,0.091 0,0.091 -0.092,0.091 h -0.457 c -0.091,0 -0.091,0 -0.091,-0.091 v -4.208 c 0.091,0 0.183,0.092 0.274,0.183"
         style="fill:#ffffff; xx=icccc-color(sRGB-IEC61966-2, 0.1, 1, 1, 1);fill-opacity:1;fill-rule:nonzero;stroke:none"
         transform="matrix(1.3333333,0,0,-1.3333333,839.15773,4356.4385)"
         clip-path="url(#clipPath2857)" />
      <path
         id="path2858"
         d="m 0,0 c -0.091,-0.091 -0.274,-0.183 -0.366,-0.183 v -3.842 c 0,-0.091 0,-0.091 0.092,-0.091 h 0.457 c 0.091,0 0.091,0 0.091,0.091 V 0.183 C 0.183,0.091 0.091,0 0,0"
         style="fill:#ffffff; xx=icccc-color(sRGB-IEC61966-2, 0.1, 1, 1, 1);fill-opacity:1;fill-rule:nonzero;stroke:none"
         transform="matrix(1.3333333,0,0,-1.3333333,839.27973,4351.56)"
         clip-path="url(#clipPath2859)" />
      <path
         id="path2860"
         d="m 0,0 c 0.091,0.091 0.274,0.183 0.366,0.183 v 3.842 c 0,0.091 0,0.091 -0.092,0.091 h -0.457 c -0.091,0 -0.091,0 -0.091,-0.091 v -4.208 c 0.091,0 0.183,0.092 0.274,0.183"
         style="fill:#ffffff; xx=icccc-color(sRGB-IEC61966-2, 0.1, 1, 1, 1);fill-opacity:1;fill-rule:nonzero;stroke:none"
         transform="matrix(1.3333333,0,0,-1.3333333,842.93853,4356.4385)"
         clip-path="url(#clipPath2861)" />
      <path
         id="path2862"
         d="m 0,0 c -0.091,-0.091 -0.274,-0.183 -0.366,-0.183 v -3.842 c 0,-0.091 0,-0.091 0.092,-0.091 h 0.457 c 0.091,0 0.091,0 0.091,0.091 V 0.183 C 0.091,0.091 0.091,0 0,0"
         style="fill:#ffffff; xx=icccc-color(sRGB-IEC61966-2, 0.1, 1, 1, 1);fill-opacity:1;fill-rule:nonzero;stroke:none"
         transform="matrix(1.3333333,0,0,-1.3333333,843.1824,4351.56)"
         clip-path="url(#clipPath2863)" />
      <path
         id="path2864"
         d="M 0,0 H -2.287 V -0.366 H 0 c 0.274,0 0.274,0 0.274,0.092 v 0.183 C 0.274,0 0.183,0 0,0"
         style="fill:#ffffff; xx=icccc-color(sRGB-IEC61966-2, 0.1, 1, 1, 1);fill-opacity:1;fill-rule:nonzero;stroke:none"
         transform="matrix(1.3333333,0,0,-1.3333333,842.45067,4354.2432)"
         clip-path="url(#clipPath2865)" />
      <path
         id="path2866"
         d="m 0,0 c 0,-0.091 0,-0.091 -0.091,-0.091 h -0.366 c -0.092,0 -0.092,0 -0.092,0.091 v 4.391 c 0,0.091 0,0.182 0.092,0.091 h 0.366 C 0,4.482 0,4.482 0,4.391 Z"
         style="fill:#ffffff; xx=icccc-color(sRGB-IEC61966-2, 0.1, 1, 1, 1);fill-opacity:1;fill-rule:nonzero;stroke:none"
         transform="matrix(1.3333333,0,0,-1.3333333,856.23213,4356.9263)"
         clip-path="url(#clipPath2867)" />
      <path
         id="path2868"
         d="m 0,0 c 0,-0.091 0,-0.091 -0.091,-0.091 h -0.366 c -0.092,0 -0.092,0 -0.092,0.091 v 1.921 c 0,0.091 0,0.183 0.092,0.091 h 0.366 C 0,2.012 0,2.012 0,1.921 Z"
         style="fill:#ffffff; xx=icccc-color(sRGB-IEC61966-2, 0.1, 1, 1, 1);fill-opacity:1;fill-rule:nonzero;stroke:none"
         transform="matrix(1.3333333,0,0,-1.3333333,864.89133,4356.9263)"
         clip-path="url(#clipPath2869)" />
      <path
         id="path2870"
         d="m 0,0 v -2.104 c 0,-0.091 0,-0.091 -0.091,-0.091 h -0.366 c -0.092,0 -0.183,0 -0.183,0.091 v 4.391 c 0,0.091 0,0.183 0.091,0.183 h 2.287 c 0.091,0 0.091,0 0.091,-0.092 V 2.104 c 0,-0.092 0,-0.092 -0.091,-0.092 H 0 V 0.457 h 1.463 c 0.092,0 0.092,0 0.092,-0.091 V 0.091 C 1.555,0 1.555,0 1.463,0 Z"
         style="fill:#ffffff; xx=icccc-color(sRGB-IEC61966-2, 0.1, 1, 1, 1);fill-opacity:1;fill-rule:nonzero;stroke:none"
         transform="matrix(1.3333333,0,0,-1.3333333,870.37933,4354.1212)"
         clip-path="url(#clipPath2871)" />
      <path
         id="path2872"
         d="m 0,0 c -1.189,0 -2.104,1.006 -2.104,2.378 0,1.189 0.641,2.47 2.104,2.47 1.372,0 2.012,-1.098 2.104,-2.287 C 2.195,1.098 1.281,0 0,0 m 0,4.482 c -0.183,0 -0.457,-0.091 -0.64,-0.183 -0.641,-0.366 -0.823,-1.098 -0.823,-1.829 0,-0.275 0,-0.458 0.091,-0.732 C -1.189,0.823 -0.64,0.366 0,0.366 c 0.366,0 0.823,0.183 1.098,0.64 C 1.372,1.463 1.463,2.104 1.463,2.47 1.372,4.116 0.457,4.482 0,4.482"
         style="fill:#ffffff; xx=icccc-color(sRGB-IEC61966-2, 0.1, 1, 1, 1);fill-opacity:1;fill-rule:nonzero;stroke:none"
         transform="matrix(1.3333333,0,0,-1.3333333,875.7456,4357.2921)"
         clip-path="url(#clipPath2873)" />
      <path
         id="path2874"
         d="m 0,0 c -1.189,0 -2.104,1.006 -2.104,2.378 0,1.189 0.641,2.47 2.104,2.47 1.372,0 2.012,-1.098 2.104,-2.287 C 2.104,1.098 1.281,0 0,0 m 0,4.482 c -0.183,0 -0.457,-0.091 -0.64,-0.183 -0.641,-0.366 -0.823,-1.098 -0.823,-1.829 0,-0.275 0,-0.458 0.091,-0.732 C -1.189,0.823 -0.64,0.366 0,0.366 c 0.366,0 0.823,0.183 1.098,0.64 C 1.372,1.463 1.463,2.104 1.463,2.47 1.372,4.116 0.457,4.482 0,4.482"
         style="fill:#ffffff; xx=icccc-color(sRGB-IEC61966-2, 0.1, 1, 1, 1);fill-opacity:1;fill-rule:nonzero;stroke:none"
         transform="matrix(1.3333333,0,0,-1.3333333,847.08507,4357.2921)"
         clip-path="url(#clipPath2875)" />
      <path
         id="path2876"
         d="M 0,0 V 0 1.006 2.012 3.018 C 0,3.11 0,3.11 -0.091,3.11 h -0.458 c -0.091,0 -0.091,0 -0.091,-0.092 V 2.012 1.006 0.183 0.091 c 0,-0.274 0,-0.64 -0.275,-1.006 -0.274,-0.274 -0.64,-0.457 -0.914,-0.457 -0.458,0 -1.006,0.274 -1.098,0.915 0,0.183 -0.091,0.274 -0.091,0.457 v 0.915 1.006 1.006 c 0,0.091 0,0.091 -0.092,0.091 h -0.457 c -0.092,0 -0.092,0 -0.092,-0.091 V 1.921 0.915 -0.091 c 0,-1.007 0.824,-1.738 1.83,-1.738 C -0.732,-1.829 0,-1.006 0,0"
         style="fill:#ffffff; xx=icccc-color(sRGB-IEC61966-2, 0.1, 1, 1, 1);fill-opacity:1;fill-rule:nonzero;stroke:none"
         transform="matrix(1.3333333,0,0,-1.3333333,831.96213,4354.9749)"
         clip-path="url(#clipPath2877)" />
      <path
         id="path2878"
         d="m 0,0 h -1.463 l -0.641,-1.738 c 0,-0.091 -0.091,-0.091 -0.183,-0.091 h -0.274 c 0,0 -0.092,0 -0.092,0.091 v 0.092 l 1.738,4.39 c 0,0.091 0.092,0.091 0.092,0.091 h 0.274 c 0.092,0 0.092,0 0.092,-0.091 l 1.738,-4.39 v -0.092 c 0,-0.091 0,-0.091 -0.092,-0.091 H 0.732 c -0.092,0 -0.092,0 -0.183,0.091 z M -0.183,0.366 -0.732,1.921 -1.281,0.366 Z"
         style="fill:#ffffff; xx=icccc-color(sRGB-IEC61966-2, 0.1, 1, 1, 1);fill-opacity:1;fill-rule:nonzero;stroke:none"
         transform="matrix(1.3333333,0,0,-1.3333333,889.64907,4354.7311)"
         clip-path="url(#clipPath2879)" />
      <path
         id="path2880"
         d="m 0,0 -1.098,-3.293 c 0,-0.091 0,-0.091 -0.091,-0.091 -0.183,0 -0.274,0 -0.274,0.091 l -1.281,4.391 v 0.091 c 0,0.092 0.091,0.092 0.091,0.092 h 0.458 c 0.091,0 0.091,0 0.183,-0.092 L -1.098,-2.195 0,1.098 0.091,1.281 h 0.183 c 0,0 0.092,0 0.092,-0.092 l 1.097,-3.384 0.915,3.384 c 0,0.092 0.092,0.092 0.183,0.092 h 0.366 c 0,0 0.091,0 0.091,-0.092 V 1.098 l -1.28,-4.391 c 0,-0.091 0,-0.091 -0.092,-0.091 H 1.189 c -0.091,0 -0.091,0 -0.091,0.091 z"
         style="fill:#ffffff; xx=icccc-color(sRGB-IEC61966-2, 0.1, 1, 1, 1);fill-opacity:1;fill-rule:nonzero;stroke:none"
         transform="matrix(1.3333333,0,0,-1.3333333,894.64933,4352.6577)"
         clip-path="url(#clipPath2881)" />
      <path
         id="path2882"
         d="m 0,0 c 0.091,-0.183 0.091,-0.457 0.457,-0.732 0.183,-0.183 0.549,-0.366 1.098,-0.549 0.183,0 0.274,-0.091 0.274,-0.182 0,0 0,-0.092 -0.183,-0.092 -0.091,0 -0.548,0.092 -0.914,0.183 -0.549,0.183 -1.189,0.549 -1.555,1.281 -1.281,0.091 -1.921,1.097 -1.921,2.378 0,1.463 0.915,2.47 2.195,2.47 1.372,0 2.195,-1.098 2.195,-2.379 C 1.646,1.098 0.915,0.274 0,0 M 0.549,3.842 C 0.274,4.299 -0.183,4.391 -0.549,4.391 -1.006,4.391 -1.372,4.116 -1.646,3.75 -1.829,3.476 -2.012,3.018 -2.012,2.378 c 0,-1.372 0.731,-2.012 1.463,-2.012 0.458,0 0.823,0.274 1.098,0.64 0.274,0.457 0.366,0.915 0.366,1.372 0,0.549 -0.092,1.006 -0.366,1.464"
         style="fill:#ffffff; xx=icccc-color(sRGB-IEC61966-2, 0.1, 1, 1, 1);fill-opacity:1;fill-rule:nonzero;stroke:none"
         transform="matrix(1.3333333,0,0,-1.3333333,902.3328,4357.1703)"
         clip-path="url(#clipPath2883)" />
      <path
         id="path2884"
         d="m 0,0 h -1.463 l -0.641,-1.738 c 0,-0.091 -0.091,-0.091 -0.183,-0.091 h -0.274 c 0,0 -0.092,0 -0.092,0.091 v 0.092 l 1.738,4.39 c 0,0.091 0.092,0.091 0.092,0.091 h 0.274 c 0,0 0.092,0 0.092,-0.091 l 1.738,-4.39 v -0.092 c 0,-0.091 0,-0.091 -0.092,-0.091 H 0.732 c -0.092,0 -0.092,0 -0.183,0.091 z M -0.183,0.366 -0.732,1.921 -1.281,0.366 Z"
         style="fill:#ffffff; xx=icccc-color(sRGB-IEC61966-2, 0.1, 1, 1, 1);fill-opacity:1;fill-rule:nonzero;stroke:none"
         transform="matrix(1.3333333,0,0,-1.3333333,908.3088,4354.7311)"
         clip-path="url(#clipPath2885)" />
      <path
         id="path2886"
         d="m 0,0 v -2.104 c 0,-0.091 0,-0.091 -0.091,-0.091 h -0.366 c -0.092,0 -0.183,0 -0.183,0.091 v 4.391 c 0,0.091 0,0.183 0.091,0.183 h 2.287 c 0.091,0 0.091,0 0.091,-0.092 V 2.104 c 0,-0.092 0,-0.092 -0.091,-0.092 H 0 V 0.457 h 1.463 c 0.092,0 0.092,0 0.092,-0.091 V 0.091 C 1.555,0 1.555,0 1.463,0 Z"
         style="fill:#ffffff; xx=icccc-color(sRGB-IEC61966-2, 0.1, 1, 1, 1);fill-opacity:1;fill-rule:nonzero;stroke:none"
         transform="matrix(1.3333333,0,0,-1.3333333,911.7236,4354.1212)"
         clip-path="url(#clipPath2887)" />
      <path
         id="path2888"
         d="m 0,0 -0.823,-2.195 -0.915,2.104 c 0,0.091 0,0.182 -0.183,0.091 L -2.378,0 C -2.47,0 -2.47,0 -2.47,-0.091 v -0.092 l 1.372,-3.11 c 0,-0.091 0.092,-0.091 0.275,-0.091 0.091,0 0.091,0 0.091,0.091 l 1.189,3.202 C 0.457,0 0.457,0 0.366,0 H 0 c 0,0.091 0,0.091 0,0"
         style="fill:#ffffff; xx=icccc-color(sRGB-IEC61966-2, 0.1, 1, 1, 1);fill-opacity:1;fill-rule:nonzero;stroke:none"
         transform="matrix(1.3333333,0,0,-1.3333333,865.74493,4351.0723)"
         clip-path="url(#clipPath2889)" />
    </g>
  </g>
</svg>
